%TF.GenerationSoftware,KiCad,Pcbnew,(5.1.9)-1*%
%TF.CreationDate,2022-03-12T14:49:13-05:00*%
%TF.ProjectId,4runner-seat-heat,3472756e-6e65-4722-9d73-6561742d6865,rev?*%
%TF.SameCoordinates,Original*%
%TF.FileFunction,Soldermask,Bot*%
%TF.FilePolarity,Negative*%
%FSLAX46Y46*%
G04 Gerber Fmt 4.6, Leading zero omitted, Abs format (unit mm)*
G04 Created by KiCad (PCBNEW (5.1.9)-1) date 2022-03-12 14:49:13*
%MOMM*%
%LPD*%
G01*
G04 APERTURE LIST*
%ADD10C,5.410200*%
%ADD11C,1.800000*%
%ADD12C,1.600000*%
%ADD13R,1.600000X1.600000*%
%ADD14C,2.159000*%
%ADD15C,1.524000*%
G04 APERTURE END LIST*
D10*
%TO.C,REF\u002A\u002A*%
X13309600Y-61711200D03*
%TD*%
%TO.C,REF\u002A\u002A*%
X13309600Y-711200D03*
%TD*%
%TO.C,REF\u002A\u002A*%
X58470800Y-61711200D03*
%TD*%
%TO.C,REF\u002A\u002A*%
X58470800Y-711200D03*
%TD*%
D11*
%TO.C,J9*%
X64312800Y-2424400D03*
X64312800Y-17424400D03*
X64312800Y-7424400D03*
X64312800Y-12424400D03*
%TD*%
D12*
%TO.C,U2*%
X31838900Y-31115000D03*
X29298900Y-31115000D03*
X26758900Y-31115000D03*
X24218900Y-31115000D03*
X34378900Y-31115000D03*
X36918900Y-31115000D03*
X39458900Y-31115000D03*
X24218900Y-33655000D03*
X24218900Y-36195000D03*
X24218900Y-38735000D03*
X24218900Y-41275000D03*
X24218900Y-43815000D03*
X24218900Y-46355000D03*
X24218900Y-48895000D03*
X24218900Y-51435000D03*
X24218900Y-53975000D03*
X24218900Y-56515000D03*
X24218900Y-59055000D03*
X24218900Y-61595000D03*
X24218900Y-64135000D03*
X39458900Y-33655000D03*
X39458900Y-36195000D03*
X39458900Y-38735000D03*
X39458900Y-41275000D03*
X39458900Y-43815000D03*
X39458900Y-46355000D03*
X39458900Y-48895000D03*
X39458900Y-51435000D03*
X39458900Y-53975000D03*
X39458900Y-56515000D03*
X39458900Y-59055000D03*
X39458900Y-61595000D03*
D13*
X39458900Y-64135000D03*
%TD*%
D11*
%TO.C,Left-Heater1*%
X64312800Y-52785000D03*
X64312800Y-57785000D03*
%TD*%
%TO.C,Right-Heater1*%
X64338200Y-32592000D03*
X64338200Y-37592000D03*
%TD*%
D14*
%TO.C,F1*%
X52489100Y-9690100D03*
X52489100Y-23152100D03*
X49085500Y-9690100D03*
X49085500Y-23152100D03*
%TD*%
D15*
%TO.C,J3*%
X8001000Y-23910000D03*
X8001000Y-20410000D03*
X8001000Y-16910000D03*
X8001000Y-13410000D03*
X8001000Y-9910000D03*
X8001000Y-6410000D03*
%TD*%
%TO.C,J8*%
X8001000Y-38007600D03*
X8001000Y-41507600D03*
X8001000Y-45007600D03*
X8001000Y-48507600D03*
X8001000Y-52007600D03*
X8001000Y-55507600D03*
%TD*%
M02*
