M48
; DRILL file {KiCad (5.1.9)-1} date 03/20/22 14:43:24
; FORMAT={-:-/ absolute / inch / decimal}
; #@! TF.CreationDate,2022-03-20T14:43:24-04:00
; #@! TF.GenerationSoftware,Kicad,Pcbnew,(5.1.9)-1
; #@! TF.FileFunction,Plated,1,2,PTH
FMAT,2
INCH
T1C0.0120
T2C0.0433
T3C0.0472
T4C0.0551
T5C0.0650
T6C0.1250
%
G90
G05
T1
X0.046Y0.1594
X0.046Y0.0245
X0.046Y-0.1044
X0.046Y-0.2333
X0.046Y-0.3622
X0.046Y-0.4911
X0.046Y-0.62
X0.046Y-0.7489
X0.046Y-0.8778
X0.046Y-1.0067
X0.046Y-1.1356
X0.046Y-1.2645
X0.046Y-1.3934
X0.046Y-1.5223
X0.046Y-1.6512
X0.046Y-1.7801
X0.046Y-1.909
X0.046Y-2.0379
X0.046Y-2.1668
X0.046Y-2.2957
X0.046Y-2.4246
X0.046Y-2.5535
X0.1754Y0.1594
X0.1761Y-2.5545
X0.2343Y-0.3051
X0.3048Y0.1594
X0.3051Y-2.5545
X0.307Y-1.143
X0.325Y-0.166
X0.3484Y-1.8386
X0.3819Y-1.6614
X0.3925Y-0.953
X0.4135Y-0.2845
X0.4235Y-0.398
X0.4252Y-1.3071
X0.426Y-0.6825
X0.4331Y-1.0571
X0.4342Y0.1594
X0.4382Y-2.5545
X0.4528Y-1.4055
X0.4685Y-1.5765
X0.4803Y-1.6575
X0.498Y-2.188
X0.5079Y-1.3622
X0.513Y-0.4285
X0.5635Y0.1594
X0.5673Y-2.5545
X0.5675Y-0.693
X0.59Y-2.1265
X0.599Y-0.8985
X0.6102Y-1.1575
X0.632Y-2.164
X0.638Y-1.4585
X0.6565Y-0.7765
X0.673Y-0.1245
X0.675Y-1.2895
X0.6923Y-2.5545
X0.6929Y0.1594
X0.734Y-0.5985
X0.7405Y-0.3325
X0.746Y-1.1835
X0.7565Y-1.5085
X0.769Y-1.426
X0.7735Y-0.218
X0.7755Y-0.719
X0.782Y-2.208
X0.7953Y-2.1654
X0.798Y-2.414
X0.8035Y-1.9025
X0.805Y-1.8445
X0.815Y-1.6905
X0.8214Y-2.5545
X0.8223Y0.1594
X0.842Y-0.166
X0.854Y-0.336
X0.8845Y-1.947
X0.886Y-1.571
X0.9415Y-0.1115
X0.9495Y-1.083
X0.9517Y0.1594
X0.971Y-0.9675
X1.0035Y-0.2935
X1.0035Y-0.327
X1.0035Y-0.3605
X1.048Y-2.032
X1.055Y-1.8225
X1.057Y-2.406
X1.066Y-1.6155
X1.0811Y0.1594
X1.0955Y-1.9625
X1.0955Y-2.5545
X1.098Y-1.478
X1.1535Y-0.4215
X1.1555Y-1.3095
X1.18Y-0.728
X1.205Y-1.0685
X1.2086Y-2.5545
X1.2105Y0.1594
X1.233Y-1.597
X1.238Y-1.9105
X1.252Y-2.126
X1.336Y-0.121
X1.3377Y-2.5545
X1.3398Y0.1594
X1.348Y-1.3975
X1.3975Y-2.35
X1.407Y-1.8135
X1.4145Y-0.2415
X1.4145Y-0.2715
X1.446Y-2.2235
X1.448Y-0.2415
X1.448Y-0.2715
X1.451Y-1.007
X1.4655Y-2.566
X1.4692Y0.1594
X1.4765Y-1.98
X1.4815Y-0.2415
X1.4815Y-0.2715
X1.5555Y-0.121
X1.586Y-0.825
X1.5986Y0.1594
X1.617Y-0.5025
X1.625Y-2.554
X1.637Y-2.3515
X1.6515Y-1.9295
X1.6515Y-2.0715
X1.6515Y-2.1425
X1.652Y-1.136
X1.652Y-1.278
X1.652Y-1.349
X1.7087Y-1.5175
X1.709Y-1.7325
X1.7225Y-1.9295
X1.7225Y-2.0005
X1.7225Y-2.0715
X1.7225Y-2.1425
X1.7225Y-2.2135
X1.723Y-1.136
X1.723Y-1.207
X1.723Y-1.278
X1.723Y-1.349
X1.723Y-1.42
X1.7249Y-2.5545
X1.726Y-0.9365
X1.728Y0.1594
X1.7415Y-2.3735
X1.748Y-0.1315
X1.7505Y-1.5135
X1.7935Y-1.9295
X1.7935Y-2.0005
X1.7935Y-2.0715
X1.7935Y-2.1425
X1.7935Y-2.2135
X1.794Y-1.136
X1.794Y-1.207
X1.794Y-1.278
X1.794Y-1.349
X1.794Y-1.42
X1.794Y-1.7255
X1.8045Y-0.5635
X1.8055Y-0.3305
X1.818Y-2.348
X1.854Y-2.5545
X1.8574Y0.1594
X1.8645Y-1.9295
X1.8645Y-2.0005
X1.8645Y-2.0715
X1.8645Y-2.1425
X1.8645Y-2.2135
X1.865Y-1.136
X1.865Y-1.207
X1.865Y-1.278
X1.865Y-1.349
X1.865Y-1.42
X1.8815Y-2.452
X1.9355Y-1.9295
X1.9355Y-2.0005
X1.9355Y-2.0715
X1.9355Y-2.1425
X1.9355Y-2.2135
X1.936Y-1.136
X1.936Y-1.207
X1.936Y-1.278
X1.936Y-1.349
X1.936Y-1.42
X1.977Y-0.1495
X1.981Y-0.677
X1.983Y-2.5545
X1.9868Y0.1594
X2.0385Y-1.7465
X2.04Y-0.5255
X2.107Y-1.936
X2.107Y-2.22
X2.1075Y-1.1425
X2.1075Y-1.4265
X2.1121Y-2.5545
X2.1161Y0.1594
X2.1355Y-0.2045
X2.143Y-0.4845
X2.143Y-0.5555
X2.143Y-0.6265
X2.143Y-0.6975
X2.143Y-0.7685
X2.178Y-1.936
X2.178Y-2.22
X2.1785Y-1.1425
X2.1785Y-1.4265
X2.214Y-0.4845
X2.214Y-0.5555
X2.214Y-0.6265
X2.214Y-0.6975
X2.214Y-0.7685
X2.226Y-2.32
X2.2415Y-1.5045
X2.2455Y0.1594
X2.249Y-1.936
X2.249Y-2.22
X2.2495Y-1.1425
X2.2495Y-1.4265
X2.258Y-2.554
X2.274Y-1.7375
X2.285Y-0.4845
X2.285Y-0.5555
X2.285Y-0.6265
X2.285Y-0.6975
X2.285Y-0.7685
X2.32Y-1.936
X2.32Y-2.007
X2.32Y-2.078
X2.32Y-2.149
X2.32Y-2.22
X2.3205Y-1.1425
X2.3205Y-1.2135
X2.3205Y-1.2845
X2.3205Y-1.3555
X2.3205Y-1.4265
X2.356Y-0.4845
X2.356Y-0.5555
X2.356Y-0.6265
X2.356Y-0.6975
X2.356Y-0.7685
X2.3749Y0.1594
X2.38Y-2.554
X2.391Y-1.936
X2.391Y-2.007
X2.391Y-2.078
X2.391Y-2.149
X2.391Y-2.22
X2.3915Y-1.1425
X2.3915Y-1.2135
X2.3915Y-1.2845
X2.3915Y-1.3555
X2.3915Y-1.4265
X2.427Y-0.6265
X2.427Y-0.6975
X2.427Y-0.7685
X2.4285Y-0.5545
X2.4993Y-2.5545
X2.4995Y-0.5781
X2.4995Y-0.6255
X2.5043Y0.1594
X2.5375Y-1.8845
X2.5455Y-1.7
X2.5705Y-0.5781
X2.5705Y-0.6255
X2.5805Y-0.778
X2.5984Y0.0039
X2.6225Y-0.2215
X2.6284Y-2.5545
X2.6337Y0.1594
X2.6415Y-0.3415
X2.6415Y-0.4125
X2.6415Y-0.4835
X2.6415Y-0.5545
X2.6415Y-0.6255
X2.7125Y-0.3415
X2.7125Y-0.4125
X2.7125Y-0.4835
X2.7125Y-0.5545
X2.7125Y-0.6255
X2.7405Y-2.412
X2.7574Y-2.5545
X2.7631Y0.1594
X2.781Y-0.1405
X2.7885Y-0.79
X2.824Y-0.4965
X2.8925Y0.1594
X2.8925Y0.0245
X2.8925Y-0.1044
X2.8925Y-0.2333
X2.8925Y-0.3622
X2.8925Y-0.4911
X2.8925Y-0.62
X2.8925Y-0.7489
X2.8925Y-0.8778
X2.8925Y-1.0067
X2.8925Y-1.1356
X2.8925Y-1.2645
X2.8925Y-1.3934
X2.8925Y-1.5223
X2.8925Y-1.6512
X2.8925Y-1.7801
X2.8925Y-1.909
X2.8925Y-2.0379
X2.8925Y-2.1668
X2.8925Y-2.2957
X2.8925Y-2.4246
X2.8925Y-2.5535
T2
X0.9535Y-1.225
X0.9535Y-1.325
X0.9535Y-1.425
X0.9535Y-1.525
X0.9535Y-1.625
X0.9535Y-1.725
X0.9535Y-1.825
X0.9535Y-1.925
X0.9535Y-2.025
X0.9535Y-2.125
X0.9535Y-2.225
X0.9535Y-2.325
X0.9535Y-2.425
X0.9535Y-2.525
X1.0535Y-1.225
X1.1535Y-1.225
X1.2535Y-1.225
X1.3535Y-1.225
X1.4535Y-1.225
X1.5535Y-1.225
X1.5535Y-1.325
X1.5535Y-1.425
X1.5535Y-1.525
X1.5535Y-1.625
X1.5535Y-1.725
X1.5535Y-1.825
X1.5535Y-1.925
X1.5535Y-2.025
X1.5535Y-2.125
X1.5535Y-2.225
X1.5535Y-2.325
X1.5535Y-2.425
X1.5535Y-2.525
T3
X0.315Y-0.2524
X0.315Y-0.3902
X0.315Y-0.528
X0.315Y-0.6657
X0.315Y-0.8035
X0.315Y-0.9413
X0.315Y-1.4964
X0.315Y-1.6342
X0.315Y-1.772
X0.315Y-1.9097
X0.315Y-2.0475
X0.315Y-2.1853
T4
X2.532Y-0.0954
X2.532Y-0.2923
X2.532Y-0.4891
X2.532Y-0.686
X2.532Y-2.0781
X2.532Y-2.275
X2.533Y-1.2831
X2.533Y-1.48
T5
X1.9325Y-0.3815
X1.9325Y-0.9115
X2.0665Y-0.3815
X2.0665Y-0.9115
T6
X0.524Y-0.028
X0.524Y-2.4296
X2.302Y-0.028
X2.302Y-2.4296
T0
M30
