%TF.GenerationSoftware,KiCad,Pcbnew,(5.1.9)-1*%
%TF.CreationDate,2022-03-12T14:49:13-05:00*%
%TF.ProjectId,4runner-seat-heat,3472756e-6e65-4722-9d73-6561742d6865,rev?*%
%TF.SameCoordinates,Original*%
%TF.FileFunction,Legend,Bot*%
%TF.FilePolarity,Positive*%
%FSLAX46Y46*%
G04 Gerber Fmt 4.6, Leading zero omitted, Abs format (unit mm)*
G04 Created by KiCad (PCBNEW (5.1.9)-1) date 2022-03-12 14:49:13*
%MOMM*%
%LPD*%
G01*
G04 APERTURE LIST*
%ADD10C,0.190500*%
G04 APERTURE END LIST*
D10*
X61906956Y-2893343D02*
X61368140Y-2354527D01*
X61239851Y-2482817D01*
X61188535Y-2585448D01*
X61188535Y-2688080D01*
X61214193Y-2765053D01*
X61291167Y-2893343D01*
X61368140Y-2970316D01*
X61496430Y-3047290D01*
X61573403Y-3072948D01*
X61676035Y-3072948D01*
X61778666Y-3021632D01*
X61906956Y-2893343D01*
X61368140Y-3432158D02*
X60829325Y-2893343D01*
X61111562Y-3688737D02*
X60572746Y-3149922D01*
X60778009Y-3714395D01*
X60213536Y-3509132D01*
X60752351Y-4047947D01*
X60290510Y-4099263D02*
X59879984Y-4509789D01*
X59033274Y-4740710D02*
X59058932Y-4663736D01*
X59135905Y-4586762D01*
X59238537Y-4535447D01*
X59341168Y-4535447D01*
X59418142Y-4561105D01*
X59546431Y-4638078D01*
X59623405Y-4715052D01*
X59700379Y-4843341D01*
X59726037Y-4920315D01*
X59726037Y-5022946D01*
X59674721Y-5125578D01*
X59623405Y-5176894D01*
X59520774Y-5228209D01*
X59469458Y-5228209D01*
X59289853Y-5048604D01*
X59392484Y-4945973D01*
X59289853Y-5510446D02*
X58751037Y-4971631D01*
X58981958Y-5818340D01*
X58443143Y-5279525D01*
X58725379Y-6074919D02*
X58186564Y-5536104D01*
X58058275Y-5664393D01*
X58006959Y-5767025D01*
X58006959Y-5869656D01*
X58032617Y-5946630D01*
X58109590Y-6074919D01*
X58186564Y-6151893D01*
X58314853Y-6228866D01*
X58391827Y-6254524D01*
X58494459Y-6254524D01*
X58597090Y-6203209D01*
X58725379Y-6074919D01*
X5809343Y-52445574D02*
X6244772Y-52445574D01*
X6027058Y-52445574D02*
X6027058Y-51683574D01*
X6099629Y-51792431D01*
X6172200Y-51865002D01*
X6244772Y-51901288D01*
X5519058Y-51756145D02*
X5482772Y-51719860D01*
X5410200Y-51683574D01*
X5228772Y-51683574D01*
X5156200Y-51719860D01*
X5119915Y-51756145D01*
X5083629Y-51828717D01*
X5083629Y-51901288D01*
X5119915Y-52010145D01*
X5555343Y-52445574D01*
X5083629Y-52445574D01*
X4865915Y-51683574D02*
X4611915Y-52445574D01*
X4357915Y-51683574D01*
X4103915Y-52445574D02*
X4103915Y-51683574D01*
X3922486Y-51683574D01*
X3813629Y-51719860D01*
X3741058Y-51792431D01*
X3704772Y-51865002D01*
X3668486Y-52010145D01*
X3668486Y-52119002D01*
X3704772Y-52264145D01*
X3741058Y-52336717D01*
X3813629Y-52409288D01*
X3922486Y-52445574D01*
X4103915Y-52445574D01*
X2906486Y-52373002D02*
X2942772Y-52409288D01*
X3051629Y-52445574D01*
X3124200Y-52445574D01*
X3233058Y-52409288D01*
X3305629Y-52336717D01*
X3341915Y-52264145D01*
X3378200Y-52119002D01*
X3378200Y-52010145D01*
X3341915Y-51865002D01*
X3305629Y-51792431D01*
X3233058Y-51719860D01*
X3124200Y-51683574D01*
X3051629Y-51683574D01*
X2942772Y-51719860D01*
X2906486Y-51756145D01*
X2579915Y-52155288D02*
X1999343Y-52155288D01*
X1273629Y-51683574D02*
X1636486Y-51683574D01*
X1672772Y-52046431D01*
X1636486Y-52010145D01*
X1563915Y-51973860D01*
X1382486Y-51973860D01*
X1309915Y-52010145D01*
X1273629Y-52046431D01*
X1237343Y-52119002D01*
X1237343Y-52300431D01*
X1273629Y-52373002D01*
X1309915Y-52409288D01*
X1382486Y-52445574D01*
X1563915Y-52445574D01*
X1636486Y-52409288D01*
X1672772Y-52373002D01*
X6244772Y-41194825D02*
X6208486Y-41158540D01*
X6135915Y-41122254D01*
X5954486Y-41122254D01*
X5881915Y-41158540D01*
X5845629Y-41194825D01*
X5809343Y-41267397D01*
X5809343Y-41339968D01*
X5845629Y-41448825D01*
X6281058Y-41884254D01*
X5809343Y-41884254D01*
X5881915Y-48417134D02*
X5881915Y-48925134D01*
X6063343Y-48126848D02*
X6244772Y-48671134D01*
X5773058Y-48671134D01*
X6281058Y-44642694D02*
X5809343Y-44642694D01*
X6063343Y-44932980D01*
X5954486Y-44932980D01*
X5881915Y-44969265D01*
X5845629Y-45005551D01*
X5809343Y-45078122D01*
X5809343Y-45259551D01*
X5845629Y-45332122D01*
X5881915Y-45368408D01*
X5954486Y-45404694D01*
X6172200Y-45404694D01*
X6244772Y-45368408D01*
X6281058Y-45332122D01*
X5881915Y-55204014D02*
X6027058Y-55204014D01*
X6099629Y-55240300D01*
X6135915Y-55276585D01*
X6208486Y-55385442D01*
X6244772Y-55530585D01*
X6244772Y-55820871D01*
X6208486Y-55893442D01*
X6172200Y-55929728D01*
X6099629Y-55966014D01*
X5954486Y-55966014D01*
X5881915Y-55929728D01*
X5845629Y-55893442D01*
X5809343Y-55820871D01*
X5809343Y-55639442D01*
X5845629Y-55566871D01*
X5881915Y-55530585D01*
X5954486Y-55494300D01*
X6099629Y-55494300D01*
X6172200Y-55530585D01*
X6208486Y-55566871D01*
X6244772Y-55639442D01*
X5809342Y-37638100D02*
X5881914Y-37601814D01*
X5990771Y-37601814D01*
X6099628Y-37638100D01*
X6172200Y-37710671D01*
X6208485Y-37783242D01*
X6244771Y-37928385D01*
X6244771Y-38037242D01*
X6208485Y-38182385D01*
X6172200Y-38254957D01*
X6099628Y-38327528D01*
X5990771Y-38363814D01*
X5918200Y-38363814D01*
X5809342Y-38327528D01*
X5773057Y-38291242D01*
X5773057Y-38037242D01*
X5918200Y-38037242D01*
X5446485Y-38363814D02*
X5446485Y-37601814D01*
X5011057Y-38363814D01*
X5011057Y-37601814D01*
X4648200Y-38363814D02*
X4648200Y-37601814D01*
X4466771Y-37601814D01*
X4357914Y-37638100D01*
X4285342Y-37710671D01*
X4249057Y-37783242D01*
X4212771Y-37928385D01*
X4212771Y-38037242D01*
X4249057Y-38182385D01*
X4285342Y-38254957D01*
X4357914Y-38327528D01*
X4466771Y-38363814D01*
X4648200Y-38363814D01*
X3886200Y-38073528D02*
X3305628Y-38073528D01*
X2543628Y-38363814D02*
X2979057Y-38363814D01*
X2761342Y-38363814D02*
X2761342Y-37601814D01*
X2833914Y-37710671D01*
X2906485Y-37783242D01*
X2979057Y-37819528D01*
X6271772Y-9586125D02*
X6235486Y-9549840D01*
X6162915Y-9513554D01*
X5981486Y-9513554D01*
X5908915Y-9549840D01*
X5872629Y-9586125D01*
X5836343Y-9658697D01*
X5836343Y-9731268D01*
X5872629Y-9840125D01*
X6308058Y-10275554D01*
X5836343Y-10275554D01*
X5908915Y-16808434D02*
X5908915Y-17316434D01*
X6090343Y-16518148D02*
X6271772Y-17062434D01*
X5800058Y-17062434D01*
X6308058Y-13033994D02*
X5836343Y-13033994D01*
X6090343Y-13324280D01*
X5981486Y-13324280D01*
X5908915Y-13360565D01*
X5872629Y-13396851D01*
X5836343Y-13469422D01*
X5836343Y-13650851D01*
X5872629Y-13723422D01*
X5908915Y-13759708D01*
X5981486Y-13795994D01*
X6199200Y-13795994D01*
X6271772Y-13759708D01*
X6308058Y-13723422D01*
X5836343Y-20836874D02*
X6271772Y-20836874D01*
X6054058Y-20836874D02*
X6054058Y-20074874D01*
X6126629Y-20183731D01*
X6199200Y-20256302D01*
X6271772Y-20292588D01*
X5546058Y-20147445D02*
X5509772Y-20111160D01*
X5437200Y-20074874D01*
X5255772Y-20074874D01*
X5183200Y-20111160D01*
X5146915Y-20147445D01*
X5110629Y-20220017D01*
X5110629Y-20292588D01*
X5146915Y-20401445D01*
X5582343Y-20836874D01*
X5110629Y-20836874D01*
X4892915Y-20074874D02*
X4638915Y-20836874D01*
X4384915Y-20074874D01*
X4130915Y-20836874D02*
X4130915Y-20074874D01*
X3949486Y-20074874D01*
X3840629Y-20111160D01*
X3768058Y-20183731D01*
X3731772Y-20256302D01*
X3695486Y-20401445D01*
X3695486Y-20510302D01*
X3731772Y-20655445D01*
X3768058Y-20728017D01*
X3840629Y-20800588D01*
X3949486Y-20836874D01*
X4130915Y-20836874D01*
X2933486Y-20764302D02*
X2969772Y-20800588D01*
X3078629Y-20836874D01*
X3151200Y-20836874D01*
X3260058Y-20800588D01*
X3332629Y-20728017D01*
X3368915Y-20655445D01*
X3405200Y-20510302D01*
X3405200Y-20401445D01*
X3368915Y-20256302D01*
X3332629Y-20183731D01*
X3260058Y-20111160D01*
X3151200Y-20074874D01*
X3078629Y-20074874D01*
X2969772Y-20111160D01*
X2933486Y-20147445D01*
X2606915Y-20546588D02*
X2026343Y-20546588D01*
X1300629Y-20074874D02*
X1663486Y-20074874D01*
X1699772Y-20437731D01*
X1663486Y-20401445D01*
X1590915Y-20365160D01*
X1409486Y-20365160D01*
X1336915Y-20401445D01*
X1300629Y-20437731D01*
X1264343Y-20510302D01*
X1264343Y-20691731D01*
X1300629Y-20764302D01*
X1336915Y-20800588D01*
X1409486Y-20836874D01*
X1590915Y-20836874D01*
X1663486Y-20800588D01*
X1699772Y-20764302D01*
X5908915Y-23595314D02*
X6054058Y-23595314D01*
X6126629Y-23631600D01*
X6162915Y-23667885D01*
X6235486Y-23776742D01*
X6271772Y-23921885D01*
X6271772Y-24212171D01*
X6235486Y-24284742D01*
X6199200Y-24321028D01*
X6126629Y-24357314D01*
X5981486Y-24357314D01*
X5908915Y-24321028D01*
X5872629Y-24284742D01*
X5836343Y-24212171D01*
X5836343Y-24030742D01*
X5872629Y-23958171D01*
X5908915Y-23921885D01*
X5981486Y-23885600D01*
X6126629Y-23885600D01*
X6199200Y-23921885D01*
X6235486Y-23958171D01*
X6271772Y-24030742D01*
X5836342Y-6029400D02*
X5908914Y-5993114D01*
X6017771Y-5993114D01*
X6126628Y-6029400D01*
X6199200Y-6101971D01*
X6235485Y-6174542D01*
X6271771Y-6319685D01*
X6271771Y-6428542D01*
X6235485Y-6573685D01*
X6199200Y-6646257D01*
X6126628Y-6718828D01*
X6017771Y-6755114D01*
X5945200Y-6755114D01*
X5836342Y-6718828D01*
X5800057Y-6682542D01*
X5800057Y-6428542D01*
X5945200Y-6428542D01*
X5473485Y-6755114D02*
X5473485Y-5993114D01*
X5038057Y-6755114D01*
X5038057Y-5993114D01*
X4675200Y-6755114D02*
X4675200Y-5993114D01*
X4493771Y-5993114D01*
X4384914Y-6029400D01*
X4312342Y-6101971D01*
X4276057Y-6174542D01*
X4239771Y-6319685D01*
X4239771Y-6428542D01*
X4276057Y-6573685D01*
X4312342Y-6646257D01*
X4384914Y-6718828D01*
X4493771Y-6755114D01*
X4675200Y-6755114D01*
X3913200Y-6464828D02*
X3332628Y-6464828D01*
X2570628Y-6755114D02*
X3006057Y-6755114D01*
X2788342Y-6755114D02*
X2788342Y-5993114D01*
X2860914Y-6101971D01*
X2933485Y-6174542D01*
X3006057Y-6210828D01*
X61037618Y-52799766D02*
X61063276Y-52722792D01*
X61140249Y-52645819D01*
X61242881Y-52594503D01*
X61345512Y-52594503D01*
X61422486Y-52620161D01*
X61550775Y-52697134D01*
X61627749Y-52774108D01*
X61704723Y-52902397D01*
X61730380Y-52979371D01*
X61730380Y-53082002D01*
X61679065Y-53184634D01*
X61627749Y-53235950D01*
X61525117Y-53287265D01*
X61473802Y-53287265D01*
X61294197Y-53107660D01*
X61396828Y-53005029D01*
X61294197Y-53569502D02*
X60755381Y-53030687D01*
X60986302Y-53877397D01*
X60447487Y-53338581D01*
X60729723Y-54133975D02*
X60190908Y-53595160D01*
X60062619Y-53723449D01*
X60011303Y-53826081D01*
X60011303Y-53928712D01*
X60036961Y-54005686D01*
X60113934Y-54133975D01*
X60190908Y-54210949D01*
X60319197Y-54287923D01*
X60396171Y-54313580D01*
X60498802Y-54313580D01*
X60601434Y-54262265D01*
X60729723Y-54133975D01*
X61613502Y-58317497D02*
X61921396Y-58009602D01*
X61767449Y-58163550D02*
X61228634Y-57624734D01*
X61356923Y-57650392D01*
X61459554Y-57650392D01*
X61536528Y-57624734D01*
X60920739Y-58035260D02*
X60869423Y-58035260D01*
X60792450Y-58060918D01*
X60664160Y-58189208D01*
X60638502Y-58266181D01*
X60638502Y-58317497D01*
X60664160Y-58394471D01*
X60715476Y-58445786D01*
X60818108Y-58497102D01*
X61433897Y-58497102D01*
X61100344Y-58830654D01*
X60407582Y-58445786D02*
X60766792Y-59164207D01*
X60048371Y-58804997D01*
X60788002Y-38289597D02*
X61095896Y-37981702D01*
X60941949Y-38135650D02*
X60403134Y-37596834D01*
X60531423Y-37622492D01*
X60634054Y-37622492D01*
X60711028Y-37596834D01*
X60095239Y-38007360D02*
X60043923Y-38007360D01*
X59966950Y-38033018D01*
X59838660Y-38161308D01*
X59813002Y-38238281D01*
X59813002Y-38289597D01*
X59838660Y-38366571D01*
X59889976Y-38417886D01*
X59992608Y-38469202D01*
X60608397Y-38469202D01*
X60274844Y-38802754D01*
X59582082Y-38417886D02*
X59941292Y-39136307D01*
X59222871Y-38777097D01*
X60212118Y-32771866D02*
X60237776Y-32694892D01*
X60314749Y-32617919D01*
X60417381Y-32566603D01*
X60520012Y-32566603D01*
X60596986Y-32592261D01*
X60725275Y-32669234D01*
X60802249Y-32746208D01*
X60879223Y-32874497D01*
X60904880Y-32951471D01*
X60904880Y-33054102D01*
X60853565Y-33156734D01*
X60802249Y-33208050D01*
X60699617Y-33259365D01*
X60648302Y-33259365D01*
X60468697Y-33079760D01*
X60571328Y-32977129D01*
X60468697Y-33541602D02*
X59929881Y-33002787D01*
X60160802Y-33849497D01*
X59621987Y-33310681D01*
X59904223Y-34106075D02*
X59365408Y-33567260D01*
X59237119Y-33695549D01*
X59185803Y-33798181D01*
X59185803Y-33900812D01*
X59211461Y-33977786D01*
X59288434Y-34106075D01*
X59365408Y-34183049D01*
X59493697Y-34260023D01*
X59570671Y-34285680D01*
X59673302Y-34285680D01*
X59775934Y-34234365D01*
X59904223Y-34106075D01*
X60559451Y-13000722D02*
X60867345Y-12692827D01*
X60713398Y-12846775D02*
X60174583Y-12307959D01*
X60302872Y-12333617D01*
X60405503Y-12333617D01*
X60482477Y-12307959D01*
X59866688Y-12718485D02*
X59815372Y-12718485D01*
X59738399Y-12744143D01*
X59610109Y-12872433D01*
X59584451Y-12949406D01*
X59584451Y-13000722D01*
X59610109Y-13077696D01*
X59661425Y-13129011D01*
X59764057Y-13180327D01*
X60379846Y-13180327D01*
X60046293Y-13513879D01*
X59353531Y-13129011D02*
X59712741Y-13847432D01*
X58994320Y-13488222D01*
X59353531Y-14206642D02*
X58814715Y-13667827D01*
X58686426Y-13796116D01*
X58635110Y-13898748D01*
X58635110Y-14001379D01*
X58660768Y-14078353D01*
X58737742Y-14206642D01*
X58814715Y-14283616D01*
X58943005Y-14360589D01*
X59019978Y-14386247D01*
X59122610Y-14386247D01*
X59225241Y-14334931D01*
X59353531Y-14206642D01*
X58455505Y-15002036D02*
X58506821Y-15002036D01*
X58609452Y-14950720D01*
X58660768Y-14899405D01*
X58712084Y-14796773D01*
X58712084Y-14694142D01*
X58686426Y-14617168D01*
X58609452Y-14488879D01*
X58532479Y-14411905D01*
X58404189Y-14334931D01*
X58327216Y-14309274D01*
X58224584Y-14309274D01*
X58121953Y-14360589D01*
X58070637Y-14411905D01*
X58019321Y-14514537D01*
X58019321Y-14565852D01*
X57865374Y-15694799D02*
X57326559Y-15155983D01*
X56813401Y-15720457D02*
X56839059Y-15643483D01*
X56916033Y-15566509D01*
X57018664Y-15515194D01*
X57121296Y-15515194D01*
X57198269Y-15540851D01*
X57326559Y-15617825D01*
X57403532Y-15694799D01*
X57480506Y-15823088D01*
X57506164Y-15900062D01*
X57506164Y-16002693D01*
X57454848Y-16105325D01*
X57403532Y-16156640D01*
X57300901Y-16207956D01*
X57249585Y-16207956D01*
X57069980Y-16028351D01*
X57172611Y-15925720D01*
X57069980Y-16490193D02*
X56531164Y-15951377D01*
X56762085Y-16798087D01*
X56223270Y-16259272D01*
X60456319Y-8103179D02*
X60764214Y-7795285D01*
X60610266Y-7949232D02*
X60071451Y-7410417D01*
X60199740Y-7436075D01*
X60302372Y-7436075D01*
X60379346Y-7410417D01*
X59763557Y-7820943D02*
X59712241Y-7820943D01*
X59635267Y-7846601D01*
X59506978Y-7974890D01*
X59481320Y-8051864D01*
X59481320Y-8103179D01*
X59506978Y-8180153D01*
X59558294Y-8231469D01*
X59660925Y-8282785D01*
X60276714Y-8282785D01*
X59943162Y-8616337D01*
X59250399Y-8231469D02*
X59609609Y-8949889D01*
X58891189Y-8590679D01*
X59045136Y-9103837D02*
X58634610Y-9514362D01*
X58121453Y-9360415D02*
X57813558Y-9668310D01*
X58506321Y-10053178D02*
X57967505Y-9514362D01*
X58044479Y-10207125D02*
X57787900Y-10463704D01*
X58249742Y-10309757D02*
X57531322Y-9950546D01*
X57890532Y-10668967D01*
X57710927Y-10848572D02*
X57172111Y-10309757D01*
X57197769Y-11361729D02*
X57454348Y-11105151D01*
X56915533Y-10566335D01*
X60085118Y-17696966D02*
X60110776Y-17619992D01*
X60187749Y-17543019D01*
X60290381Y-17491703D01*
X60393012Y-17491703D01*
X60469986Y-17517361D01*
X60598275Y-17594334D01*
X60675249Y-17671308D01*
X60752223Y-17799597D01*
X60777880Y-17876571D01*
X60777880Y-17979202D01*
X60726565Y-18081834D01*
X60675249Y-18133150D01*
X60572617Y-18184465D01*
X60521302Y-18184465D01*
X60341697Y-18004860D01*
X60444328Y-17902229D01*
X60341697Y-18466702D02*
X59802881Y-17927887D01*
X60033802Y-18774597D01*
X59494987Y-18235781D01*
X59777223Y-19031175D02*
X59238408Y-18492360D01*
X59110119Y-18620649D01*
X59058803Y-18723281D01*
X59058803Y-18825912D01*
X59084461Y-18902886D01*
X59161434Y-19031175D01*
X59238408Y-19108149D01*
X59366697Y-19185123D01*
X59443671Y-19210780D01*
X59546302Y-19210780D01*
X59648934Y-19159465D01*
X59777223Y-19031175D01*
M02*
