%TF.GenerationSoftware,KiCad,Pcbnew,(5.1.9)-1*%
%TF.CreationDate,2021-12-25T23:37:10-05:00*%
%TF.ProjectId,4runner-seat-heat,3472756e-6e65-4722-9d73-6561742d6865,rev?*%
%TF.SameCoordinates,Original*%
%TF.FileFunction,Copper,L2,Bot*%
%TF.FilePolarity,Positive*%
%FSLAX46Y46*%
G04 Gerber Fmt 4.6, Leading zero omitted, Abs format (unit mm)*
G04 Created by KiCad (PCBNEW (5.1.9)-1) date 2021-12-25 23:37:10*
%MOMM*%
%LPD*%
G01*
G04 APERTURE LIST*
%TA.AperFunction,ComponentPad*%
%ADD10C,1.600000*%
%TD*%
%TA.AperFunction,ComponentPad*%
%ADD11R,1.600000X1.600000*%
%TD*%
%TA.AperFunction,ComponentPad*%
%ADD12C,1.800000*%
%TD*%
%TA.AperFunction,ComponentPad*%
%ADD13C,5.410200*%
%TD*%
%TA.AperFunction,ComponentPad*%
%ADD14C,2.159000*%
%TD*%
%TA.AperFunction,ComponentPad*%
%ADD15C,1.524000*%
%TD*%
%TA.AperFunction,ViaPad*%
%ADD16C,0.457200*%
%TD*%
%TA.AperFunction,Conductor*%
%ADD17C,0.381000*%
%TD*%
%TA.AperFunction,Conductor*%
%ADD18C,0.508000*%
%TD*%
%TA.AperFunction,Conductor*%
%ADD19C,3.810000*%
%TD*%
%TA.AperFunction,Conductor*%
%ADD20C,0.254000*%
%TD*%
%TA.AperFunction,Conductor*%
%ADD21C,0.100000*%
%TD*%
G04 APERTURE END LIST*
D10*
%TO.P,U2,GND*%
%TO.N,GND*%
X31838900Y-31115000D03*
%TO.P,U2,Program*%
%TO.N,Net-(U2-PadProgram)*%
X29298900Y-31115000D03*
%TO.P,U2,A14*%
%TO.N,Net-(U2-PadA14)*%
X26758900Y-31115000D03*
%TO.P,U2,13*%
%TO.N,Net-(U2-Pad13)*%
X24218900Y-31115000D03*
%TO.P,U2,3.3V*%
%TO.N,Net-(U2-Pad3.3V)*%
X34378900Y-31115000D03*
%TO.P,U2,VBat*%
%TO.N,Net-(U2-PadVBat)*%
X36918900Y-31115000D03*
%TO.P,U2,12*%
%TO.N,Net-(U2-Pad12)*%
X39458900Y-31115000D03*
%TO.P,U2,14*%
%TO.N,Right-Pot*%
X24218900Y-33655000D03*
%TO.P,U2,15*%
%TO.N,Left-Pot*%
X24218900Y-36195000D03*
%TO.P,U2,16*%
%TO.N,Net-(R19-Pad1)*%
X24218900Y-38735000D03*
%TO.P,U2,17*%
%TO.N,Net-(R17-Pad1)*%
X24218900Y-41275000D03*
%TO.P,U2,18*%
%TO.N,Net-(U2-Pad18)*%
X24218900Y-43815000D03*
%TO.P,U2,19*%
%TO.N,Net-(U2-Pad19)*%
X24218900Y-46355000D03*
%TO.P,U2,20*%
%TO.N,Net-(U2-Pad20)*%
X24218900Y-48895000D03*
%TO.P,U2,21*%
%TO.N,Net-(U2-Pad21)*%
X24218900Y-51435000D03*
%TO.P,U2,22*%
%TO.N,Right-Heat-3V3*%
X24218900Y-53975000D03*
%TO.P,U2,23*%
%TO.N,Left-Heat-3V3*%
X24218900Y-56515000D03*
%TO.P,U2,3V3*%
%TO.N,Net-(U2-Pad3V3)*%
X24218900Y-59055000D03*
%TO.P,U2,AGND*%
%TO.N,GND*%
X24218900Y-61595000D03*
%TO.P,U2,Vin*%
%TO.N,3V3*%
X24218900Y-64135000D03*
%TO.P,U2,11*%
%TO.N,Net-(U2-Pad11)*%
X39458900Y-33655000D03*
%TO.P,U2,10*%
%TO.N,Net-(U2-Pad10)*%
X39458900Y-36195000D03*
%TO.P,U2,9*%
%TO.N,Net-(U2-Pad9)*%
X39458900Y-38735000D03*
%TO.P,U2,8*%
%TO.N,Net-(U2-Pad8)*%
X39458900Y-41275000D03*
%TO.P,U2,7*%
%TO.N,Net-(U2-Pad7)*%
X39458900Y-43815000D03*
%TO.P,U2,6*%
%TO.N,Net-(U2-Pad6)*%
X39458900Y-46355000D03*
%TO.P,U2,5*%
%TO.N,Net-(U2-Pad5)*%
X39458900Y-48895000D03*
%TO.P,U2,4*%
%TO.N,Right-Illum-3V3*%
X39458900Y-51435000D03*
%TO.P,U2,3*%
%TO.N,Left-Illum-3V3*%
X39458900Y-53975000D03*
%TO.P,U2,2*%
%TO.N,Net-(U2-Pad2)*%
X39458900Y-56515000D03*
%TO.P,U2,1*%
%TO.N,Net-(U2-Pad1)*%
X39458900Y-59055000D03*
%TO.P,U2,0*%
%TO.N,Net-(U2-Pad0)*%
X39458900Y-61595000D03*
D11*
%TO.P,U2,GND*%
%TO.N,GND*%
X39458900Y-64135000D03*
%TD*%
D12*
%TO.P,J10,3*%
%TO.N,/12VDC-IGN*%
X64338200Y-7449800D03*
%TO.P,J10,2*%
%TO.N,GND*%
X64338200Y-12449800D03*
%TO.P,J10,1*%
%TO.N,+Lights*%
X64338200Y-17449800D03*
%TD*%
%TO.P,Left-Heater,2*%
%TO.N,Net-(Left-Heater1-Pad2)*%
X64312800Y-52785000D03*
%TO.P,Left-Heater,1*%
%TO.N,+12VDC*%
X64312800Y-57785000D03*
%TD*%
%TO.P,Right-Heater,2*%
%TO.N,Net-(Q2-Pad3)*%
X64338200Y-32592000D03*
%TO.P,Right-Heater,1*%
%TO.N,+12VDC*%
X64338200Y-37592000D03*
%TD*%
D13*
%TO.P,REF\u002A\u002A,1*%
%TO.N,N/C*%
X58318400Y-4368800D03*
%TD*%
%TO.P,REF\u002A\u002A,1*%
%TO.N,N/C*%
X13030200Y-4368800D03*
%TD*%
%TO.P,REF\u002A\u002A,1*%
%TO.N,N/C*%
X58496200Y-61747400D03*
%TD*%
%TO.P,REF\u002A\u002A,1*%
%TO.N,N/C*%
X13004800Y-61747400D03*
%TD*%
D14*
%TO.P,F1,1*%
%TO.N,/12VDC-IGN*%
X52489100Y-9690100D03*
%TO.P,F1,2*%
%TO.N,+12VDC*%
X52489100Y-23152100D03*
%TO.P,F1,1*%
%TO.N,/12VDC-IGN*%
X49085500Y-9690100D03*
%TO.P,F1,2*%
%TO.N,+12VDC*%
X49085500Y-23152100D03*
%TD*%
D15*
%TO.P,Right Switch,6*%
%TO.N,Right-Illum*%
X8001000Y-24485000D03*
%TO.P,Right Switch,5*%
%TO.N,+12-Polyfuse*%
X8001000Y-20985000D03*
%TO.P,Right Switch,4*%
%TO.N,Net-(J3-Pad4)*%
X8001000Y-17485000D03*
%TO.P,Right Switch,3*%
%TO.N,+12-Polyfuse*%
X8001000Y-13985000D03*
%TO.P,Right Switch,2*%
%TO.N,Net-(J3-Pad2)*%
X8001000Y-10485000D03*
%TO.P,Right Switch,1*%
%TO.N,GND*%
X8001000Y-6985000D03*
%TD*%
%TO.P,Left Switch,1*%
%TO.N,GND*%
X8001000Y-38582600D03*
%TO.P,Left Switch,2*%
%TO.N,Net-(J8-Pad2)*%
X8001000Y-42082600D03*
%TO.P,Left Switch,3*%
%TO.N,+12-Polyfuse*%
X8001000Y-45582600D03*
%TO.P,Left Switch,4*%
%TO.N,Net-(J8-Pad4)*%
X8001000Y-49082600D03*
%TO.P,Left Switch,5*%
%TO.N,+12-Polyfuse*%
X8001000Y-52582600D03*
%TO.P,Left Switch,6*%
%TO.N,Left-Illum*%
X8001000Y-56082600D03*
%TD*%
D16*
%TO.N,GND*%
X54432200Y-14109700D03*
X54432200Y-19519900D03*
%TO.N,Net-(C7-Pad1)*%
X35928300Y-6134100D03*
X37630100Y-6134100D03*
X36779200Y-6134100D03*
X35928300Y-6896100D03*
X37630100Y-6896100D03*
X36779200Y-6896100D03*
X25488900Y-7454900D03*
X25488900Y-8305800D03*
X25488900Y-9156700D03*
%TO.N,GND*%
X41948100Y-54419500D03*
X45554900Y-54419500D03*
X43751500Y-50812700D03*
X43751500Y-54419500D03*
X47358300Y-56222900D03*
X41948100Y-52616100D03*
X43751500Y-56222900D03*
X43751500Y-52616100D03*
X45554900Y-52616100D03*
X49161700Y-52616100D03*
X41948100Y-49009300D03*
X49161700Y-56222900D03*
X49161700Y-54419500D03*
X45554900Y-50812700D03*
X47358300Y-49009300D03*
X49161700Y-50812700D03*
X43751500Y-49009300D03*
X45554900Y-56222900D03*
X47358300Y-50812700D03*
X47358300Y-52616100D03*
X45554900Y-49009300D03*
X49161700Y-49009300D03*
X47358300Y-54419500D03*
%TO.N,Net-(Left-Heater1-Pad2)*%
X53517800Y-49174400D03*
X58928000Y-52781200D03*
X60731400Y-52781200D03*
X58928000Y-54584600D03*
X57124600Y-56388000D03*
X60731400Y-54584600D03*
X53517800Y-56388000D03*
X58928000Y-56388000D03*
X60731400Y-56388000D03*
X55321200Y-56388000D03*
X58928000Y-49174400D03*
X60731400Y-50977800D03*
X55321200Y-49174400D03*
X57124600Y-49174400D03*
X58928000Y-50977800D03*
X60731400Y-49174400D03*
%TO.N,Net-(Q2-Pad3)*%
X53530500Y-29019500D03*
X55333900Y-29019500D03*
X57137300Y-29019500D03*
X58940700Y-29019500D03*
X60744100Y-29019500D03*
X58940700Y-30822900D03*
X60744100Y-30822900D03*
X58940700Y-32626300D03*
X60744100Y-32626300D03*
X58940700Y-34429700D03*
X60744100Y-34429700D03*
X53530500Y-36233100D03*
X55333900Y-36233100D03*
X57137300Y-36233100D03*
X58940700Y-36233100D03*
X60744100Y-36233100D03*
%TO.N,GND*%
X41960800Y-28854400D03*
X47371000Y-32461200D03*
X45567600Y-32461200D03*
X49174400Y-32461200D03*
X43764200Y-34264600D03*
X45567600Y-34264600D03*
X47371000Y-34264600D03*
X41960800Y-34264600D03*
X45567600Y-36068000D03*
X49174400Y-34264600D03*
X47371000Y-36068000D03*
X49174400Y-36068000D03*
X43764200Y-36068000D03*
X45567600Y-30657800D03*
X47371000Y-28854400D03*
X49174400Y-30657800D03*
X43764200Y-28854400D03*
X45567600Y-28854400D03*
X43764200Y-30657800D03*
X47371000Y-30657800D03*
X41960800Y-32461200D03*
X43764200Y-32461200D03*
X49174400Y-28854400D03*
X29298900Y-10706100D03*
X54432200Y-17716500D03*
X58039000Y-17716500D03*
X56235600Y-14109700D03*
X56235600Y-17716500D03*
X59842400Y-19519900D03*
X54432200Y-15913100D03*
X56235600Y-19519900D03*
X56235600Y-15913100D03*
X58039000Y-15913100D03*
X61645800Y-15913100D03*
X54432200Y-12306300D03*
X61645800Y-19519900D03*
X61645800Y-17716500D03*
X58039000Y-14109700D03*
X59842400Y-12306300D03*
X56235600Y-12306300D03*
X58039000Y-19519900D03*
X59842400Y-14109700D03*
X59842400Y-15913100D03*
X58039000Y-12306300D03*
X59842400Y-17716500D03*
X67094100Y-10477500D03*
X68897500Y-10477500D03*
X65290700Y-10477500D03*
X61683900Y-14084300D03*
X67094100Y-14084300D03*
X63487300Y-15887700D03*
X61683900Y-12280900D03*
X68897500Y-14084300D03*
X67094100Y-12280900D03*
X68897500Y-12280900D03*
X65290700Y-15887700D03*
X67094100Y-15887700D03*
X68897500Y-8674100D03*
X67094100Y-8674100D03*
X68897500Y-15887700D03*
X65290700Y-14084300D03*
X63487300Y-14084300D03*
X4447309Y-1003300D03*
X7726218Y-1003300D03*
X10617200Y-850900D03*
X15506700Y-939800D03*
X17562945Y-1003300D03*
X20841854Y-1003300D03*
X24120763Y-1003300D03*
X27399672Y-1003300D03*
X30678581Y-1003300D03*
X33957490Y-1003300D03*
X37236399Y-1003300D03*
X40515308Y-1003300D03*
X43794217Y-1003300D03*
X47073126Y-1003300D03*
X50352035Y-1003300D03*
X53630944Y-1003300D03*
X55829200Y-927100D03*
X60769500Y-977900D03*
X63467671Y-1003300D03*
X66746580Y-1003300D03*
X70025489Y-1003300D03*
X73304400Y-965200D03*
X66760420Y-64884300D03*
X70038751Y-64884300D03*
X56184800Y-65112900D03*
X60883800Y-65125600D03*
X7750462Y-64884300D03*
X41275000Y-64871600D03*
X17585455Y-64884300D03*
X50368765Y-64884300D03*
X73317100Y-64846200D03*
X33977110Y-64884300D03*
X37223700Y-65176400D03*
X63482089Y-64884300D03*
X4472131Y-64884300D03*
X1193800Y-64858900D03*
X43812103Y-64884300D03*
X11028793Y-64884300D03*
X14307124Y-64884300D03*
X20863786Y-64884300D03*
X30698779Y-64884300D03*
X47090434Y-64884300D03*
X53647096Y-64884300D03*
X27825700Y-64884300D03*
X1193800Y-55768240D03*
X1193800Y-59014360D03*
X1193800Y-7076440D03*
X1193800Y-39537640D03*
X1193800Y-16814800D03*
X1193800Y-49276000D03*
X1193800Y-33045400D03*
X1193800Y-36291520D03*
X1193800Y-62260480D03*
X1193800Y-3830320D03*
X1168400Y-977900D03*
X1193800Y-42783760D03*
X1193800Y-10322560D03*
X1193800Y-13568680D03*
X1193800Y-20060920D03*
X1193800Y-23307040D03*
X1193800Y-29799280D03*
X1193800Y-46029880D03*
X1193800Y-52522120D03*
X1193800Y-26553160D03*
X73355200Y-20048220D03*
X73355200Y-33032700D03*
X73355200Y-49263300D03*
X73355200Y-62247780D03*
X73355200Y-29786580D03*
X73355200Y-39524940D03*
X73355200Y-55755540D03*
X73355200Y-46017180D03*
X73355200Y-36278820D03*
X73355200Y-42771060D03*
X73355200Y-23294340D03*
X73355200Y-13555980D03*
X73355200Y-59001660D03*
X73355200Y-7063740D03*
X73355200Y-26540460D03*
X73355200Y-3817620D03*
X73355200Y-10309860D03*
X73355200Y-52509420D03*
X73355200Y-16802100D03*
X8255000Y-4216400D03*
X17094200Y-3162300D03*
X21386800Y-4216400D03*
X23914100Y-2832100D03*
X19646900Y-5537200D03*
X10502900Y-7226300D03*
X6121400Y-5575300D03*
X10756900Y-10109200D03*
X13030200Y-10883900D03*
X18808700Y-8445500D03*
X21691600Y-8534400D03*
X33934400Y-3073400D03*
X39509700Y-3073400D03*
X44399200Y-3340100D03*
X50215800Y-3797300D03*
X54241700Y-5194300D03*
X45859700Y-8394700D03*
X45834300Y-14312900D03*
X50317400Y-17195800D03*
X63411100Y-5067300D03*
X64414400Y-3136900D03*
X66611500Y-5626100D03*
X70637400Y-3568700D03*
X71729600Y-12611100D03*
X70827900Y-20066000D03*
X65544700Y-19761200D03*
X51816000Y-13347700D03*
X43840400Y-23787100D03*
X36855400Y-25577800D03*
X40284400Y-20955000D03*
X24117300Y-27508200D03*
X30607000Y-27139900D03*
X10820400Y-17335500D03*
X14414500Y-17602200D03*
X16675100Y-19723100D03*
X9969500Y-24206200D03*
X15214600Y-22821900D03*
X7797800Y-29032200D03*
X12052300Y-27990800D03*
X10922000Y-32067500D03*
X14020800Y-30530800D03*
X12814300Y-35547300D03*
X17145000Y-32753300D03*
X16205200Y-37045900D03*
X19532600Y-36220400D03*
X27076400Y-41033700D03*
X44462700Y-38442900D03*
X56934100Y-38214300D03*
X45567600Y-43827700D03*
X57759600Y-44132500D03*
X51777900Y-44361100D03*
X56934100Y-58254900D03*
X44234100Y-60286900D03*
X47790100Y-62280800D03*
X26847800Y-61112400D03*
X35496500Y-59690000D03*
X11430000Y-56235600D03*
X20320000Y-60871100D03*
X20205700Y-55168800D03*
X20447000Y-46850300D03*
X26619200Y-51612800D03*
X27825700Y-49847500D03*
X41490900Y-38544500D03*
X22466300Y-49453800D03*
X20408900Y-48323500D03*
X26797000Y-46291500D03*
X20701000Y-42938700D03*
X22504400Y-39903400D03*
X19215100Y-38315900D03*
X27889200Y-37541200D03*
X11899900Y-40043100D03*
X11163300Y-43853100D03*
X10439400Y-46621700D03*
X64655700Y-43180000D03*
X64452500Y-47866300D03*
X69608700Y-61264800D03*
X41579800Y-59728100D03*
X36728400Y-56476900D03*
X35737800Y-46062900D03*
X34239200Y-35496500D03*
X29349700Y-33261300D03*
X43408600Y-44005500D03*
X31623000Y-52705000D03*
X31445200Y-48526700D03*
X41071800Y-12763500D03*
X18643600Y-15201900D03*
X19697700Y-18262600D03*
X31318200Y-40563800D03*
X37503100Y-50292000D03*
%TO.N,3V3*%
X24663400Y-24574500D03*
%TO.N,Left-Heat-3V3*%
X47472600Y-59766200D03*
%TO.N,Right-Illum-3V3*%
X18948400Y-30060900D03*
%TO.N,Net-(R17-Pad1)*%
X15621000Y-56032400D03*
%TD*%
D17*
%TO.N,3V3*%
X24218900Y-64135000D02*
X21107400Y-64135000D01*
X21107400Y-64135000D02*
X14033500Y-57061100D01*
X14033500Y-57061100D02*
X14033500Y-32435800D01*
X14033500Y-32435800D02*
X21742400Y-24726900D01*
X24511000Y-24726900D02*
X24663400Y-24574500D01*
X21742400Y-24726900D02*
X24511000Y-24726900D01*
D18*
%TO.N,+12-Polyfuse*%
X8001000Y-52582600D02*
X6350000Y-50931600D01*
X6350000Y-47233600D02*
X8001000Y-45582600D01*
X6350000Y-50931600D02*
X6350000Y-47233600D01*
X5854700Y-16131300D02*
X8001000Y-13985000D01*
X5854700Y-19177000D02*
X5854700Y-16131300D01*
X7662700Y-20985000D02*
X5854700Y-19177000D01*
X8001000Y-20985000D02*
X7662700Y-20985000D01*
X5943600Y-23042400D02*
X8001000Y-20985000D01*
X5943600Y-32613600D02*
X5943600Y-23042400D01*
X10604500Y-37274500D02*
X5943600Y-32613600D01*
X10604500Y-42979100D02*
X10604500Y-37274500D01*
X8001000Y-45582600D02*
X10604500Y-42979100D01*
D19*
%TO.N,+12VDC*%
X49085500Y-23152100D02*
X67424300Y-23152100D01*
X67424300Y-23152100D02*
X70040500Y-25768300D01*
X66992500Y-57785000D02*
X64312800Y-57785000D01*
X70040500Y-54737000D02*
X66992500Y-57785000D01*
X69938900Y-37592000D02*
X70040500Y-37693600D01*
X64338200Y-37592000D02*
X69938900Y-37592000D01*
X70040500Y-37693600D02*
X70040500Y-54737000D01*
X70040500Y-25768300D02*
X70040500Y-37693600D01*
%TO.N,/12VDC-IGN*%
X62097900Y-9690100D02*
X49085500Y-9690100D01*
X64338200Y-7449800D02*
X62097900Y-9690100D01*
D17*
%TO.N,Left-Heat-3V3*%
X45491400Y-57785000D02*
X47472600Y-59766200D01*
X34086800Y-57785000D02*
X45491400Y-57785000D01*
X32816800Y-56515000D02*
X34086800Y-57785000D01*
X24218900Y-56515000D02*
X32816800Y-56515000D01*
%TO.N,Right-Illum-3V3*%
X18948400Y-33299400D02*
X18948400Y-30060900D01*
X29070300Y-34899600D02*
X20548600Y-34899600D01*
X32854900Y-38684200D02*
X29070300Y-34899600D01*
X20548600Y-34899600D02*
X18948400Y-33299400D01*
X32854900Y-47993300D02*
X32854900Y-38684200D01*
X36296600Y-51435000D02*
X32854900Y-47993300D01*
X39458900Y-51435000D02*
X36296600Y-51435000D01*
%TO.N,Net-(R17-Pad1)*%
X21209000Y-41275000D02*
X24218900Y-41275000D01*
X15621000Y-46863000D02*
X21209000Y-41275000D01*
X15621000Y-56032400D02*
X15621000Y-46863000D01*
%TD*%
D20*
%TO.N,Net-(C7-Pad1)*%
X38304172Y-5796018D02*
X38364053Y-5808244D01*
X38404211Y-5835287D01*
X38431020Y-5875598D01*
X38442900Y-5935548D01*
X38442900Y-7599068D01*
X38430816Y-7659504D01*
X38403577Y-7700011D01*
X38362859Y-7726928D01*
X38302325Y-7738536D01*
X34581140Y-7709189D01*
X34563240Y-7710314D01*
X34492319Y-7719835D01*
X34474758Y-7723470D01*
X27884246Y-9581366D01*
X27832648Y-9588500D01*
X25107710Y-9588500D01*
X25047551Y-9576533D01*
X25007157Y-9549543D01*
X24980167Y-9509149D01*
X24968200Y-9448990D01*
X24968200Y-7249119D01*
X24977807Y-7194951D01*
X24999747Y-7157206D01*
X25033330Y-7129308D01*
X25085153Y-7110849D01*
X33064816Y-5768591D01*
X33097500Y-5765957D01*
X38304172Y-5796018D01*
%TA.AperFunction,Conductor*%
D21*
G36*
X38304172Y-5796018D02*
G01*
X38364053Y-5808244D01*
X38404211Y-5835287D01*
X38431020Y-5875598D01*
X38442900Y-5935548D01*
X38442900Y-7599068D01*
X38430816Y-7659504D01*
X38403577Y-7700011D01*
X38362859Y-7726928D01*
X38302325Y-7738536D01*
X34581140Y-7709189D01*
X34563240Y-7710314D01*
X34492319Y-7719835D01*
X34474758Y-7723470D01*
X27884246Y-9581366D01*
X27832648Y-9588500D01*
X25107710Y-9588500D01*
X25047551Y-9576533D01*
X25007157Y-9549543D01*
X24980167Y-9509149D01*
X24968200Y-9448990D01*
X24968200Y-7249119D01*
X24977807Y-7194951D01*
X24999747Y-7157206D01*
X25033330Y-7129308D01*
X25085153Y-7110849D01*
X33064816Y-5768591D01*
X33097500Y-5765957D01*
X38304172Y-5796018D01*
G37*
%TD.AperFunction*%
%TD*%
D20*
%TO.N,Net-(Left-Heater1-Pad2)*%
X61290215Y-48534003D02*
X61479510Y-48591421D01*
X61653970Y-48684666D01*
X61806891Y-48810153D01*
X61932389Y-48963057D01*
X62025649Y-49137507D01*
X62083089Y-49326806D01*
X62103723Y-49536110D01*
X62103727Y-49536155D01*
X62125621Y-49757432D01*
X62130516Y-49781935D01*
X62195311Y-49994642D01*
X62204908Y-50017712D01*
X62310095Y-50213616D01*
X62324022Y-50234360D01*
X62465528Y-50405879D01*
X62483249Y-50423495D01*
X62655599Y-50563988D01*
X62676425Y-50577793D01*
X62872946Y-50681824D01*
X62896072Y-50691285D01*
X63109157Y-50754825D01*
X63133687Y-50759575D01*
X63355089Y-50780166D01*
X63367586Y-50780710D01*
X65327408Y-50769350D01*
X65531916Y-50786090D01*
X65724991Y-50836750D01*
X65906301Y-50920240D01*
X66070307Y-51034008D01*
X66212016Y-51174591D01*
X66327096Y-51337691D01*
X66412031Y-51518326D01*
X66464231Y-51710987D01*
X66482603Y-51915349D01*
X66486419Y-53656935D01*
X66469106Y-53860437D01*
X66418225Y-54052486D01*
X66334834Y-54232835D01*
X66221473Y-54395991D01*
X66081547Y-54537054D01*
X65919306Y-54651739D01*
X65739650Y-54736584D01*
X65548014Y-54789020D01*
X65344654Y-54807981D01*
X63424261Y-54819330D01*
X63412158Y-54819980D01*
X63191911Y-54842386D01*
X63168166Y-54847122D01*
X62956174Y-54910921D01*
X62933759Y-54920077D01*
X62737727Y-55022949D01*
X62717457Y-55036193D01*
X62544513Y-55174400D01*
X62527125Y-55191250D01*
X62383553Y-55359767D01*
X62369678Y-55379611D01*
X62260698Y-55572314D01*
X62250843Y-55594431D01*
X62180416Y-55804314D01*
X62174936Y-55827899D01*
X62145622Y-56047334D01*
X62145623Y-56047334D01*
X62117916Y-56254152D01*
X62055193Y-56440390D01*
X61958144Y-56611259D01*
X61830317Y-56760512D01*
X61676399Y-56882677D01*
X61502024Y-56973284D01*
X61313580Y-57029010D01*
X61111886Y-57048400D01*
X53421748Y-57048400D01*
X53217805Y-57030557D01*
X53025435Y-56979012D01*
X52844940Y-56894845D01*
X52681810Y-56780620D01*
X52540980Y-56639790D01*
X52426755Y-56476660D01*
X52342588Y-56296165D01*
X52291043Y-56103795D01*
X52273200Y-55899852D01*
X52273200Y-49662548D01*
X52291043Y-49458605D01*
X52342588Y-49266235D01*
X52426755Y-49085740D01*
X52540980Y-48922610D01*
X52681810Y-48781780D01*
X52844940Y-48667555D01*
X53025435Y-48583388D01*
X53217805Y-48531843D01*
X53421748Y-48514000D01*
X61087106Y-48514000D01*
X61290215Y-48534003D01*
%TA.AperFunction,Conductor*%
D21*
G36*
X61290215Y-48534003D02*
G01*
X61479510Y-48591421D01*
X61653970Y-48684666D01*
X61806891Y-48810153D01*
X61932389Y-48963057D01*
X62025649Y-49137507D01*
X62083089Y-49326806D01*
X62103723Y-49536110D01*
X62103727Y-49536155D01*
X62125621Y-49757432D01*
X62130516Y-49781935D01*
X62195311Y-49994642D01*
X62204908Y-50017712D01*
X62310095Y-50213616D01*
X62324022Y-50234360D01*
X62465528Y-50405879D01*
X62483249Y-50423495D01*
X62655599Y-50563988D01*
X62676425Y-50577793D01*
X62872946Y-50681824D01*
X62896072Y-50691285D01*
X63109157Y-50754825D01*
X63133687Y-50759575D01*
X63355089Y-50780166D01*
X63367586Y-50780710D01*
X65327408Y-50769350D01*
X65531916Y-50786090D01*
X65724991Y-50836750D01*
X65906301Y-50920240D01*
X66070307Y-51034008D01*
X66212016Y-51174591D01*
X66327096Y-51337691D01*
X66412031Y-51518326D01*
X66464231Y-51710987D01*
X66482603Y-51915349D01*
X66486419Y-53656935D01*
X66469106Y-53860437D01*
X66418225Y-54052486D01*
X66334834Y-54232835D01*
X66221473Y-54395991D01*
X66081547Y-54537054D01*
X65919306Y-54651739D01*
X65739650Y-54736584D01*
X65548014Y-54789020D01*
X65344654Y-54807981D01*
X63424261Y-54819330D01*
X63412158Y-54819980D01*
X63191911Y-54842386D01*
X63168166Y-54847122D01*
X62956174Y-54910921D01*
X62933759Y-54920077D01*
X62737727Y-55022949D01*
X62717457Y-55036193D01*
X62544513Y-55174400D01*
X62527125Y-55191250D01*
X62383553Y-55359767D01*
X62369678Y-55379611D01*
X62260698Y-55572314D01*
X62250843Y-55594431D01*
X62180416Y-55804314D01*
X62174936Y-55827899D01*
X62145622Y-56047334D01*
X62145623Y-56047334D01*
X62117916Y-56254152D01*
X62055193Y-56440390D01*
X61958144Y-56611259D01*
X61830317Y-56760512D01*
X61676399Y-56882677D01*
X61502024Y-56973284D01*
X61313580Y-57029010D01*
X61111886Y-57048400D01*
X53421748Y-57048400D01*
X53217805Y-57030557D01*
X53025435Y-56979012D01*
X52844940Y-56894845D01*
X52681810Y-56780620D01*
X52540980Y-56639790D01*
X52426755Y-56476660D01*
X52342588Y-56296165D01*
X52291043Y-56103795D01*
X52273200Y-55899852D01*
X52273200Y-49662548D01*
X52291043Y-49458605D01*
X52342588Y-49266235D01*
X52426755Y-49085740D01*
X52540980Y-48922610D01*
X52681810Y-48781780D01*
X52844940Y-48667555D01*
X53025435Y-48583388D01*
X53217805Y-48531843D01*
X53421748Y-48514000D01*
X61087106Y-48514000D01*
X61290215Y-48534003D01*
G37*
%TD.AperFunction*%
%TD*%
D20*
%TO.N,GND*%
X73991001Y-65812000D02*
X406000Y-65812000D01*
X406000Y-61443446D01*
X9918700Y-61443446D01*
X9918700Y-62051354D01*
X10037297Y-62647582D01*
X10269934Y-63209216D01*
X10607670Y-63714674D01*
X11037526Y-64144530D01*
X11542984Y-64482266D01*
X12104618Y-64714903D01*
X12700846Y-64833500D01*
X13308754Y-64833500D01*
X13904982Y-64714903D01*
X14466616Y-64482266D01*
X14972074Y-64144530D01*
X15401930Y-63714674D01*
X15739666Y-63209216D01*
X15972303Y-62647582D01*
X16090900Y-62051354D01*
X16090900Y-61443446D01*
X15972303Y-60847218D01*
X15739666Y-60285584D01*
X15401930Y-59780126D01*
X14972074Y-59350270D01*
X14466616Y-59012534D01*
X13904982Y-58779897D01*
X13308754Y-58661300D01*
X12700846Y-58661300D01*
X12104618Y-58779897D01*
X11542984Y-59012534D01*
X11037526Y-59350270D01*
X10607670Y-59780126D01*
X10269934Y-60285584D01*
X10037297Y-60847218D01*
X9918700Y-61443446D01*
X406000Y-61443446D01*
X406000Y-55970024D01*
X6858000Y-55970024D01*
X6858000Y-56195176D01*
X6901925Y-56416001D01*
X6988087Y-56624013D01*
X7113174Y-56811220D01*
X7272380Y-56970426D01*
X7459587Y-57095513D01*
X7667599Y-57181675D01*
X7888424Y-57225600D01*
X8113576Y-57225600D01*
X8334401Y-57181675D01*
X8542413Y-57095513D01*
X8729620Y-56970426D01*
X8888826Y-56811220D01*
X9013913Y-56624013D01*
X9100075Y-56416001D01*
X9144000Y-56195176D01*
X9144000Y-55970024D01*
X9100075Y-55749199D01*
X9013913Y-55541187D01*
X8888826Y-55353980D01*
X8729620Y-55194774D01*
X8542413Y-55069687D01*
X8334401Y-54983525D01*
X8113576Y-54939600D01*
X7888424Y-54939600D01*
X7667599Y-54983525D01*
X7459587Y-55069687D01*
X7272380Y-55194774D01*
X7113174Y-55353980D01*
X6988087Y-55541187D01*
X6901925Y-55749199D01*
X6858000Y-55970024D01*
X406000Y-55970024D01*
X406000Y-41970024D01*
X6858000Y-41970024D01*
X6858000Y-42195176D01*
X6901925Y-42416001D01*
X6988087Y-42624013D01*
X7113174Y-42811220D01*
X7272380Y-42970426D01*
X7459587Y-43095513D01*
X7667599Y-43181675D01*
X7888424Y-43225600D01*
X8113576Y-43225600D01*
X8334401Y-43181675D01*
X8542413Y-43095513D01*
X8729620Y-42970426D01*
X8888826Y-42811220D01*
X9013913Y-42624013D01*
X9100075Y-42416001D01*
X9144000Y-42195176D01*
X9144000Y-41970024D01*
X9100075Y-41749199D01*
X9013913Y-41541187D01*
X8888826Y-41353980D01*
X8729620Y-41194774D01*
X8542413Y-41069687D01*
X8334401Y-40983525D01*
X8113576Y-40939600D01*
X7888424Y-40939600D01*
X7667599Y-40983525D01*
X7459587Y-41069687D01*
X7272380Y-41194774D01*
X7113174Y-41353980D01*
X6988087Y-41541187D01*
X6901925Y-41749199D01*
X6858000Y-41970024D01*
X406000Y-41970024D01*
X406000Y-16131300D01*
X5216629Y-16131300D01*
X5219701Y-16162491D01*
X5219700Y-19145819D01*
X5216629Y-19177000D01*
X5219700Y-19208181D01*
X5219700Y-19208191D01*
X5228888Y-19301481D01*
X5265198Y-19421179D01*
X5324163Y-19531493D01*
X5403515Y-19628185D01*
X5427750Y-19648074D01*
X6858000Y-21078325D01*
X6858000Y-21097576D01*
X6879967Y-21208009D01*
X5516646Y-22571330D01*
X5492416Y-22591215D01*
X5472532Y-22615444D01*
X5413063Y-22687907D01*
X5354098Y-22798221D01*
X5317789Y-22917919D01*
X5305529Y-23042400D01*
X5308601Y-23073591D01*
X5308600Y-32582419D01*
X5305529Y-32613600D01*
X5308600Y-32644781D01*
X5308600Y-32644791D01*
X5317788Y-32738081D01*
X5354098Y-32857779D01*
X5413063Y-32968093D01*
X5492415Y-33064785D01*
X5516650Y-33084674D01*
X9969501Y-37537526D01*
X9969500Y-42716075D01*
X8224009Y-44461567D01*
X8113576Y-44439600D01*
X7888424Y-44439600D01*
X7667599Y-44483525D01*
X7459587Y-44569687D01*
X7272380Y-44694774D01*
X7113174Y-44853980D01*
X6988087Y-45041187D01*
X6901925Y-45249199D01*
X6858000Y-45470024D01*
X6858000Y-45695176D01*
X6879966Y-45805608D01*
X5923046Y-46762530D01*
X5898816Y-46782415D01*
X5850612Y-46841152D01*
X5819463Y-46879107D01*
X5760498Y-46989421D01*
X5724189Y-47109119D01*
X5711929Y-47233600D01*
X5715001Y-47264791D01*
X5715000Y-50900419D01*
X5711929Y-50931600D01*
X5715000Y-50962781D01*
X5715000Y-50962791D01*
X5724188Y-51056081D01*
X5760498Y-51175779D01*
X5819463Y-51286093D01*
X5898815Y-51382785D01*
X5923050Y-51402674D01*
X6879966Y-52359592D01*
X6858000Y-52470024D01*
X6858000Y-52695176D01*
X6901925Y-52916001D01*
X6988087Y-53124013D01*
X7113174Y-53311220D01*
X7272380Y-53470426D01*
X7459587Y-53595513D01*
X7667599Y-53681675D01*
X7888424Y-53725600D01*
X8113576Y-53725600D01*
X8334401Y-53681675D01*
X8542413Y-53595513D01*
X8729620Y-53470426D01*
X8888826Y-53311220D01*
X9013913Y-53124013D01*
X9100075Y-52916001D01*
X9144000Y-52695176D01*
X9144000Y-52470024D01*
X9100075Y-52249199D01*
X9013913Y-52041187D01*
X8888826Y-51853980D01*
X8729620Y-51694774D01*
X8542413Y-51569687D01*
X8334401Y-51483525D01*
X8113576Y-51439600D01*
X7888424Y-51439600D01*
X7777992Y-51461566D01*
X6985000Y-50668576D01*
X6985000Y-49616560D01*
X6988087Y-49624013D01*
X7113174Y-49811220D01*
X7272380Y-49970426D01*
X7459587Y-50095513D01*
X7667599Y-50181675D01*
X7888424Y-50225600D01*
X8113576Y-50225600D01*
X8334401Y-50181675D01*
X8542413Y-50095513D01*
X8729620Y-49970426D01*
X8888826Y-49811220D01*
X9013913Y-49624013D01*
X9100075Y-49416001D01*
X9144000Y-49195176D01*
X9144000Y-48970024D01*
X9100075Y-48749199D01*
X9013913Y-48541187D01*
X8888826Y-48353980D01*
X8729620Y-48194774D01*
X8542413Y-48069687D01*
X8334401Y-47983525D01*
X8113576Y-47939600D01*
X7888424Y-47939600D01*
X7667599Y-47983525D01*
X7459587Y-48069687D01*
X7272380Y-48194774D01*
X7113174Y-48353980D01*
X6988087Y-48541187D01*
X6985000Y-48548640D01*
X6985000Y-47496624D01*
X7777992Y-46703634D01*
X7888424Y-46725600D01*
X8113576Y-46725600D01*
X8334401Y-46681675D01*
X8542413Y-46595513D01*
X8729620Y-46470426D01*
X8888826Y-46311220D01*
X9013913Y-46124013D01*
X9100075Y-45916001D01*
X9144000Y-45695176D01*
X9144000Y-45470024D01*
X9122033Y-45359591D01*
X11031456Y-43450169D01*
X11055685Y-43430285D01*
X11135037Y-43333594D01*
X11194002Y-43223280D01*
X11230312Y-43103582D01*
X11239500Y-43010292D01*
X11239500Y-43010282D01*
X11242571Y-42979101D01*
X11239500Y-42947920D01*
X11239500Y-37305681D01*
X11242571Y-37274500D01*
X11239500Y-37243319D01*
X11239500Y-37243308D01*
X11230312Y-37150018D01*
X11194002Y-37030320D01*
X11135037Y-36920006D01*
X11055685Y-36823315D01*
X11031455Y-36803430D01*
X6663825Y-32435800D01*
X13459235Y-32435800D01*
X13462001Y-32463884D01*
X13462000Y-57033026D01*
X13459235Y-57061100D01*
X13470035Y-57170753D01*
X13470269Y-57173133D01*
X13502948Y-57280861D01*
X13556016Y-57380144D01*
X13627433Y-57467167D01*
X13649248Y-57485070D01*
X20683434Y-64519257D01*
X20701333Y-64541067D01*
X20788355Y-64612484D01*
X20887638Y-64665552D01*
X20995366Y-64698231D01*
X21079326Y-64706500D01*
X21079327Y-64706500D01*
X21107399Y-64709265D01*
X21135471Y-64706500D01*
X23180388Y-64706500D01*
X23301558Y-64887843D01*
X23466057Y-65052342D01*
X23659487Y-65181588D01*
X23874415Y-65270614D01*
X24102582Y-65316000D01*
X24335218Y-65316000D01*
X24563385Y-65270614D01*
X24778313Y-65181588D01*
X24971743Y-65052342D01*
X25136242Y-64887843D01*
X25265488Y-64694413D01*
X25354514Y-64479485D01*
X25399900Y-64251318D01*
X25399900Y-64018682D01*
X25354514Y-63790515D01*
X25265488Y-63575587D01*
X25136242Y-63382157D01*
X24971743Y-63217658D01*
X24778313Y-63088412D01*
X24563385Y-62999386D01*
X24335218Y-62954000D01*
X24102582Y-62954000D01*
X23874415Y-62999386D01*
X23659487Y-63088412D01*
X23466057Y-63217658D01*
X23301558Y-63382157D01*
X23180388Y-63563500D01*
X21344123Y-63563500D01*
X19259305Y-61478682D01*
X38277900Y-61478682D01*
X38277900Y-61711318D01*
X38323286Y-61939485D01*
X38412312Y-62154413D01*
X38541558Y-62347843D01*
X38706057Y-62512342D01*
X38899487Y-62641588D01*
X39114415Y-62730614D01*
X39342582Y-62776000D01*
X39575218Y-62776000D01*
X39803385Y-62730614D01*
X40018313Y-62641588D01*
X40211743Y-62512342D01*
X40376242Y-62347843D01*
X40505488Y-62154413D01*
X40594514Y-61939485D01*
X40639900Y-61711318D01*
X40639900Y-61478682D01*
X40632892Y-61443446D01*
X55410100Y-61443446D01*
X55410100Y-62051354D01*
X55528697Y-62647582D01*
X55761334Y-63209216D01*
X56099070Y-63714674D01*
X56528926Y-64144530D01*
X57034384Y-64482266D01*
X57596018Y-64714903D01*
X58192246Y-64833500D01*
X58800154Y-64833500D01*
X59396382Y-64714903D01*
X59958016Y-64482266D01*
X60463474Y-64144530D01*
X60893330Y-63714674D01*
X61231066Y-63209216D01*
X61463703Y-62647582D01*
X61582300Y-62051354D01*
X61582300Y-61443446D01*
X61463703Y-60847218D01*
X61231066Y-60285584D01*
X60893330Y-59780126D01*
X60463474Y-59350270D01*
X59958016Y-59012534D01*
X59396382Y-58779897D01*
X58800154Y-58661300D01*
X58192246Y-58661300D01*
X57596018Y-58779897D01*
X57034384Y-59012534D01*
X56528926Y-59350270D01*
X56099070Y-59780126D01*
X55761334Y-60285584D01*
X55528697Y-60847218D01*
X55410100Y-61443446D01*
X40632892Y-61443446D01*
X40594514Y-61250515D01*
X40505488Y-61035587D01*
X40376242Y-60842157D01*
X40211743Y-60677658D01*
X40018313Y-60548412D01*
X39803385Y-60459386D01*
X39575218Y-60414000D01*
X39342582Y-60414000D01*
X39114415Y-60459386D01*
X38899487Y-60548412D01*
X38706057Y-60677658D01*
X38541558Y-60842157D01*
X38412312Y-61035587D01*
X38323286Y-61250515D01*
X38277900Y-61478682D01*
X19259305Y-61478682D01*
X16719305Y-58938682D01*
X23037900Y-58938682D01*
X23037900Y-59171318D01*
X23083286Y-59399485D01*
X23172312Y-59614413D01*
X23301558Y-59807843D01*
X23466057Y-59972342D01*
X23659487Y-60101588D01*
X23874415Y-60190614D01*
X24102582Y-60236000D01*
X24335218Y-60236000D01*
X24563385Y-60190614D01*
X24778313Y-60101588D01*
X24971743Y-59972342D01*
X25136242Y-59807843D01*
X25265488Y-59614413D01*
X25354514Y-59399485D01*
X25399900Y-59171318D01*
X25399900Y-58938682D01*
X25354514Y-58710515D01*
X25265488Y-58495587D01*
X25136242Y-58302157D01*
X24971743Y-58137658D01*
X24778313Y-58008412D01*
X24563385Y-57919386D01*
X24335218Y-57874000D01*
X24102582Y-57874000D01*
X23874415Y-57919386D01*
X23659487Y-58008412D01*
X23466057Y-58137658D01*
X23301558Y-58302157D01*
X23172312Y-58495587D01*
X23083286Y-58710515D01*
X23037900Y-58938682D01*
X16719305Y-58938682D01*
X14605000Y-56824378D01*
X14605000Y-55972360D01*
X15011400Y-55972360D01*
X15011400Y-56092440D01*
X15034826Y-56210214D01*
X15080779Y-56321154D01*
X15147492Y-56420998D01*
X15232402Y-56505908D01*
X15332246Y-56572621D01*
X15443186Y-56618574D01*
X15560960Y-56642000D01*
X15681040Y-56642000D01*
X15798814Y-56618574D01*
X15909754Y-56572621D01*
X16009598Y-56505908D01*
X16094508Y-56420998D01*
X16109418Y-56398682D01*
X23037900Y-56398682D01*
X23037900Y-56631318D01*
X23083286Y-56859485D01*
X23172312Y-57074413D01*
X23301558Y-57267843D01*
X23466057Y-57432342D01*
X23659487Y-57561588D01*
X23874415Y-57650614D01*
X24102582Y-57696000D01*
X24335218Y-57696000D01*
X24563385Y-57650614D01*
X24778313Y-57561588D01*
X24971743Y-57432342D01*
X25136242Y-57267843D01*
X25257412Y-57086500D01*
X32580078Y-57086500D01*
X33662834Y-58169257D01*
X33680733Y-58191067D01*
X33767755Y-58262484D01*
X33867038Y-58315552D01*
X33974766Y-58348231D01*
X34058726Y-58356500D01*
X34058727Y-58356500D01*
X34086799Y-58359265D01*
X34114871Y-58356500D01*
X38505247Y-58356500D01*
X38412312Y-58495587D01*
X38323286Y-58710515D01*
X38277900Y-58938682D01*
X38277900Y-59171318D01*
X38323286Y-59399485D01*
X38412312Y-59614413D01*
X38541558Y-59807843D01*
X38706057Y-59972342D01*
X38899487Y-60101588D01*
X39114415Y-60190614D01*
X39342582Y-60236000D01*
X39575218Y-60236000D01*
X39803385Y-60190614D01*
X40018313Y-60101588D01*
X40211743Y-59972342D01*
X40376242Y-59807843D01*
X40505488Y-59614413D01*
X40594514Y-59399485D01*
X40639900Y-59171318D01*
X40639900Y-58938682D01*
X40594514Y-58710515D01*
X40505488Y-58495587D01*
X40412553Y-58356500D01*
X45254678Y-58356500D01*
X46917705Y-60019528D01*
X46932379Y-60054954D01*
X46999092Y-60154798D01*
X47084002Y-60239708D01*
X47183846Y-60306421D01*
X47294786Y-60352374D01*
X47412560Y-60375800D01*
X47532640Y-60375800D01*
X47650414Y-60352374D01*
X47761354Y-60306421D01*
X47861198Y-60239708D01*
X47946108Y-60154798D01*
X48012821Y-60054954D01*
X48058774Y-59944014D01*
X48082200Y-59826240D01*
X48082200Y-59706160D01*
X48058774Y-59588386D01*
X48012821Y-59477446D01*
X47946108Y-59377602D01*
X47861198Y-59292692D01*
X47761354Y-59225979D01*
X47725928Y-59211305D01*
X45915370Y-57400748D01*
X45897467Y-57378933D01*
X45810445Y-57307516D01*
X45711162Y-57254448D01*
X45603434Y-57221769D01*
X45519474Y-57213500D01*
X45491400Y-57210735D01*
X45463326Y-57213500D01*
X40412553Y-57213500D01*
X40505488Y-57074413D01*
X40594514Y-56859485D01*
X40639900Y-56631318D01*
X40639900Y-56398682D01*
X40594514Y-56170515D01*
X40505488Y-55955587D01*
X40376242Y-55762157D01*
X40211743Y-55597658D01*
X40018313Y-55468412D01*
X39803385Y-55379386D01*
X39575218Y-55334000D01*
X39342582Y-55334000D01*
X39114415Y-55379386D01*
X38899487Y-55468412D01*
X38706057Y-55597658D01*
X38541558Y-55762157D01*
X38412312Y-55955587D01*
X38323286Y-56170515D01*
X38277900Y-56398682D01*
X38277900Y-56631318D01*
X38323286Y-56859485D01*
X38412312Y-57074413D01*
X38505247Y-57213500D01*
X34323523Y-57213500D01*
X33240770Y-56130748D01*
X33222867Y-56108933D01*
X33135845Y-56037516D01*
X33036562Y-55984448D01*
X32928834Y-55951769D01*
X32844874Y-55943500D01*
X32816800Y-55940735D01*
X32788726Y-55943500D01*
X25257412Y-55943500D01*
X25136242Y-55762157D01*
X24971743Y-55597658D01*
X24778313Y-55468412D01*
X24563385Y-55379386D01*
X24335218Y-55334000D01*
X24102582Y-55334000D01*
X23874415Y-55379386D01*
X23659487Y-55468412D01*
X23466057Y-55597658D01*
X23301558Y-55762157D01*
X23172312Y-55955587D01*
X23083286Y-56170515D01*
X23037900Y-56398682D01*
X16109418Y-56398682D01*
X16161221Y-56321154D01*
X16207174Y-56210214D01*
X16230600Y-56092440D01*
X16230600Y-55972360D01*
X16207174Y-55854586D01*
X16192500Y-55819160D01*
X16192500Y-53858682D01*
X23037900Y-53858682D01*
X23037900Y-54091318D01*
X23083286Y-54319485D01*
X23172312Y-54534413D01*
X23301558Y-54727843D01*
X23466057Y-54892342D01*
X23659487Y-55021588D01*
X23874415Y-55110614D01*
X24102582Y-55156000D01*
X24335218Y-55156000D01*
X24563385Y-55110614D01*
X24778313Y-55021588D01*
X24971743Y-54892342D01*
X25136242Y-54727843D01*
X25265488Y-54534413D01*
X25354514Y-54319485D01*
X25399900Y-54091318D01*
X25399900Y-53858682D01*
X38277900Y-53858682D01*
X38277900Y-54091318D01*
X38323286Y-54319485D01*
X38412312Y-54534413D01*
X38541558Y-54727843D01*
X38706057Y-54892342D01*
X38899487Y-55021588D01*
X39114415Y-55110614D01*
X39342582Y-55156000D01*
X39575218Y-55156000D01*
X39803385Y-55110614D01*
X40018313Y-55021588D01*
X40211743Y-54892342D01*
X40376242Y-54727843D01*
X40505488Y-54534413D01*
X40594514Y-54319485D01*
X40639900Y-54091318D01*
X40639900Y-53858682D01*
X40594514Y-53630515D01*
X40505488Y-53415587D01*
X40376242Y-53222157D01*
X40211743Y-53057658D01*
X40018313Y-52928412D01*
X39803385Y-52839386D01*
X39575218Y-52794000D01*
X39342582Y-52794000D01*
X39114415Y-52839386D01*
X38899487Y-52928412D01*
X38706057Y-53057658D01*
X38541558Y-53222157D01*
X38412312Y-53415587D01*
X38323286Y-53630515D01*
X38277900Y-53858682D01*
X25399900Y-53858682D01*
X25354514Y-53630515D01*
X25265488Y-53415587D01*
X25136242Y-53222157D01*
X24971743Y-53057658D01*
X24778313Y-52928412D01*
X24563385Y-52839386D01*
X24335218Y-52794000D01*
X24102582Y-52794000D01*
X23874415Y-52839386D01*
X23659487Y-52928412D01*
X23466057Y-53057658D01*
X23301558Y-53222157D01*
X23172312Y-53415587D01*
X23083286Y-53630515D01*
X23037900Y-53858682D01*
X16192500Y-53858682D01*
X16192500Y-51318682D01*
X23037900Y-51318682D01*
X23037900Y-51551318D01*
X23083286Y-51779485D01*
X23172312Y-51994413D01*
X23301558Y-52187843D01*
X23466057Y-52352342D01*
X23659487Y-52481588D01*
X23874415Y-52570614D01*
X24102582Y-52616000D01*
X24335218Y-52616000D01*
X24563385Y-52570614D01*
X24778313Y-52481588D01*
X24971743Y-52352342D01*
X25136242Y-52187843D01*
X25265488Y-51994413D01*
X25354514Y-51779485D01*
X25399900Y-51551318D01*
X25399900Y-51318682D01*
X25354514Y-51090515D01*
X25265488Y-50875587D01*
X25136242Y-50682157D01*
X24971743Y-50517658D01*
X24778313Y-50388412D01*
X24563385Y-50299386D01*
X24335218Y-50254000D01*
X24102582Y-50254000D01*
X23874415Y-50299386D01*
X23659487Y-50388412D01*
X23466057Y-50517658D01*
X23301558Y-50682157D01*
X23172312Y-50875587D01*
X23083286Y-51090515D01*
X23037900Y-51318682D01*
X16192500Y-51318682D01*
X16192500Y-48778682D01*
X23037900Y-48778682D01*
X23037900Y-49011318D01*
X23083286Y-49239485D01*
X23172312Y-49454413D01*
X23301558Y-49647843D01*
X23466057Y-49812342D01*
X23659487Y-49941588D01*
X23874415Y-50030614D01*
X24102582Y-50076000D01*
X24335218Y-50076000D01*
X24563385Y-50030614D01*
X24778313Y-49941588D01*
X24971743Y-49812342D01*
X25136242Y-49647843D01*
X25265488Y-49454413D01*
X25354514Y-49239485D01*
X25399900Y-49011318D01*
X25399900Y-48778682D01*
X25354514Y-48550515D01*
X25265488Y-48335587D01*
X25136242Y-48142157D01*
X24971743Y-47977658D01*
X24778313Y-47848412D01*
X24563385Y-47759386D01*
X24335218Y-47714000D01*
X24102582Y-47714000D01*
X23874415Y-47759386D01*
X23659487Y-47848412D01*
X23466057Y-47977658D01*
X23301558Y-48142157D01*
X23172312Y-48335587D01*
X23083286Y-48550515D01*
X23037900Y-48778682D01*
X16192500Y-48778682D01*
X16192500Y-47099722D01*
X17053540Y-46238682D01*
X23037900Y-46238682D01*
X23037900Y-46471318D01*
X23083286Y-46699485D01*
X23172312Y-46914413D01*
X23301558Y-47107843D01*
X23466057Y-47272342D01*
X23659487Y-47401588D01*
X23874415Y-47490614D01*
X24102582Y-47536000D01*
X24335218Y-47536000D01*
X24563385Y-47490614D01*
X24778313Y-47401588D01*
X24971743Y-47272342D01*
X25136242Y-47107843D01*
X25265488Y-46914413D01*
X25354514Y-46699485D01*
X25399900Y-46471318D01*
X25399900Y-46238682D01*
X25354514Y-46010515D01*
X25265488Y-45795587D01*
X25136242Y-45602157D01*
X24971743Y-45437658D01*
X24778313Y-45308412D01*
X24563385Y-45219386D01*
X24335218Y-45174000D01*
X24102582Y-45174000D01*
X23874415Y-45219386D01*
X23659487Y-45308412D01*
X23466057Y-45437658D01*
X23301558Y-45602157D01*
X23172312Y-45795587D01*
X23083286Y-46010515D01*
X23037900Y-46238682D01*
X17053540Y-46238682D01*
X19593540Y-43698682D01*
X23037900Y-43698682D01*
X23037900Y-43931318D01*
X23083286Y-44159485D01*
X23172312Y-44374413D01*
X23301558Y-44567843D01*
X23466057Y-44732342D01*
X23659487Y-44861588D01*
X23874415Y-44950614D01*
X24102582Y-44996000D01*
X24335218Y-44996000D01*
X24563385Y-44950614D01*
X24778313Y-44861588D01*
X24971743Y-44732342D01*
X25136242Y-44567843D01*
X25265488Y-44374413D01*
X25354514Y-44159485D01*
X25399900Y-43931318D01*
X25399900Y-43698682D01*
X25354514Y-43470515D01*
X25265488Y-43255587D01*
X25136242Y-43062157D01*
X24971743Y-42897658D01*
X24778313Y-42768412D01*
X24563385Y-42679386D01*
X24335218Y-42634000D01*
X24102582Y-42634000D01*
X23874415Y-42679386D01*
X23659487Y-42768412D01*
X23466057Y-42897658D01*
X23301558Y-43062157D01*
X23172312Y-43255587D01*
X23083286Y-43470515D01*
X23037900Y-43698682D01*
X19593540Y-43698682D01*
X21445723Y-41846500D01*
X23180388Y-41846500D01*
X23301558Y-42027843D01*
X23466057Y-42192342D01*
X23659487Y-42321588D01*
X23874415Y-42410614D01*
X24102582Y-42456000D01*
X24335218Y-42456000D01*
X24563385Y-42410614D01*
X24778313Y-42321588D01*
X24971743Y-42192342D01*
X25136242Y-42027843D01*
X25265488Y-41834413D01*
X25354514Y-41619485D01*
X25399900Y-41391318D01*
X25399900Y-41158682D01*
X25354514Y-40930515D01*
X25265488Y-40715587D01*
X25136242Y-40522157D01*
X24971743Y-40357658D01*
X24778313Y-40228412D01*
X24563385Y-40139386D01*
X24335218Y-40094000D01*
X24102582Y-40094000D01*
X23874415Y-40139386D01*
X23659487Y-40228412D01*
X23466057Y-40357658D01*
X23301558Y-40522157D01*
X23180388Y-40703500D01*
X21237071Y-40703500D01*
X21208999Y-40700735D01*
X21180927Y-40703500D01*
X21180926Y-40703500D01*
X21096966Y-40711769D01*
X20989238Y-40744448D01*
X20889955Y-40797516D01*
X20802933Y-40868933D01*
X20785034Y-40890743D01*
X15236744Y-46439034D01*
X15214934Y-46456933D01*
X15157341Y-46527110D01*
X15143516Y-46543956D01*
X15090448Y-46643239D01*
X15057769Y-46750967D01*
X15046735Y-46863000D01*
X15049501Y-46891084D01*
X15049500Y-55819160D01*
X15034826Y-55854586D01*
X15011400Y-55972360D01*
X14605000Y-55972360D01*
X14605000Y-38618682D01*
X23037900Y-38618682D01*
X23037900Y-38851318D01*
X23083286Y-39079485D01*
X23172312Y-39294413D01*
X23301558Y-39487843D01*
X23466057Y-39652342D01*
X23659487Y-39781588D01*
X23874415Y-39870614D01*
X24102582Y-39916000D01*
X24335218Y-39916000D01*
X24563385Y-39870614D01*
X24778313Y-39781588D01*
X24971743Y-39652342D01*
X25136242Y-39487843D01*
X25265488Y-39294413D01*
X25354514Y-39079485D01*
X25399900Y-38851318D01*
X25399900Y-38618682D01*
X25354514Y-38390515D01*
X25265488Y-38175587D01*
X25136242Y-37982157D01*
X24971743Y-37817658D01*
X24778313Y-37688412D01*
X24563385Y-37599386D01*
X24335218Y-37554000D01*
X24102582Y-37554000D01*
X23874415Y-37599386D01*
X23659487Y-37688412D01*
X23466057Y-37817658D01*
X23301558Y-37982157D01*
X23172312Y-38175587D01*
X23083286Y-38390515D01*
X23037900Y-38618682D01*
X14605000Y-38618682D01*
X14605000Y-32672522D01*
X17276662Y-30000860D01*
X18338800Y-30000860D01*
X18338800Y-30120940D01*
X18362226Y-30238714D01*
X18376901Y-30274142D01*
X18376900Y-33271326D01*
X18374135Y-33299400D01*
X18376900Y-33327473D01*
X18385169Y-33411433D01*
X18417848Y-33519161D01*
X18470916Y-33618444D01*
X18542333Y-33705467D01*
X18564148Y-33723370D01*
X20124634Y-35283857D01*
X20142533Y-35305667D01*
X20229555Y-35377084D01*
X20328838Y-35430152D01*
X20436566Y-35462831D01*
X20520526Y-35471100D01*
X20548600Y-35473865D01*
X20576674Y-35471100D01*
X23282219Y-35471100D01*
X23172312Y-35635587D01*
X23083286Y-35850515D01*
X23037900Y-36078682D01*
X23037900Y-36311318D01*
X23083286Y-36539485D01*
X23172312Y-36754413D01*
X23301558Y-36947843D01*
X23466057Y-37112342D01*
X23659487Y-37241588D01*
X23874415Y-37330614D01*
X24102582Y-37376000D01*
X24335218Y-37376000D01*
X24563385Y-37330614D01*
X24778313Y-37241588D01*
X24971743Y-37112342D01*
X25136242Y-36947843D01*
X25265488Y-36754413D01*
X25354514Y-36539485D01*
X25399900Y-36311318D01*
X25399900Y-36078682D01*
X25354514Y-35850515D01*
X25265488Y-35635587D01*
X25155581Y-35471100D01*
X28833578Y-35471100D01*
X32283401Y-38920924D01*
X32283400Y-47965226D01*
X32280635Y-47993300D01*
X32283400Y-48021373D01*
X32291669Y-48105333D01*
X32324348Y-48213061D01*
X32377416Y-48312344D01*
X32448833Y-48399367D01*
X32470648Y-48417270D01*
X35872634Y-51819257D01*
X35890533Y-51841067D01*
X35972244Y-51908125D01*
X35977555Y-51912484D01*
X36076838Y-51965552D01*
X36184566Y-51998231D01*
X36296600Y-52009265D01*
X36324674Y-52006500D01*
X38420388Y-52006500D01*
X38541558Y-52187843D01*
X38706057Y-52352342D01*
X38899487Y-52481588D01*
X39114415Y-52570614D01*
X39342582Y-52616000D01*
X39575218Y-52616000D01*
X39803385Y-52570614D01*
X40018313Y-52481588D01*
X40211743Y-52352342D01*
X40376242Y-52187843D01*
X40505488Y-51994413D01*
X40594514Y-51779485D01*
X40639900Y-51551318D01*
X40639900Y-51318682D01*
X40594514Y-51090515D01*
X40505488Y-50875587D01*
X40376242Y-50682157D01*
X40211743Y-50517658D01*
X40018313Y-50388412D01*
X39803385Y-50299386D01*
X39575218Y-50254000D01*
X39342582Y-50254000D01*
X39114415Y-50299386D01*
X38899487Y-50388412D01*
X38706057Y-50517658D01*
X38541558Y-50682157D01*
X38420388Y-50863500D01*
X36533323Y-50863500D01*
X34448505Y-48778682D01*
X38277900Y-48778682D01*
X38277900Y-49011318D01*
X38323286Y-49239485D01*
X38412312Y-49454413D01*
X38541558Y-49647843D01*
X38706057Y-49812342D01*
X38899487Y-49941588D01*
X39114415Y-50030614D01*
X39342582Y-50076000D01*
X39575218Y-50076000D01*
X39803385Y-50030614D01*
X40018313Y-49941588D01*
X40211743Y-49812342D01*
X40376242Y-49647843D01*
X40505488Y-49454413D01*
X40594514Y-49239485D01*
X40639900Y-49011318D01*
X40639900Y-48778682D01*
X40594514Y-48550515D01*
X40505488Y-48335587D01*
X40376242Y-48142157D01*
X40211743Y-47977658D01*
X40018313Y-47848412D01*
X39803385Y-47759386D01*
X39575218Y-47714000D01*
X39342582Y-47714000D01*
X39114415Y-47759386D01*
X38899487Y-47848412D01*
X38706057Y-47977658D01*
X38541558Y-48142157D01*
X38412312Y-48335587D01*
X38323286Y-48550515D01*
X38277900Y-48778682D01*
X34448505Y-48778682D01*
X33426400Y-47756578D01*
X33426400Y-46238682D01*
X38277900Y-46238682D01*
X38277900Y-46471318D01*
X38323286Y-46699485D01*
X38412312Y-46914413D01*
X38541558Y-47107843D01*
X38706057Y-47272342D01*
X38899487Y-47401588D01*
X39114415Y-47490614D01*
X39342582Y-47536000D01*
X39575218Y-47536000D01*
X39803385Y-47490614D01*
X40018313Y-47401588D01*
X40211743Y-47272342D01*
X40376242Y-47107843D01*
X40505488Y-46914413D01*
X40594514Y-46699485D01*
X40639900Y-46471318D01*
X40639900Y-46238682D01*
X40594514Y-46010515D01*
X40505488Y-45795587D01*
X40376242Y-45602157D01*
X40211743Y-45437658D01*
X40018313Y-45308412D01*
X39803385Y-45219386D01*
X39575218Y-45174000D01*
X39342582Y-45174000D01*
X39114415Y-45219386D01*
X38899487Y-45308412D01*
X38706057Y-45437658D01*
X38541558Y-45602157D01*
X38412312Y-45795587D01*
X38323286Y-46010515D01*
X38277900Y-46238682D01*
X33426400Y-46238682D01*
X33426400Y-43698682D01*
X38277900Y-43698682D01*
X38277900Y-43931318D01*
X38323286Y-44159485D01*
X38412312Y-44374413D01*
X38541558Y-44567843D01*
X38706057Y-44732342D01*
X38899487Y-44861588D01*
X39114415Y-44950614D01*
X39342582Y-44996000D01*
X39575218Y-44996000D01*
X39803385Y-44950614D01*
X40018313Y-44861588D01*
X40211743Y-44732342D01*
X40376242Y-44567843D01*
X40505488Y-44374413D01*
X40594514Y-44159485D01*
X40639900Y-43931318D01*
X40639900Y-43698682D01*
X40594514Y-43470515D01*
X40505488Y-43255587D01*
X40376242Y-43062157D01*
X40211743Y-42897658D01*
X40018313Y-42768412D01*
X39803385Y-42679386D01*
X39575218Y-42634000D01*
X39342582Y-42634000D01*
X39114415Y-42679386D01*
X38899487Y-42768412D01*
X38706057Y-42897658D01*
X38541558Y-43062157D01*
X38412312Y-43255587D01*
X38323286Y-43470515D01*
X38277900Y-43698682D01*
X33426400Y-43698682D01*
X33426400Y-41158682D01*
X38277900Y-41158682D01*
X38277900Y-41391318D01*
X38323286Y-41619485D01*
X38412312Y-41834413D01*
X38541558Y-42027843D01*
X38706057Y-42192342D01*
X38899487Y-42321588D01*
X39114415Y-42410614D01*
X39342582Y-42456000D01*
X39575218Y-42456000D01*
X39803385Y-42410614D01*
X40018313Y-42321588D01*
X40211743Y-42192342D01*
X40376242Y-42027843D01*
X40505488Y-41834413D01*
X40594514Y-41619485D01*
X40639900Y-41391318D01*
X40639900Y-41158682D01*
X40594514Y-40930515D01*
X40505488Y-40715587D01*
X40376242Y-40522157D01*
X40211743Y-40357658D01*
X40018313Y-40228412D01*
X39803385Y-40139386D01*
X39575218Y-40094000D01*
X39342582Y-40094000D01*
X39114415Y-40139386D01*
X38899487Y-40228412D01*
X38706057Y-40357658D01*
X38541558Y-40522157D01*
X38412312Y-40715587D01*
X38323286Y-40930515D01*
X38277900Y-41158682D01*
X33426400Y-41158682D01*
X33426400Y-38712274D01*
X33429165Y-38684200D01*
X33422713Y-38618682D01*
X38277900Y-38618682D01*
X38277900Y-38851318D01*
X38323286Y-39079485D01*
X38412312Y-39294413D01*
X38541558Y-39487843D01*
X38706057Y-39652342D01*
X38899487Y-39781588D01*
X39114415Y-39870614D01*
X39342582Y-39916000D01*
X39575218Y-39916000D01*
X39803385Y-39870614D01*
X40018313Y-39781588D01*
X40211743Y-39652342D01*
X40376242Y-39487843D01*
X40505488Y-39294413D01*
X40594514Y-39079485D01*
X40639900Y-38851318D01*
X40639900Y-38618682D01*
X40594514Y-38390515D01*
X40505488Y-38175587D01*
X40376242Y-37982157D01*
X40211743Y-37817658D01*
X40018313Y-37688412D01*
X39803385Y-37599386D01*
X39575218Y-37554000D01*
X39342582Y-37554000D01*
X39114415Y-37599386D01*
X38899487Y-37688412D01*
X38706057Y-37817658D01*
X38541558Y-37982157D01*
X38412312Y-38175587D01*
X38323286Y-38390515D01*
X38277900Y-38618682D01*
X33422713Y-38618682D01*
X33418131Y-38572166D01*
X33385452Y-38464438D01*
X33332384Y-38365155D01*
X33260967Y-38278133D01*
X33239157Y-38260234D01*
X31057605Y-36078682D01*
X38277900Y-36078682D01*
X38277900Y-36311318D01*
X38323286Y-36539485D01*
X38412312Y-36754413D01*
X38541558Y-36947843D01*
X38706057Y-37112342D01*
X38899487Y-37241588D01*
X39114415Y-37330614D01*
X39342582Y-37376000D01*
X39575218Y-37376000D01*
X39803385Y-37330614D01*
X40018313Y-37241588D01*
X40211743Y-37112342D01*
X40376242Y-36947843D01*
X40505488Y-36754413D01*
X40594514Y-36539485D01*
X40639900Y-36311318D01*
X40639900Y-36078682D01*
X40594514Y-35850515D01*
X40505488Y-35635587D01*
X40376242Y-35442157D01*
X40211743Y-35277658D01*
X40018313Y-35148412D01*
X39803385Y-35059386D01*
X39575218Y-35014000D01*
X39342582Y-35014000D01*
X39114415Y-35059386D01*
X38899487Y-35148412D01*
X38706057Y-35277658D01*
X38541558Y-35442157D01*
X38412312Y-35635587D01*
X38323286Y-35850515D01*
X38277900Y-36078682D01*
X31057605Y-36078682D01*
X29494270Y-34515348D01*
X29476367Y-34493533D01*
X29389345Y-34422116D01*
X29290062Y-34369048D01*
X29182334Y-34336369D01*
X29098374Y-34328100D01*
X29070300Y-34325335D01*
X29042226Y-34328100D01*
X25189525Y-34328100D01*
X25265488Y-34214413D01*
X25354514Y-33999485D01*
X25399900Y-33771318D01*
X25399900Y-33538682D01*
X38277900Y-33538682D01*
X38277900Y-33771318D01*
X38323286Y-33999485D01*
X38412312Y-34214413D01*
X38541558Y-34407843D01*
X38706057Y-34572342D01*
X38899487Y-34701588D01*
X39114415Y-34790614D01*
X39342582Y-34836000D01*
X39575218Y-34836000D01*
X39803385Y-34790614D01*
X40018313Y-34701588D01*
X40211743Y-34572342D01*
X40376242Y-34407843D01*
X40505488Y-34214413D01*
X40594514Y-33999485D01*
X40639900Y-33771318D01*
X40639900Y-33538682D01*
X40594514Y-33310515D01*
X40505488Y-33095587D01*
X40376242Y-32902157D01*
X40211743Y-32737658D01*
X40018313Y-32608412D01*
X39803385Y-32519386D01*
X39575218Y-32474000D01*
X39342582Y-32474000D01*
X39114415Y-32519386D01*
X38899487Y-32608412D01*
X38706057Y-32737658D01*
X38541558Y-32902157D01*
X38412312Y-33095587D01*
X38323286Y-33310515D01*
X38277900Y-33538682D01*
X25399900Y-33538682D01*
X25354514Y-33310515D01*
X25265488Y-33095587D01*
X25136242Y-32902157D01*
X24971743Y-32737658D01*
X24778313Y-32608412D01*
X24563385Y-32519386D01*
X24335218Y-32474000D01*
X24102582Y-32474000D01*
X23874415Y-32519386D01*
X23659487Y-32608412D01*
X23466057Y-32737658D01*
X23301558Y-32902157D01*
X23172312Y-33095587D01*
X23083286Y-33310515D01*
X23037900Y-33538682D01*
X23037900Y-33771318D01*
X23083286Y-33999485D01*
X23172312Y-34214413D01*
X23248275Y-34328100D01*
X20785323Y-34328100D01*
X19519900Y-33062678D01*
X19519900Y-30998682D01*
X23037900Y-30998682D01*
X23037900Y-31231318D01*
X23083286Y-31459485D01*
X23172312Y-31674413D01*
X23301558Y-31867843D01*
X23466057Y-32032342D01*
X23659487Y-32161588D01*
X23874415Y-32250614D01*
X24102582Y-32296000D01*
X24335218Y-32296000D01*
X24563385Y-32250614D01*
X24778313Y-32161588D01*
X24971743Y-32032342D01*
X25136242Y-31867843D01*
X25265488Y-31674413D01*
X25354514Y-31459485D01*
X25399900Y-31231318D01*
X25399900Y-30998682D01*
X25577900Y-30998682D01*
X25577900Y-31231318D01*
X25623286Y-31459485D01*
X25712312Y-31674413D01*
X25841558Y-31867843D01*
X26006057Y-32032342D01*
X26199487Y-32161588D01*
X26414415Y-32250614D01*
X26642582Y-32296000D01*
X26875218Y-32296000D01*
X27103385Y-32250614D01*
X27318313Y-32161588D01*
X27511743Y-32032342D01*
X27676242Y-31867843D01*
X27805488Y-31674413D01*
X27894514Y-31459485D01*
X27939900Y-31231318D01*
X27939900Y-30998682D01*
X28117900Y-30998682D01*
X28117900Y-31231318D01*
X28163286Y-31459485D01*
X28252312Y-31674413D01*
X28381558Y-31867843D01*
X28546057Y-32032342D01*
X28739487Y-32161588D01*
X28954415Y-32250614D01*
X29182582Y-32296000D01*
X29415218Y-32296000D01*
X29643385Y-32250614D01*
X29858313Y-32161588D01*
X30051743Y-32032342D01*
X30216242Y-31867843D01*
X30345488Y-31674413D01*
X30434514Y-31459485D01*
X30479900Y-31231318D01*
X30479900Y-30998682D01*
X33197900Y-30998682D01*
X33197900Y-31231318D01*
X33243286Y-31459485D01*
X33332312Y-31674413D01*
X33461558Y-31867843D01*
X33626057Y-32032342D01*
X33819487Y-32161588D01*
X34034415Y-32250614D01*
X34262582Y-32296000D01*
X34495218Y-32296000D01*
X34723385Y-32250614D01*
X34938313Y-32161588D01*
X35131743Y-32032342D01*
X35296242Y-31867843D01*
X35425488Y-31674413D01*
X35514514Y-31459485D01*
X35559900Y-31231318D01*
X35559900Y-30998682D01*
X35737900Y-30998682D01*
X35737900Y-31231318D01*
X35783286Y-31459485D01*
X35872312Y-31674413D01*
X36001558Y-31867843D01*
X36166057Y-32032342D01*
X36359487Y-32161588D01*
X36574415Y-32250614D01*
X36802582Y-32296000D01*
X37035218Y-32296000D01*
X37263385Y-32250614D01*
X37478313Y-32161588D01*
X37671743Y-32032342D01*
X37836242Y-31867843D01*
X37965488Y-31674413D01*
X38054514Y-31459485D01*
X38099900Y-31231318D01*
X38099900Y-30998682D01*
X38277900Y-30998682D01*
X38277900Y-31231318D01*
X38323286Y-31459485D01*
X38412312Y-31674413D01*
X38541558Y-31867843D01*
X38706057Y-32032342D01*
X38899487Y-32161588D01*
X39114415Y-32250614D01*
X39342582Y-32296000D01*
X39575218Y-32296000D01*
X39803385Y-32250614D01*
X40018313Y-32161588D01*
X40211743Y-32032342D01*
X40376242Y-31867843D01*
X40505488Y-31674413D01*
X40594514Y-31459485D01*
X40639900Y-31231318D01*
X40639900Y-30998682D01*
X40594514Y-30770515D01*
X40505488Y-30555587D01*
X40376242Y-30362157D01*
X40211743Y-30197658D01*
X40018313Y-30068412D01*
X39803385Y-29979386D01*
X39575218Y-29934000D01*
X39342582Y-29934000D01*
X39114415Y-29979386D01*
X38899487Y-30068412D01*
X38706057Y-30197658D01*
X38541558Y-30362157D01*
X38412312Y-30555587D01*
X38323286Y-30770515D01*
X38277900Y-30998682D01*
X38099900Y-30998682D01*
X38054514Y-30770515D01*
X37965488Y-30555587D01*
X37836242Y-30362157D01*
X37671743Y-30197658D01*
X37478313Y-30068412D01*
X37263385Y-29979386D01*
X37035218Y-29934000D01*
X36802582Y-29934000D01*
X36574415Y-29979386D01*
X36359487Y-30068412D01*
X36166057Y-30197658D01*
X36001558Y-30362157D01*
X35872312Y-30555587D01*
X35783286Y-30770515D01*
X35737900Y-30998682D01*
X35559900Y-30998682D01*
X35514514Y-30770515D01*
X35425488Y-30555587D01*
X35296242Y-30362157D01*
X35131743Y-30197658D01*
X34938313Y-30068412D01*
X34723385Y-29979386D01*
X34495218Y-29934000D01*
X34262582Y-29934000D01*
X34034415Y-29979386D01*
X33819487Y-30068412D01*
X33626057Y-30197658D01*
X33461558Y-30362157D01*
X33332312Y-30555587D01*
X33243286Y-30770515D01*
X33197900Y-30998682D01*
X30479900Y-30998682D01*
X30434514Y-30770515D01*
X30345488Y-30555587D01*
X30216242Y-30362157D01*
X30051743Y-30197658D01*
X29858313Y-30068412D01*
X29643385Y-29979386D01*
X29415218Y-29934000D01*
X29182582Y-29934000D01*
X28954415Y-29979386D01*
X28739487Y-30068412D01*
X28546057Y-30197658D01*
X28381558Y-30362157D01*
X28252312Y-30555587D01*
X28163286Y-30770515D01*
X28117900Y-30998682D01*
X27939900Y-30998682D01*
X27894514Y-30770515D01*
X27805488Y-30555587D01*
X27676242Y-30362157D01*
X27511743Y-30197658D01*
X27318313Y-30068412D01*
X27103385Y-29979386D01*
X26875218Y-29934000D01*
X26642582Y-29934000D01*
X26414415Y-29979386D01*
X26199487Y-30068412D01*
X26006057Y-30197658D01*
X25841558Y-30362157D01*
X25712312Y-30555587D01*
X25623286Y-30770515D01*
X25577900Y-30998682D01*
X25399900Y-30998682D01*
X25354514Y-30770515D01*
X25265488Y-30555587D01*
X25136242Y-30362157D01*
X24971743Y-30197658D01*
X24778313Y-30068412D01*
X24563385Y-29979386D01*
X24335218Y-29934000D01*
X24102582Y-29934000D01*
X23874415Y-29979386D01*
X23659487Y-30068412D01*
X23466057Y-30197658D01*
X23301558Y-30362157D01*
X23172312Y-30555587D01*
X23083286Y-30770515D01*
X23037900Y-30998682D01*
X19519900Y-30998682D01*
X19519900Y-30274140D01*
X19534574Y-30238714D01*
X19558000Y-30120940D01*
X19558000Y-30000860D01*
X19534574Y-29883086D01*
X19488621Y-29772146D01*
X19421908Y-29672302D01*
X19336998Y-29587392D01*
X19237154Y-29520679D01*
X19126214Y-29474726D01*
X19008440Y-29451300D01*
X18888360Y-29451300D01*
X18770586Y-29474726D01*
X18659646Y-29520679D01*
X18559802Y-29587392D01*
X18474892Y-29672302D01*
X18408179Y-29772146D01*
X18362226Y-29883086D01*
X18338800Y-30000860D01*
X17276662Y-30000860D01*
X21979123Y-25298400D01*
X24482926Y-25298400D01*
X24511000Y-25301165D01*
X24539074Y-25298400D01*
X24623034Y-25290131D01*
X24730762Y-25257452D01*
X24830045Y-25204384D01*
X24917067Y-25132967D01*
X24921683Y-25127343D01*
X24952154Y-25114721D01*
X25051998Y-25048008D01*
X25136908Y-24963098D01*
X25203621Y-24863254D01*
X25249574Y-24752314D01*
X25273000Y-24634540D01*
X25273000Y-24514460D01*
X25249574Y-24396686D01*
X25203621Y-24285746D01*
X25136908Y-24185902D01*
X25051998Y-24100992D01*
X24952154Y-24034279D01*
X24841214Y-23988326D01*
X24723440Y-23964900D01*
X24603360Y-23964900D01*
X24485586Y-23988326D01*
X24374646Y-24034279D01*
X24274802Y-24100992D01*
X24220394Y-24155400D01*
X21770474Y-24155400D01*
X21742400Y-24152635D01*
X21714326Y-24155400D01*
X21630366Y-24163669D01*
X21522638Y-24196348D01*
X21423355Y-24249416D01*
X21336333Y-24320833D01*
X21318434Y-24342643D01*
X13649244Y-32011834D01*
X13627434Y-32029733D01*
X13583667Y-32083063D01*
X13556016Y-32116756D01*
X13502948Y-32216039D01*
X13470269Y-32323767D01*
X13459235Y-32435800D01*
X6663825Y-32435800D01*
X6578600Y-32350576D01*
X6578600Y-24372424D01*
X6858000Y-24372424D01*
X6858000Y-24597576D01*
X6901925Y-24818401D01*
X6988087Y-25026413D01*
X7113174Y-25213620D01*
X7272380Y-25372826D01*
X7459587Y-25497913D01*
X7667599Y-25584075D01*
X7888424Y-25628000D01*
X8113576Y-25628000D01*
X8334401Y-25584075D01*
X8542413Y-25497913D01*
X8729620Y-25372826D01*
X8888826Y-25213620D01*
X9013913Y-25026413D01*
X9100075Y-24818401D01*
X9144000Y-24597576D01*
X9144000Y-24372424D01*
X9100075Y-24151599D01*
X9013913Y-23943587D01*
X8888826Y-23756380D01*
X8729620Y-23597174D01*
X8542413Y-23472087D01*
X8334401Y-23385925D01*
X8113576Y-23342000D01*
X7888424Y-23342000D01*
X7667599Y-23385925D01*
X7459587Y-23472087D01*
X7272380Y-23597174D01*
X7113174Y-23756380D01*
X6988087Y-23943587D01*
X6901925Y-24151599D01*
X6858000Y-24372424D01*
X6578600Y-24372424D01*
X6578600Y-23305424D01*
X6731924Y-23152100D01*
X46788440Y-23152100D01*
X46832577Y-23600234D01*
X46963293Y-24031147D01*
X47175564Y-24428278D01*
X47461233Y-24776367D01*
X47809322Y-25062036D01*
X48206453Y-25274307D01*
X48637366Y-25405023D01*
X48973205Y-25438100D01*
X66477409Y-25438100D01*
X67754500Y-26715192D01*
X67754501Y-35306000D01*
X65985085Y-35306000D01*
X66067727Y-35275444D01*
X66267430Y-35181132D01*
X66362801Y-35125474D01*
X66543146Y-34997992D01*
X66627436Y-34926652D01*
X66782969Y-34769854D01*
X66853623Y-34684990D01*
X66979640Y-34503619D01*
X67034526Y-34407798D01*
X67127217Y-34207337D01*
X67164671Y-34103456D01*
X67221232Y-33889969D01*
X67240125Y-33781171D01*
X67258846Y-33561113D01*
X67261129Y-33505895D01*
X67257289Y-31753225D01*
X67254740Y-31697759D01*
X67234873Y-31476768D01*
X67215325Y-31367562D01*
X67157299Y-31153401D01*
X67119044Y-31049265D01*
X67024631Y-30848472D01*
X66968834Y-30752583D01*
X66840915Y-30571286D01*
X66769284Y-30486573D01*
X66611765Y-30330306D01*
X66526479Y-30259350D01*
X66344166Y-30132883D01*
X66247833Y-30077854D01*
X66046292Y-29985048D01*
X65941853Y-29947625D01*
X65727235Y-29891312D01*
X65617878Y-29872638D01*
X65396735Y-29854537D01*
X65341251Y-29852431D01*
X63407177Y-29863642D01*
X63279455Y-29851763D01*
X63186672Y-29824096D01*
X63101106Y-29778800D01*
X63026061Y-29717627D01*
X62964450Y-29642948D01*
X62918649Y-29557648D01*
X62890437Y-29465033D01*
X62874724Y-29306226D01*
X62852884Y-29084695D01*
X62828591Y-28962616D01*
X62763890Y-28749386D01*
X62716248Y-28634392D01*
X62611194Y-28437880D01*
X62542034Y-28334388D01*
X62400663Y-28162145D01*
X62312640Y-28074130D01*
X62140384Y-27932776D01*
X62036887Y-27863627D01*
X61840365Y-27758591D01*
X61725362Y-27710959D01*
X61512125Y-27646279D01*
X61390045Y-27621997D01*
X61168288Y-27600157D01*
X61106050Y-27597100D01*
X53428900Y-27597100D01*
X53373556Y-27599516D01*
X53153023Y-27618810D01*
X53044018Y-27638031D01*
X52830185Y-27695327D01*
X52726169Y-27733185D01*
X52525535Y-27826743D01*
X52429678Y-27882087D01*
X52248338Y-28009063D01*
X52163547Y-28080211D01*
X52007011Y-28236747D01*
X51935863Y-28321538D01*
X51808887Y-28502878D01*
X51753543Y-28598735D01*
X51659985Y-28799369D01*
X51622127Y-28903385D01*
X51564831Y-29117218D01*
X51545610Y-29226223D01*
X51526316Y-29446756D01*
X51523900Y-29502100D01*
X51523900Y-35750500D01*
X51526316Y-35805844D01*
X51545610Y-36026377D01*
X51564831Y-36135382D01*
X51622127Y-36349215D01*
X51659985Y-36453231D01*
X51753543Y-36653865D01*
X51808887Y-36749722D01*
X51935863Y-36931062D01*
X52007011Y-37015853D01*
X52163547Y-37172389D01*
X52248338Y-37243537D01*
X52429678Y-37370513D01*
X52525535Y-37425857D01*
X52726169Y-37519415D01*
X52830185Y-37557273D01*
X53044018Y-37614569D01*
X53153023Y-37633790D01*
X53373556Y-37653084D01*
X53428900Y-37655500D01*
X61130675Y-37655500D01*
X61191442Y-37652586D01*
X61411356Y-37631444D01*
X61530661Y-37608291D01*
X61742519Y-37545641D01*
X61855232Y-37500181D01*
X62051274Y-37398316D01*
X62060826Y-37392125D01*
X62041140Y-37592000D01*
X62085277Y-38040134D01*
X62215993Y-38471047D01*
X62428264Y-38868178D01*
X62713933Y-39216267D01*
X63062022Y-39501936D01*
X63459153Y-39714207D01*
X63890066Y-39844923D01*
X64225905Y-39878000D01*
X67754500Y-39878000D01*
X67754501Y-53790107D01*
X67056157Y-54488452D01*
X67114517Y-54362237D01*
X67151971Y-54258356D01*
X67208532Y-54044869D01*
X67227425Y-53936071D01*
X67246146Y-53716013D01*
X67248429Y-53660795D01*
X67244589Y-51908125D01*
X67242040Y-51852659D01*
X67222173Y-51631668D01*
X67202625Y-51522462D01*
X67144599Y-51308301D01*
X67106344Y-51204165D01*
X67011931Y-51003372D01*
X66956134Y-50907483D01*
X66828215Y-50726186D01*
X66756584Y-50641473D01*
X66599065Y-50485206D01*
X66513779Y-50414250D01*
X66331466Y-50287783D01*
X66235133Y-50232754D01*
X66033592Y-50139948D01*
X65929153Y-50102525D01*
X65714535Y-50046212D01*
X65605178Y-50027538D01*
X65384035Y-50009437D01*
X65328551Y-50007331D01*
X63394477Y-50018542D01*
X63266755Y-50006663D01*
X63173972Y-49978996D01*
X63088406Y-49933700D01*
X63013361Y-49872527D01*
X62951750Y-49797848D01*
X62905949Y-49712548D01*
X62877737Y-49619933D01*
X62862024Y-49461126D01*
X62840184Y-49239595D01*
X62815891Y-49117516D01*
X62751190Y-48904286D01*
X62703548Y-48789292D01*
X62598494Y-48592780D01*
X62529334Y-48489288D01*
X62387963Y-48317045D01*
X62299940Y-48229030D01*
X62127684Y-48087676D01*
X62024187Y-48018527D01*
X61827665Y-47913491D01*
X61712662Y-47865859D01*
X61499425Y-47801179D01*
X61377345Y-47776897D01*
X61155588Y-47755057D01*
X61093350Y-47752000D01*
X53416200Y-47752000D01*
X53360856Y-47754416D01*
X53140323Y-47773710D01*
X53031318Y-47792931D01*
X52817485Y-47850227D01*
X52713469Y-47888085D01*
X52512835Y-47981643D01*
X52416978Y-48036987D01*
X52235638Y-48163963D01*
X52150847Y-48235111D01*
X51994311Y-48391647D01*
X51923163Y-48476438D01*
X51796187Y-48657778D01*
X51740843Y-48753635D01*
X51647285Y-48954269D01*
X51609427Y-49058285D01*
X51552131Y-49272118D01*
X51532910Y-49381123D01*
X51513616Y-49601656D01*
X51511200Y-49657000D01*
X51511200Y-55905400D01*
X51513616Y-55960744D01*
X51532910Y-56181277D01*
X51552131Y-56290282D01*
X51609427Y-56504115D01*
X51647285Y-56608131D01*
X51740843Y-56808765D01*
X51796187Y-56904622D01*
X51923163Y-57085962D01*
X51994311Y-57170753D01*
X52150847Y-57327289D01*
X52235638Y-57398437D01*
X52416978Y-57525413D01*
X52512835Y-57580757D01*
X52713469Y-57674315D01*
X52817485Y-57712173D01*
X53031318Y-57769469D01*
X53140323Y-57788690D01*
X53360856Y-57807984D01*
X53416200Y-57810400D01*
X61117975Y-57810400D01*
X61178742Y-57807486D01*
X61398656Y-57786344D01*
X61517961Y-57763191D01*
X61729819Y-57700541D01*
X61842532Y-57655081D01*
X62038568Y-57553219D01*
X62015740Y-57785000D01*
X62059877Y-58233134D01*
X62190593Y-58664047D01*
X62402864Y-59061178D01*
X62688533Y-59409267D01*
X63036622Y-59694936D01*
X63433753Y-59907207D01*
X63864666Y-60037923D01*
X64200505Y-60071000D01*
X66880208Y-60071000D01*
X66992500Y-60082060D01*
X67104792Y-60071000D01*
X67104795Y-60071000D01*
X67440634Y-60037923D01*
X67871547Y-59907207D01*
X68268678Y-59694936D01*
X68616767Y-59409267D01*
X68688358Y-59322033D01*
X71577538Y-56432854D01*
X71664767Y-56361267D01*
X71950436Y-56013178D01*
X72162707Y-55616047D01*
X72293423Y-55185134D01*
X72326500Y-54849295D01*
X72326500Y-54849293D01*
X72337560Y-54737000D01*
X72326500Y-54624708D01*
X72326500Y-37805892D01*
X72337560Y-37693599D01*
X72326500Y-37581305D01*
X72326500Y-25880595D01*
X72337560Y-25768300D01*
X72293423Y-25320165D01*
X72162707Y-24889253D01*
X71950436Y-24492121D01*
X71781723Y-24286545D01*
X71664767Y-24144033D01*
X71577539Y-24072447D01*
X69120158Y-21615067D01*
X69048567Y-21527833D01*
X68700478Y-21242164D01*
X68303347Y-21029893D01*
X67872434Y-20899177D01*
X67536595Y-20866100D01*
X67536592Y-20866100D01*
X67424300Y-20855040D01*
X67312008Y-20866100D01*
X48973205Y-20866100D01*
X48637366Y-20899177D01*
X48206453Y-21029893D01*
X47809322Y-21242164D01*
X47461233Y-21527833D01*
X47175564Y-21875922D01*
X46963293Y-22273053D01*
X46832577Y-22703966D01*
X46788440Y-23152100D01*
X6731924Y-23152100D01*
X7777991Y-22106033D01*
X7888424Y-22128000D01*
X8113576Y-22128000D01*
X8334401Y-22084075D01*
X8542413Y-21997913D01*
X8729620Y-21872826D01*
X8888826Y-21713620D01*
X9013913Y-21526413D01*
X9100075Y-21318401D01*
X9144000Y-21097576D01*
X9144000Y-20872424D01*
X9100075Y-20651599D01*
X9013913Y-20443587D01*
X8888826Y-20256380D01*
X8729620Y-20097174D01*
X8542413Y-19972087D01*
X8334401Y-19885925D01*
X8113576Y-19842000D01*
X7888424Y-19842000D01*
X7667599Y-19885925D01*
X7521971Y-19946246D01*
X6489700Y-18913976D01*
X6489700Y-17372424D01*
X6858000Y-17372424D01*
X6858000Y-17597576D01*
X6901925Y-17818401D01*
X6988087Y-18026413D01*
X7113174Y-18213620D01*
X7272380Y-18372826D01*
X7459587Y-18497913D01*
X7667599Y-18584075D01*
X7888424Y-18628000D01*
X8113576Y-18628000D01*
X8334401Y-18584075D01*
X8542413Y-18497913D01*
X8729620Y-18372826D01*
X8888826Y-18213620D01*
X9013913Y-18026413D01*
X9100075Y-17818401D01*
X9144000Y-17597576D01*
X9144000Y-17372424D01*
X9134295Y-17323633D01*
X63057200Y-17323633D01*
X63057200Y-17575967D01*
X63106428Y-17823454D01*
X63202993Y-18056581D01*
X63343182Y-18266390D01*
X63521610Y-18444818D01*
X63731419Y-18585007D01*
X63964546Y-18681572D01*
X64212033Y-18730800D01*
X64464367Y-18730800D01*
X64711854Y-18681572D01*
X64944981Y-18585007D01*
X65154790Y-18444818D01*
X65333218Y-18266390D01*
X65473407Y-18056581D01*
X65569972Y-17823454D01*
X65619200Y-17575967D01*
X65619200Y-17323633D01*
X65569972Y-17076146D01*
X65473407Y-16843019D01*
X65333218Y-16633210D01*
X65154790Y-16454782D01*
X64944981Y-16314593D01*
X64711854Y-16218028D01*
X64464367Y-16168800D01*
X64212033Y-16168800D01*
X63964546Y-16218028D01*
X63731419Y-16314593D01*
X63521610Y-16454782D01*
X63343182Y-16633210D01*
X63202993Y-16843019D01*
X63106428Y-17076146D01*
X63057200Y-17323633D01*
X9134295Y-17323633D01*
X9100075Y-17151599D01*
X9013913Y-16943587D01*
X8888826Y-16756380D01*
X8729620Y-16597174D01*
X8542413Y-16472087D01*
X8334401Y-16385925D01*
X8113576Y-16342000D01*
X7888424Y-16342000D01*
X7667599Y-16385925D01*
X7459587Y-16472087D01*
X7272380Y-16597174D01*
X7113174Y-16756380D01*
X6988087Y-16943587D01*
X6901925Y-17151599D01*
X6858000Y-17372424D01*
X6489700Y-17372424D01*
X6489700Y-16394324D01*
X7777992Y-15106034D01*
X7888424Y-15128000D01*
X8113576Y-15128000D01*
X8334401Y-15084075D01*
X8542413Y-14997913D01*
X8729620Y-14872826D01*
X8888826Y-14713620D01*
X9013913Y-14526413D01*
X9100075Y-14318401D01*
X9144000Y-14097576D01*
X9144000Y-13872424D01*
X9100075Y-13651599D01*
X9013913Y-13443587D01*
X8888826Y-13256380D01*
X8729620Y-13097174D01*
X8542413Y-12972087D01*
X8334401Y-12885925D01*
X8113576Y-12842000D01*
X7888424Y-12842000D01*
X7667599Y-12885925D01*
X7459587Y-12972087D01*
X7272380Y-13097174D01*
X7113174Y-13256380D01*
X6988087Y-13443587D01*
X6901925Y-13651599D01*
X6858000Y-13872424D01*
X6858000Y-14097576D01*
X6879966Y-14208008D01*
X5427746Y-15660230D01*
X5403516Y-15680115D01*
X5383632Y-15704344D01*
X5324163Y-15776807D01*
X5265198Y-15887121D01*
X5228889Y-16006819D01*
X5216629Y-16131300D01*
X406000Y-16131300D01*
X406000Y-10372424D01*
X6858000Y-10372424D01*
X6858000Y-10597576D01*
X6901925Y-10818401D01*
X6988087Y-11026413D01*
X7113174Y-11213620D01*
X7272380Y-11372826D01*
X7459587Y-11497913D01*
X7667599Y-11584075D01*
X7888424Y-11628000D01*
X8113576Y-11628000D01*
X8334401Y-11584075D01*
X8542413Y-11497913D01*
X8729620Y-11372826D01*
X8888826Y-11213620D01*
X9013913Y-11026413D01*
X9100075Y-10818401D01*
X9144000Y-10597576D01*
X9144000Y-10372424D01*
X9100075Y-10151599D01*
X9013913Y-9943587D01*
X8888826Y-9756380D01*
X8729620Y-9597174D01*
X8542413Y-9472087D01*
X8334401Y-9385925D01*
X8113576Y-9342000D01*
X7888424Y-9342000D01*
X7667599Y-9385925D01*
X7459587Y-9472087D01*
X7272380Y-9597174D01*
X7113174Y-9756380D01*
X6988087Y-9943587D01*
X6901925Y-10151599D01*
X6858000Y-10372424D01*
X406000Y-10372424D01*
X406000Y-4064846D01*
X9944100Y-4064846D01*
X9944100Y-4672754D01*
X10062697Y-5268982D01*
X10295334Y-5830616D01*
X10633070Y-6336074D01*
X11062926Y-6765930D01*
X11568384Y-7103666D01*
X12130018Y-7336303D01*
X12726246Y-7454900D01*
X13334154Y-7454900D01*
X13930382Y-7336303D01*
X14167843Y-7237943D01*
X24460200Y-7237943D01*
X24460200Y-9461500D01*
X24467521Y-9535831D01*
X24486856Y-9633033D01*
X24508537Y-9704505D01*
X24543745Y-9770374D01*
X24598805Y-9852777D01*
X24646187Y-9910513D01*
X24703923Y-9957895D01*
X24786326Y-10012955D01*
X24852194Y-10048163D01*
X24923667Y-10069844D01*
X25020869Y-10089179D01*
X25095200Y-10096500D01*
X27841382Y-10096500D01*
X27893559Y-10092910D01*
X27962477Y-10083382D01*
X28013677Y-10072679D01*
X29370798Y-9690100D01*
X46788440Y-9690100D01*
X46832577Y-10138234D01*
X46963293Y-10569147D01*
X47175564Y-10966278D01*
X47461233Y-11314367D01*
X47809322Y-11600036D01*
X48206453Y-11812307D01*
X48637366Y-11943023D01*
X48973205Y-11976100D01*
X61985608Y-11976100D01*
X62097900Y-11987160D01*
X62210192Y-11976100D01*
X62210195Y-11976100D01*
X62546034Y-11943023D01*
X62976947Y-11812307D01*
X63374078Y-11600036D01*
X63722167Y-11314367D01*
X63793758Y-11227133D01*
X66034050Y-8986842D01*
X66248135Y-8725979D01*
X66460407Y-8328847D01*
X66591123Y-7897935D01*
X66635260Y-7449800D01*
X66591123Y-7001666D01*
X66460407Y-6570753D01*
X66248135Y-6173622D01*
X65962466Y-5825534D01*
X65614378Y-5539865D01*
X65217247Y-5327593D01*
X64786334Y-5196877D01*
X64338200Y-5152740D01*
X63890065Y-5196877D01*
X63459153Y-5327593D01*
X63062021Y-5539865D01*
X62801158Y-5753950D01*
X61151009Y-7404100D01*
X58877743Y-7404100D01*
X59218582Y-7336303D01*
X59780216Y-7103666D01*
X60285674Y-6765930D01*
X60715530Y-6336074D01*
X61053266Y-5830616D01*
X61285903Y-5268982D01*
X61404500Y-4672754D01*
X61404500Y-4064846D01*
X61285903Y-3468618D01*
X61053266Y-2906984D01*
X60715530Y-2401526D01*
X60285674Y-1971670D01*
X59780216Y-1633934D01*
X59218582Y-1401297D01*
X58622354Y-1282700D01*
X58014446Y-1282700D01*
X57418218Y-1401297D01*
X56856584Y-1633934D01*
X56351126Y-1971670D01*
X55921270Y-2401526D01*
X55583534Y-2906984D01*
X55350897Y-3468618D01*
X55232300Y-4064846D01*
X55232300Y-4672754D01*
X55350897Y-5268982D01*
X55583534Y-5830616D01*
X55921270Y-6336074D01*
X56351126Y-6765930D01*
X56856584Y-7103666D01*
X57418218Y-7336303D01*
X57759057Y-7404100D01*
X48973205Y-7404100D01*
X48637366Y-7437177D01*
X48206453Y-7567893D01*
X47809322Y-7780164D01*
X47461233Y-8065833D01*
X47175564Y-8413922D01*
X46963293Y-8811053D01*
X46832577Y-9241966D01*
X46788440Y-9690100D01*
X29370798Y-9690100D01*
X34586639Y-8219730D01*
X34604100Y-8217386D01*
X38310892Y-8246619D01*
X38385647Y-8239814D01*
X38483462Y-8221058D01*
X38555776Y-8199588D01*
X38621819Y-8164705D01*
X38704903Y-8109781D01*
X38763408Y-8062152D01*
X38810960Y-8004557D01*
X38866537Y-7921909D01*
X38902227Y-7855453D01*
X38923979Y-7784002D01*
X38943506Y-7686338D01*
X38950900Y-7611639D01*
X38950900Y-5923088D01*
X38943632Y-5849027D01*
X38924437Y-5752164D01*
X38903019Y-5681187D01*
X38867953Y-5615241D01*
X38813271Y-5533018D01*
X38766402Y-5475570D01*
X38708839Y-5427979D01*
X38626933Y-5372822D01*
X38561694Y-5337587D01*
X38490331Y-5315546D01*
X38393580Y-5295793D01*
X38319566Y-5288098D01*
X33094952Y-5257933D01*
X33062144Y-5259158D01*
X33018544Y-5262672D01*
X32985952Y-5266719D01*
X24989867Y-6611740D01*
X24925229Y-6628549D01*
X24841665Y-6658313D01*
X24787896Y-6682293D01*
X24726044Y-6724158D01*
X24657811Y-6780841D01*
X24615562Y-6821854D01*
X24571878Y-6882436D01*
X24527298Y-6959127D01*
X24501732Y-7012160D01*
X24481544Y-7084069D01*
X24466054Y-7171412D01*
X24460200Y-7237943D01*
X14167843Y-7237943D01*
X14492016Y-7103666D01*
X14997474Y-6765930D01*
X15427330Y-6336074D01*
X15765066Y-5830616D01*
X15997703Y-5268982D01*
X16116300Y-4672754D01*
X16116300Y-4064846D01*
X15997703Y-3468618D01*
X15765066Y-2906984D01*
X15427330Y-2401526D01*
X14997474Y-1971670D01*
X14492016Y-1633934D01*
X13930382Y-1401297D01*
X13334154Y-1282700D01*
X12726246Y-1282700D01*
X12130018Y-1401297D01*
X11568384Y-1633934D01*
X11062926Y-1971670D01*
X10633070Y-2401526D01*
X10295334Y-2906984D01*
X10062697Y-3468618D01*
X9944100Y-4064846D01*
X406000Y-4064846D01*
X406000Y-406000D01*
X73991000Y-406000D01*
X73991001Y-65812000D01*
%TA.AperFunction,Conductor*%
D21*
G36*
X73991001Y-65812000D02*
G01*
X406000Y-65812000D01*
X406000Y-61443446D01*
X9918700Y-61443446D01*
X9918700Y-62051354D01*
X10037297Y-62647582D01*
X10269934Y-63209216D01*
X10607670Y-63714674D01*
X11037526Y-64144530D01*
X11542984Y-64482266D01*
X12104618Y-64714903D01*
X12700846Y-64833500D01*
X13308754Y-64833500D01*
X13904982Y-64714903D01*
X14466616Y-64482266D01*
X14972074Y-64144530D01*
X15401930Y-63714674D01*
X15739666Y-63209216D01*
X15972303Y-62647582D01*
X16090900Y-62051354D01*
X16090900Y-61443446D01*
X15972303Y-60847218D01*
X15739666Y-60285584D01*
X15401930Y-59780126D01*
X14972074Y-59350270D01*
X14466616Y-59012534D01*
X13904982Y-58779897D01*
X13308754Y-58661300D01*
X12700846Y-58661300D01*
X12104618Y-58779897D01*
X11542984Y-59012534D01*
X11037526Y-59350270D01*
X10607670Y-59780126D01*
X10269934Y-60285584D01*
X10037297Y-60847218D01*
X9918700Y-61443446D01*
X406000Y-61443446D01*
X406000Y-55970024D01*
X6858000Y-55970024D01*
X6858000Y-56195176D01*
X6901925Y-56416001D01*
X6988087Y-56624013D01*
X7113174Y-56811220D01*
X7272380Y-56970426D01*
X7459587Y-57095513D01*
X7667599Y-57181675D01*
X7888424Y-57225600D01*
X8113576Y-57225600D01*
X8334401Y-57181675D01*
X8542413Y-57095513D01*
X8729620Y-56970426D01*
X8888826Y-56811220D01*
X9013913Y-56624013D01*
X9100075Y-56416001D01*
X9144000Y-56195176D01*
X9144000Y-55970024D01*
X9100075Y-55749199D01*
X9013913Y-55541187D01*
X8888826Y-55353980D01*
X8729620Y-55194774D01*
X8542413Y-55069687D01*
X8334401Y-54983525D01*
X8113576Y-54939600D01*
X7888424Y-54939600D01*
X7667599Y-54983525D01*
X7459587Y-55069687D01*
X7272380Y-55194774D01*
X7113174Y-55353980D01*
X6988087Y-55541187D01*
X6901925Y-55749199D01*
X6858000Y-55970024D01*
X406000Y-55970024D01*
X406000Y-41970024D01*
X6858000Y-41970024D01*
X6858000Y-42195176D01*
X6901925Y-42416001D01*
X6988087Y-42624013D01*
X7113174Y-42811220D01*
X7272380Y-42970426D01*
X7459587Y-43095513D01*
X7667599Y-43181675D01*
X7888424Y-43225600D01*
X8113576Y-43225600D01*
X8334401Y-43181675D01*
X8542413Y-43095513D01*
X8729620Y-42970426D01*
X8888826Y-42811220D01*
X9013913Y-42624013D01*
X9100075Y-42416001D01*
X9144000Y-42195176D01*
X9144000Y-41970024D01*
X9100075Y-41749199D01*
X9013913Y-41541187D01*
X8888826Y-41353980D01*
X8729620Y-41194774D01*
X8542413Y-41069687D01*
X8334401Y-40983525D01*
X8113576Y-40939600D01*
X7888424Y-40939600D01*
X7667599Y-40983525D01*
X7459587Y-41069687D01*
X7272380Y-41194774D01*
X7113174Y-41353980D01*
X6988087Y-41541187D01*
X6901925Y-41749199D01*
X6858000Y-41970024D01*
X406000Y-41970024D01*
X406000Y-16131300D01*
X5216629Y-16131300D01*
X5219701Y-16162491D01*
X5219700Y-19145819D01*
X5216629Y-19177000D01*
X5219700Y-19208181D01*
X5219700Y-19208191D01*
X5228888Y-19301481D01*
X5265198Y-19421179D01*
X5324163Y-19531493D01*
X5403515Y-19628185D01*
X5427750Y-19648074D01*
X6858000Y-21078325D01*
X6858000Y-21097576D01*
X6879967Y-21208009D01*
X5516646Y-22571330D01*
X5492416Y-22591215D01*
X5472532Y-22615444D01*
X5413063Y-22687907D01*
X5354098Y-22798221D01*
X5317789Y-22917919D01*
X5305529Y-23042400D01*
X5308601Y-23073591D01*
X5308600Y-32582419D01*
X5305529Y-32613600D01*
X5308600Y-32644781D01*
X5308600Y-32644791D01*
X5317788Y-32738081D01*
X5354098Y-32857779D01*
X5413063Y-32968093D01*
X5492415Y-33064785D01*
X5516650Y-33084674D01*
X9969501Y-37537526D01*
X9969500Y-42716075D01*
X8224009Y-44461567D01*
X8113576Y-44439600D01*
X7888424Y-44439600D01*
X7667599Y-44483525D01*
X7459587Y-44569687D01*
X7272380Y-44694774D01*
X7113174Y-44853980D01*
X6988087Y-45041187D01*
X6901925Y-45249199D01*
X6858000Y-45470024D01*
X6858000Y-45695176D01*
X6879966Y-45805608D01*
X5923046Y-46762530D01*
X5898816Y-46782415D01*
X5850612Y-46841152D01*
X5819463Y-46879107D01*
X5760498Y-46989421D01*
X5724189Y-47109119D01*
X5711929Y-47233600D01*
X5715001Y-47264791D01*
X5715000Y-50900419D01*
X5711929Y-50931600D01*
X5715000Y-50962781D01*
X5715000Y-50962791D01*
X5724188Y-51056081D01*
X5760498Y-51175779D01*
X5819463Y-51286093D01*
X5898815Y-51382785D01*
X5923050Y-51402674D01*
X6879966Y-52359592D01*
X6858000Y-52470024D01*
X6858000Y-52695176D01*
X6901925Y-52916001D01*
X6988087Y-53124013D01*
X7113174Y-53311220D01*
X7272380Y-53470426D01*
X7459587Y-53595513D01*
X7667599Y-53681675D01*
X7888424Y-53725600D01*
X8113576Y-53725600D01*
X8334401Y-53681675D01*
X8542413Y-53595513D01*
X8729620Y-53470426D01*
X8888826Y-53311220D01*
X9013913Y-53124013D01*
X9100075Y-52916001D01*
X9144000Y-52695176D01*
X9144000Y-52470024D01*
X9100075Y-52249199D01*
X9013913Y-52041187D01*
X8888826Y-51853980D01*
X8729620Y-51694774D01*
X8542413Y-51569687D01*
X8334401Y-51483525D01*
X8113576Y-51439600D01*
X7888424Y-51439600D01*
X7777992Y-51461566D01*
X6985000Y-50668576D01*
X6985000Y-49616560D01*
X6988087Y-49624013D01*
X7113174Y-49811220D01*
X7272380Y-49970426D01*
X7459587Y-50095513D01*
X7667599Y-50181675D01*
X7888424Y-50225600D01*
X8113576Y-50225600D01*
X8334401Y-50181675D01*
X8542413Y-50095513D01*
X8729620Y-49970426D01*
X8888826Y-49811220D01*
X9013913Y-49624013D01*
X9100075Y-49416001D01*
X9144000Y-49195176D01*
X9144000Y-48970024D01*
X9100075Y-48749199D01*
X9013913Y-48541187D01*
X8888826Y-48353980D01*
X8729620Y-48194774D01*
X8542413Y-48069687D01*
X8334401Y-47983525D01*
X8113576Y-47939600D01*
X7888424Y-47939600D01*
X7667599Y-47983525D01*
X7459587Y-48069687D01*
X7272380Y-48194774D01*
X7113174Y-48353980D01*
X6988087Y-48541187D01*
X6985000Y-48548640D01*
X6985000Y-47496624D01*
X7777992Y-46703634D01*
X7888424Y-46725600D01*
X8113576Y-46725600D01*
X8334401Y-46681675D01*
X8542413Y-46595513D01*
X8729620Y-46470426D01*
X8888826Y-46311220D01*
X9013913Y-46124013D01*
X9100075Y-45916001D01*
X9144000Y-45695176D01*
X9144000Y-45470024D01*
X9122033Y-45359591D01*
X11031456Y-43450169D01*
X11055685Y-43430285D01*
X11135037Y-43333594D01*
X11194002Y-43223280D01*
X11230312Y-43103582D01*
X11239500Y-43010292D01*
X11239500Y-43010282D01*
X11242571Y-42979101D01*
X11239500Y-42947920D01*
X11239500Y-37305681D01*
X11242571Y-37274500D01*
X11239500Y-37243319D01*
X11239500Y-37243308D01*
X11230312Y-37150018D01*
X11194002Y-37030320D01*
X11135037Y-36920006D01*
X11055685Y-36823315D01*
X11031455Y-36803430D01*
X6663825Y-32435800D01*
X13459235Y-32435800D01*
X13462001Y-32463884D01*
X13462000Y-57033026D01*
X13459235Y-57061100D01*
X13470035Y-57170753D01*
X13470269Y-57173133D01*
X13502948Y-57280861D01*
X13556016Y-57380144D01*
X13627433Y-57467167D01*
X13649248Y-57485070D01*
X20683434Y-64519257D01*
X20701333Y-64541067D01*
X20788355Y-64612484D01*
X20887638Y-64665552D01*
X20995366Y-64698231D01*
X21079326Y-64706500D01*
X21079327Y-64706500D01*
X21107399Y-64709265D01*
X21135471Y-64706500D01*
X23180388Y-64706500D01*
X23301558Y-64887843D01*
X23466057Y-65052342D01*
X23659487Y-65181588D01*
X23874415Y-65270614D01*
X24102582Y-65316000D01*
X24335218Y-65316000D01*
X24563385Y-65270614D01*
X24778313Y-65181588D01*
X24971743Y-65052342D01*
X25136242Y-64887843D01*
X25265488Y-64694413D01*
X25354514Y-64479485D01*
X25399900Y-64251318D01*
X25399900Y-64018682D01*
X25354514Y-63790515D01*
X25265488Y-63575587D01*
X25136242Y-63382157D01*
X24971743Y-63217658D01*
X24778313Y-63088412D01*
X24563385Y-62999386D01*
X24335218Y-62954000D01*
X24102582Y-62954000D01*
X23874415Y-62999386D01*
X23659487Y-63088412D01*
X23466057Y-63217658D01*
X23301558Y-63382157D01*
X23180388Y-63563500D01*
X21344123Y-63563500D01*
X19259305Y-61478682D01*
X38277900Y-61478682D01*
X38277900Y-61711318D01*
X38323286Y-61939485D01*
X38412312Y-62154413D01*
X38541558Y-62347843D01*
X38706057Y-62512342D01*
X38899487Y-62641588D01*
X39114415Y-62730614D01*
X39342582Y-62776000D01*
X39575218Y-62776000D01*
X39803385Y-62730614D01*
X40018313Y-62641588D01*
X40211743Y-62512342D01*
X40376242Y-62347843D01*
X40505488Y-62154413D01*
X40594514Y-61939485D01*
X40639900Y-61711318D01*
X40639900Y-61478682D01*
X40632892Y-61443446D01*
X55410100Y-61443446D01*
X55410100Y-62051354D01*
X55528697Y-62647582D01*
X55761334Y-63209216D01*
X56099070Y-63714674D01*
X56528926Y-64144530D01*
X57034384Y-64482266D01*
X57596018Y-64714903D01*
X58192246Y-64833500D01*
X58800154Y-64833500D01*
X59396382Y-64714903D01*
X59958016Y-64482266D01*
X60463474Y-64144530D01*
X60893330Y-63714674D01*
X61231066Y-63209216D01*
X61463703Y-62647582D01*
X61582300Y-62051354D01*
X61582300Y-61443446D01*
X61463703Y-60847218D01*
X61231066Y-60285584D01*
X60893330Y-59780126D01*
X60463474Y-59350270D01*
X59958016Y-59012534D01*
X59396382Y-58779897D01*
X58800154Y-58661300D01*
X58192246Y-58661300D01*
X57596018Y-58779897D01*
X57034384Y-59012534D01*
X56528926Y-59350270D01*
X56099070Y-59780126D01*
X55761334Y-60285584D01*
X55528697Y-60847218D01*
X55410100Y-61443446D01*
X40632892Y-61443446D01*
X40594514Y-61250515D01*
X40505488Y-61035587D01*
X40376242Y-60842157D01*
X40211743Y-60677658D01*
X40018313Y-60548412D01*
X39803385Y-60459386D01*
X39575218Y-60414000D01*
X39342582Y-60414000D01*
X39114415Y-60459386D01*
X38899487Y-60548412D01*
X38706057Y-60677658D01*
X38541558Y-60842157D01*
X38412312Y-61035587D01*
X38323286Y-61250515D01*
X38277900Y-61478682D01*
X19259305Y-61478682D01*
X16719305Y-58938682D01*
X23037900Y-58938682D01*
X23037900Y-59171318D01*
X23083286Y-59399485D01*
X23172312Y-59614413D01*
X23301558Y-59807843D01*
X23466057Y-59972342D01*
X23659487Y-60101588D01*
X23874415Y-60190614D01*
X24102582Y-60236000D01*
X24335218Y-60236000D01*
X24563385Y-60190614D01*
X24778313Y-60101588D01*
X24971743Y-59972342D01*
X25136242Y-59807843D01*
X25265488Y-59614413D01*
X25354514Y-59399485D01*
X25399900Y-59171318D01*
X25399900Y-58938682D01*
X25354514Y-58710515D01*
X25265488Y-58495587D01*
X25136242Y-58302157D01*
X24971743Y-58137658D01*
X24778313Y-58008412D01*
X24563385Y-57919386D01*
X24335218Y-57874000D01*
X24102582Y-57874000D01*
X23874415Y-57919386D01*
X23659487Y-58008412D01*
X23466057Y-58137658D01*
X23301558Y-58302157D01*
X23172312Y-58495587D01*
X23083286Y-58710515D01*
X23037900Y-58938682D01*
X16719305Y-58938682D01*
X14605000Y-56824378D01*
X14605000Y-55972360D01*
X15011400Y-55972360D01*
X15011400Y-56092440D01*
X15034826Y-56210214D01*
X15080779Y-56321154D01*
X15147492Y-56420998D01*
X15232402Y-56505908D01*
X15332246Y-56572621D01*
X15443186Y-56618574D01*
X15560960Y-56642000D01*
X15681040Y-56642000D01*
X15798814Y-56618574D01*
X15909754Y-56572621D01*
X16009598Y-56505908D01*
X16094508Y-56420998D01*
X16109418Y-56398682D01*
X23037900Y-56398682D01*
X23037900Y-56631318D01*
X23083286Y-56859485D01*
X23172312Y-57074413D01*
X23301558Y-57267843D01*
X23466057Y-57432342D01*
X23659487Y-57561588D01*
X23874415Y-57650614D01*
X24102582Y-57696000D01*
X24335218Y-57696000D01*
X24563385Y-57650614D01*
X24778313Y-57561588D01*
X24971743Y-57432342D01*
X25136242Y-57267843D01*
X25257412Y-57086500D01*
X32580078Y-57086500D01*
X33662834Y-58169257D01*
X33680733Y-58191067D01*
X33767755Y-58262484D01*
X33867038Y-58315552D01*
X33974766Y-58348231D01*
X34058726Y-58356500D01*
X34058727Y-58356500D01*
X34086799Y-58359265D01*
X34114871Y-58356500D01*
X38505247Y-58356500D01*
X38412312Y-58495587D01*
X38323286Y-58710515D01*
X38277900Y-58938682D01*
X38277900Y-59171318D01*
X38323286Y-59399485D01*
X38412312Y-59614413D01*
X38541558Y-59807843D01*
X38706057Y-59972342D01*
X38899487Y-60101588D01*
X39114415Y-60190614D01*
X39342582Y-60236000D01*
X39575218Y-60236000D01*
X39803385Y-60190614D01*
X40018313Y-60101588D01*
X40211743Y-59972342D01*
X40376242Y-59807843D01*
X40505488Y-59614413D01*
X40594514Y-59399485D01*
X40639900Y-59171318D01*
X40639900Y-58938682D01*
X40594514Y-58710515D01*
X40505488Y-58495587D01*
X40412553Y-58356500D01*
X45254678Y-58356500D01*
X46917705Y-60019528D01*
X46932379Y-60054954D01*
X46999092Y-60154798D01*
X47084002Y-60239708D01*
X47183846Y-60306421D01*
X47294786Y-60352374D01*
X47412560Y-60375800D01*
X47532640Y-60375800D01*
X47650414Y-60352374D01*
X47761354Y-60306421D01*
X47861198Y-60239708D01*
X47946108Y-60154798D01*
X48012821Y-60054954D01*
X48058774Y-59944014D01*
X48082200Y-59826240D01*
X48082200Y-59706160D01*
X48058774Y-59588386D01*
X48012821Y-59477446D01*
X47946108Y-59377602D01*
X47861198Y-59292692D01*
X47761354Y-59225979D01*
X47725928Y-59211305D01*
X45915370Y-57400748D01*
X45897467Y-57378933D01*
X45810445Y-57307516D01*
X45711162Y-57254448D01*
X45603434Y-57221769D01*
X45519474Y-57213500D01*
X45491400Y-57210735D01*
X45463326Y-57213500D01*
X40412553Y-57213500D01*
X40505488Y-57074413D01*
X40594514Y-56859485D01*
X40639900Y-56631318D01*
X40639900Y-56398682D01*
X40594514Y-56170515D01*
X40505488Y-55955587D01*
X40376242Y-55762157D01*
X40211743Y-55597658D01*
X40018313Y-55468412D01*
X39803385Y-55379386D01*
X39575218Y-55334000D01*
X39342582Y-55334000D01*
X39114415Y-55379386D01*
X38899487Y-55468412D01*
X38706057Y-55597658D01*
X38541558Y-55762157D01*
X38412312Y-55955587D01*
X38323286Y-56170515D01*
X38277900Y-56398682D01*
X38277900Y-56631318D01*
X38323286Y-56859485D01*
X38412312Y-57074413D01*
X38505247Y-57213500D01*
X34323523Y-57213500D01*
X33240770Y-56130748D01*
X33222867Y-56108933D01*
X33135845Y-56037516D01*
X33036562Y-55984448D01*
X32928834Y-55951769D01*
X32844874Y-55943500D01*
X32816800Y-55940735D01*
X32788726Y-55943500D01*
X25257412Y-55943500D01*
X25136242Y-55762157D01*
X24971743Y-55597658D01*
X24778313Y-55468412D01*
X24563385Y-55379386D01*
X24335218Y-55334000D01*
X24102582Y-55334000D01*
X23874415Y-55379386D01*
X23659487Y-55468412D01*
X23466057Y-55597658D01*
X23301558Y-55762157D01*
X23172312Y-55955587D01*
X23083286Y-56170515D01*
X23037900Y-56398682D01*
X16109418Y-56398682D01*
X16161221Y-56321154D01*
X16207174Y-56210214D01*
X16230600Y-56092440D01*
X16230600Y-55972360D01*
X16207174Y-55854586D01*
X16192500Y-55819160D01*
X16192500Y-53858682D01*
X23037900Y-53858682D01*
X23037900Y-54091318D01*
X23083286Y-54319485D01*
X23172312Y-54534413D01*
X23301558Y-54727843D01*
X23466057Y-54892342D01*
X23659487Y-55021588D01*
X23874415Y-55110614D01*
X24102582Y-55156000D01*
X24335218Y-55156000D01*
X24563385Y-55110614D01*
X24778313Y-55021588D01*
X24971743Y-54892342D01*
X25136242Y-54727843D01*
X25265488Y-54534413D01*
X25354514Y-54319485D01*
X25399900Y-54091318D01*
X25399900Y-53858682D01*
X38277900Y-53858682D01*
X38277900Y-54091318D01*
X38323286Y-54319485D01*
X38412312Y-54534413D01*
X38541558Y-54727843D01*
X38706057Y-54892342D01*
X38899487Y-55021588D01*
X39114415Y-55110614D01*
X39342582Y-55156000D01*
X39575218Y-55156000D01*
X39803385Y-55110614D01*
X40018313Y-55021588D01*
X40211743Y-54892342D01*
X40376242Y-54727843D01*
X40505488Y-54534413D01*
X40594514Y-54319485D01*
X40639900Y-54091318D01*
X40639900Y-53858682D01*
X40594514Y-53630515D01*
X40505488Y-53415587D01*
X40376242Y-53222157D01*
X40211743Y-53057658D01*
X40018313Y-52928412D01*
X39803385Y-52839386D01*
X39575218Y-52794000D01*
X39342582Y-52794000D01*
X39114415Y-52839386D01*
X38899487Y-52928412D01*
X38706057Y-53057658D01*
X38541558Y-53222157D01*
X38412312Y-53415587D01*
X38323286Y-53630515D01*
X38277900Y-53858682D01*
X25399900Y-53858682D01*
X25354514Y-53630515D01*
X25265488Y-53415587D01*
X25136242Y-53222157D01*
X24971743Y-53057658D01*
X24778313Y-52928412D01*
X24563385Y-52839386D01*
X24335218Y-52794000D01*
X24102582Y-52794000D01*
X23874415Y-52839386D01*
X23659487Y-52928412D01*
X23466057Y-53057658D01*
X23301558Y-53222157D01*
X23172312Y-53415587D01*
X23083286Y-53630515D01*
X23037900Y-53858682D01*
X16192500Y-53858682D01*
X16192500Y-51318682D01*
X23037900Y-51318682D01*
X23037900Y-51551318D01*
X23083286Y-51779485D01*
X23172312Y-51994413D01*
X23301558Y-52187843D01*
X23466057Y-52352342D01*
X23659487Y-52481588D01*
X23874415Y-52570614D01*
X24102582Y-52616000D01*
X24335218Y-52616000D01*
X24563385Y-52570614D01*
X24778313Y-52481588D01*
X24971743Y-52352342D01*
X25136242Y-52187843D01*
X25265488Y-51994413D01*
X25354514Y-51779485D01*
X25399900Y-51551318D01*
X25399900Y-51318682D01*
X25354514Y-51090515D01*
X25265488Y-50875587D01*
X25136242Y-50682157D01*
X24971743Y-50517658D01*
X24778313Y-50388412D01*
X24563385Y-50299386D01*
X24335218Y-50254000D01*
X24102582Y-50254000D01*
X23874415Y-50299386D01*
X23659487Y-50388412D01*
X23466057Y-50517658D01*
X23301558Y-50682157D01*
X23172312Y-50875587D01*
X23083286Y-51090515D01*
X23037900Y-51318682D01*
X16192500Y-51318682D01*
X16192500Y-48778682D01*
X23037900Y-48778682D01*
X23037900Y-49011318D01*
X23083286Y-49239485D01*
X23172312Y-49454413D01*
X23301558Y-49647843D01*
X23466057Y-49812342D01*
X23659487Y-49941588D01*
X23874415Y-50030614D01*
X24102582Y-50076000D01*
X24335218Y-50076000D01*
X24563385Y-50030614D01*
X24778313Y-49941588D01*
X24971743Y-49812342D01*
X25136242Y-49647843D01*
X25265488Y-49454413D01*
X25354514Y-49239485D01*
X25399900Y-49011318D01*
X25399900Y-48778682D01*
X25354514Y-48550515D01*
X25265488Y-48335587D01*
X25136242Y-48142157D01*
X24971743Y-47977658D01*
X24778313Y-47848412D01*
X24563385Y-47759386D01*
X24335218Y-47714000D01*
X24102582Y-47714000D01*
X23874415Y-47759386D01*
X23659487Y-47848412D01*
X23466057Y-47977658D01*
X23301558Y-48142157D01*
X23172312Y-48335587D01*
X23083286Y-48550515D01*
X23037900Y-48778682D01*
X16192500Y-48778682D01*
X16192500Y-47099722D01*
X17053540Y-46238682D01*
X23037900Y-46238682D01*
X23037900Y-46471318D01*
X23083286Y-46699485D01*
X23172312Y-46914413D01*
X23301558Y-47107843D01*
X23466057Y-47272342D01*
X23659487Y-47401588D01*
X23874415Y-47490614D01*
X24102582Y-47536000D01*
X24335218Y-47536000D01*
X24563385Y-47490614D01*
X24778313Y-47401588D01*
X24971743Y-47272342D01*
X25136242Y-47107843D01*
X25265488Y-46914413D01*
X25354514Y-46699485D01*
X25399900Y-46471318D01*
X25399900Y-46238682D01*
X25354514Y-46010515D01*
X25265488Y-45795587D01*
X25136242Y-45602157D01*
X24971743Y-45437658D01*
X24778313Y-45308412D01*
X24563385Y-45219386D01*
X24335218Y-45174000D01*
X24102582Y-45174000D01*
X23874415Y-45219386D01*
X23659487Y-45308412D01*
X23466057Y-45437658D01*
X23301558Y-45602157D01*
X23172312Y-45795587D01*
X23083286Y-46010515D01*
X23037900Y-46238682D01*
X17053540Y-46238682D01*
X19593540Y-43698682D01*
X23037900Y-43698682D01*
X23037900Y-43931318D01*
X23083286Y-44159485D01*
X23172312Y-44374413D01*
X23301558Y-44567843D01*
X23466057Y-44732342D01*
X23659487Y-44861588D01*
X23874415Y-44950614D01*
X24102582Y-44996000D01*
X24335218Y-44996000D01*
X24563385Y-44950614D01*
X24778313Y-44861588D01*
X24971743Y-44732342D01*
X25136242Y-44567843D01*
X25265488Y-44374413D01*
X25354514Y-44159485D01*
X25399900Y-43931318D01*
X25399900Y-43698682D01*
X25354514Y-43470515D01*
X25265488Y-43255587D01*
X25136242Y-43062157D01*
X24971743Y-42897658D01*
X24778313Y-42768412D01*
X24563385Y-42679386D01*
X24335218Y-42634000D01*
X24102582Y-42634000D01*
X23874415Y-42679386D01*
X23659487Y-42768412D01*
X23466057Y-42897658D01*
X23301558Y-43062157D01*
X23172312Y-43255587D01*
X23083286Y-43470515D01*
X23037900Y-43698682D01*
X19593540Y-43698682D01*
X21445723Y-41846500D01*
X23180388Y-41846500D01*
X23301558Y-42027843D01*
X23466057Y-42192342D01*
X23659487Y-42321588D01*
X23874415Y-42410614D01*
X24102582Y-42456000D01*
X24335218Y-42456000D01*
X24563385Y-42410614D01*
X24778313Y-42321588D01*
X24971743Y-42192342D01*
X25136242Y-42027843D01*
X25265488Y-41834413D01*
X25354514Y-41619485D01*
X25399900Y-41391318D01*
X25399900Y-41158682D01*
X25354514Y-40930515D01*
X25265488Y-40715587D01*
X25136242Y-40522157D01*
X24971743Y-40357658D01*
X24778313Y-40228412D01*
X24563385Y-40139386D01*
X24335218Y-40094000D01*
X24102582Y-40094000D01*
X23874415Y-40139386D01*
X23659487Y-40228412D01*
X23466057Y-40357658D01*
X23301558Y-40522157D01*
X23180388Y-40703500D01*
X21237071Y-40703500D01*
X21208999Y-40700735D01*
X21180927Y-40703500D01*
X21180926Y-40703500D01*
X21096966Y-40711769D01*
X20989238Y-40744448D01*
X20889955Y-40797516D01*
X20802933Y-40868933D01*
X20785034Y-40890743D01*
X15236744Y-46439034D01*
X15214934Y-46456933D01*
X15157341Y-46527110D01*
X15143516Y-46543956D01*
X15090448Y-46643239D01*
X15057769Y-46750967D01*
X15046735Y-46863000D01*
X15049501Y-46891084D01*
X15049500Y-55819160D01*
X15034826Y-55854586D01*
X15011400Y-55972360D01*
X14605000Y-55972360D01*
X14605000Y-38618682D01*
X23037900Y-38618682D01*
X23037900Y-38851318D01*
X23083286Y-39079485D01*
X23172312Y-39294413D01*
X23301558Y-39487843D01*
X23466057Y-39652342D01*
X23659487Y-39781588D01*
X23874415Y-39870614D01*
X24102582Y-39916000D01*
X24335218Y-39916000D01*
X24563385Y-39870614D01*
X24778313Y-39781588D01*
X24971743Y-39652342D01*
X25136242Y-39487843D01*
X25265488Y-39294413D01*
X25354514Y-39079485D01*
X25399900Y-38851318D01*
X25399900Y-38618682D01*
X25354514Y-38390515D01*
X25265488Y-38175587D01*
X25136242Y-37982157D01*
X24971743Y-37817658D01*
X24778313Y-37688412D01*
X24563385Y-37599386D01*
X24335218Y-37554000D01*
X24102582Y-37554000D01*
X23874415Y-37599386D01*
X23659487Y-37688412D01*
X23466057Y-37817658D01*
X23301558Y-37982157D01*
X23172312Y-38175587D01*
X23083286Y-38390515D01*
X23037900Y-38618682D01*
X14605000Y-38618682D01*
X14605000Y-32672522D01*
X17276662Y-30000860D01*
X18338800Y-30000860D01*
X18338800Y-30120940D01*
X18362226Y-30238714D01*
X18376901Y-30274142D01*
X18376900Y-33271326D01*
X18374135Y-33299400D01*
X18376900Y-33327473D01*
X18385169Y-33411433D01*
X18417848Y-33519161D01*
X18470916Y-33618444D01*
X18542333Y-33705467D01*
X18564148Y-33723370D01*
X20124634Y-35283857D01*
X20142533Y-35305667D01*
X20229555Y-35377084D01*
X20328838Y-35430152D01*
X20436566Y-35462831D01*
X20520526Y-35471100D01*
X20548600Y-35473865D01*
X20576674Y-35471100D01*
X23282219Y-35471100D01*
X23172312Y-35635587D01*
X23083286Y-35850515D01*
X23037900Y-36078682D01*
X23037900Y-36311318D01*
X23083286Y-36539485D01*
X23172312Y-36754413D01*
X23301558Y-36947843D01*
X23466057Y-37112342D01*
X23659487Y-37241588D01*
X23874415Y-37330614D01*
X24102582Y-37376000D01*
X24335218Y-37376000D01*
X24563385Y-37330614D01*
X24778313Y-37241588D01*
X24971743Y-37112342D01*
X25136242Y-36947843D01*
X25265488Y-36754413D01*
X25354514Y-36539485D01*
X25399900Y-36311318D01*
X25399900Y-36078682D01*
X25354514Y-35850515D01*
X25265488Y-35635587D01*
X25155581Y-35471100D01*
X28833578Y-35471100D01*
X32283401Y-38920924D01*
X32283400Y-47965226D01*
X32280635Y-47993300D01*
X32283400Y-48021373D01*
X32291669Y-48105333D01*
X32324348Y-48213061D01*
X32377416Y-48312344D01*
X32448833Y-48399367D01*
X32470648Y-48417270D01*
X35872634Y-51819257D01*
X35890533Y-51841067D01*
X35972244Y-51908125D01*
X35977555Y-51912484D01*
X36076838Y-51965552D01*
X36184566Y-51998231D01*
X36296600Y-52009265D01*
X36324674Y-52006500D01*
X38420388Y-52006500D01*
X38541558Y-52187843D01*
X38706057Y-52352342D01*
X38899487Y-52481588D01*
X39114415Y-52570614D01*
X39342582Y-52616000D01*
X39575218Y-52616000D01*
X39803385Y-52570614D01*
X40018313Y-52481588D01*
X40211743Y-52352342D01*
X40376242Y-52187843D01*
X40505488Y-51994413D01*
X40594514Y-51779485D01*
X40639900Y-51551318D01*
X40639900Y-51318682D01*
X40594514Y-51090515D01*
X40505488Y-50875587D01*
X40376242Y-50682157D01*
X40211743Y-50517658D01*
X40018313Y-50388412D01*
X39803385Y-50299386D01*
X39575218Y-50254000D01*
X39342582Y-50254000D01*
X39114415Y-50299386D01*
X38899487Y-50388412D01*
X38706057Y-50517658D01*
X38541558Y-50682157D01*
X38420388Y-50863500D01*
X36533323Y-50863500D01*
X34448505Y-48778682D01*
X38277900Y-48778682D01*
X38277900Y-49011318D01*
X38323286Y-49239485D01*
X38412312Y-49454413D01*
X38541558Y-49647843D01*
X38706057Y-49812342D01*
X38899487Y-49941588D01*
X39114415Y-50030614D01*
X39342582Y-50076000D01*
X39575218Y-50076000D01*
X39803385Y-50030614D01*
X40018313Y-49941588D01*
X40211743Y-49812342D01*
X40376242Y-49647843D01*
X40505488Y-49454413D01*
X40594514Y-49239485D01*
X40639900Y-49011318D01*
X40639900Y-48778682D01*
X40594514Y-48550515D01*
X40505488Y-48335587D01*
X40376242Y-48142157D01*
X40211743Y-47977658D01*
X40018313Y-47848412D01*
X39803385Y-47759386D01*
X39575218Y-47714000D01*
X39342582Y-47714000D01*
X39114415Y-47759386D01*
X38899487Y-47848412D01*
X38706057Y-47977658D01*
X38541558Y-48142157D01*
X38412312Y-48335587D01*
X38323286Y-48550515D01*
X38277900Y-48778682D01*
X34448505Y-48778682D01*
X33426400Y-47756578D01*
X33426400Y-46238682D01*
X38277900Y-46238682D01*
X38277900Y-46471318D01*
X38323286Y-46699485D01*
X38412312Y-46914413D01*
X38541558Y-47107843D01*
X38706057Y-47272342D01*
X38899487Y-47401588D01*
X39114415Y-47490614D01*
X39342582Y-47536000D01*
X39575218Y-47536000D01*
X39803385Y-47490614D01*
X40018313Y-47401588D01*
X40211743Y-47272342D01*
X40376242Y-47107843D01*
X40505488Y-46914413D01*
X40594514Y-46699485D01*
X40639900Y-46471318D01*
X40639900Y-46238682D01*
X40594514Y-46010515D01*
X40505488Y-45795587D01*
X40376242Y-45602157D01*
X40211743Y-45437658D01*
X40018313Y-45308412D01*
X39803385Y-45219386D01*
X39575218Y-45174000D01*
X39342582Y-45174000D01*
X39114415Y-45219386D01*
X38899487Y-45308412D01*
X38706057Y-45437658D01*
X38541558Y-45602157D01*
X38412312Y-45795587D01*
X38323286Y-46010515D01*
X38277900Y-46238682D01*
X33426400Y-46238682D01*
X33426400Y-43698682D01*
X38277900Y-43698682D01*
X38277900Y-43931318D01*
X38323286Y-44159485D01*
X38412312Y-44374413D01*
X38541558Y-44567843D01*
X38706057Y-44732342D01*
X38899487Y-44861588D01*
X39114415Y-44950614D01*
X39342582Y-44996000D01*
X39575218Y-44996000D01*
X39803385Y-44950614D01*
X40018313Y-44861588D01*
X40211743Y-44732342D01*
X40376242Y-44567843D01*
X40505488Y-44374413D01*
X40594514Y-44159485D01*
X40639900Y-43931318D01*
X40639900Y-43698682D01*
X40594514Y-43470515D01*
X40505488Y-43255587D01*
X40376242Y-43062157D01*
X40211743Y-42897658D01*
X40018313Y-42768412D01*
X39803385Y-42679386D01*
X39575218Y-42634000D01*
X39342582Y-42634000D01*
X39114415Y-42679386D01*
X38899487Y-42768412D01*
X38706057Y-42897658D01*
X38541558Y-43062157D01*
X38412312Y-43255587D01*
X38323286Y-43470515D01*
X38277900Y-43698682D01*
X33426400Y-43698682D01*
X33426400Y-41158682D01*
X38277900Y-41158682D01*
X38277900Y-41391318D01*
X38323286Y-41619485D01*
X38412312Y-41834413D01*
X38541558Y-42027843D01*
X38706057Y-42192342D01*
X38899487Y-42321588D01*
X39114415Y-42410614D01*
X39342582Y-42456000D01*
X39575218Y-42456000D01*
X39803385Y-42410614D01*
X40018313Y-42321588D01*
X40211743Y-42192342D01*
X40376242Y-42027843D01*
X40505488Y-41834413D01*
X40594514Y-41619485D01*
X40639900Y-41391318D01*
X40639900Y-41158682D01*
X40594514Y-40930515D01*
X40505488Y-40715587D01*
X40376242Y-40522157D01*
X40211743Y-40357658D01*
X40018313Y-40228412D01*
X39803385Y-40139386D01*
X39575218Y-40094000D01*
X39342582Y-40094000D01*
X39114415Y-40139386D01*
X38899487Y-40228412D01*
X38706057Y-40357658D01*
X38541558Y-40522157D01*
X38412312Y-40715587D01*
X38323286Y-40930515D01*
X38277900Y-41158682D01*
X33426400Y-41158682D01*
X33426400Y-38712274D01*
X33429165Y-38684200D01*
X33422713Y-38618682D01*
X38277900Y-38618682D01*
X38277900Y-38851318D01*
X38323286Y-39079485D01*
X38412312Y-39294413D01*
X38541558Y-39487843D01*
X38706057Y-39652342D01*
X38899487Y-39781588D01*
X39114415Y-39870614D01*
X39342582Y-39916000D01*
X39575218Y-39916000D01*
X39803385Y-39870614D01*
X40018313Y-39781588D01*
X40211743Y-39652342D01*
X40376242Y-39487843D01*
X40505488Y-39294413D01*
X40594514Y-39079485D01*
X40639900Y-38851318D01*
X40639900Y-38618682D01*
X40594514Y-38390515D01*
X40505488Y-38175587D01*
X40376242Y-37982157D01*
X40211743Y-37817658D01*
X40018313Y-37688412D01*
X39803385Y-37599386D01*
X39575218Y-37554000D01*
X39342582Y-37554000D01*
X39114415Y-37599386D01*
X38899487Y-37688412D01*
X38706057Y-37817658D01*
X38541558Y-37982157D01*
X38412312Y-38175587D01*
X38323286Y-38390515D01*
X38277900Y-38618682D01*
X33422713Y-38618682D01*
X33418131Y-38572166D01*
X33385452Y-38464438D01*
X33332384Y-38365155D01*
X33260967Y-38278133D01*
X33239157Y-38260234D01*
X31057605Y-36078682D01*
X38277900Y-36078682D01*
X38277900Y-36311318D01*
X38323286Y-36539485D01*
X38412312Y-36754413D01*
X38541558Y-36947843D01*
X38706057Y-37112342D01*
X38899487Y-37241588D01*
X39114415Y-37330614D01*
X39342582Y-37376000D01*
X39575218Y-37376000D01*
X39803385Y-37330614D01*
X40018313Y-37241588D01*
X40211743Y-37112342D01*
X40376242Y-36947843D01*
X40505488Y-36754413D01*
X40594514Y-36539485D01*
X40639900Y-36311318D01*
X40639900Y-36078682D01*
X40594514Y-35850515D01*
X40505488Y-35635587D01*
X40376242Y-35442157D01*
X40211743Y-35277658D01*
X40018313Y-35148412D01*
X39803385Y-35059386D01*
X39575218Y-35014000D01*
X39342582Y-35014000D01*
X39114415Y-35059386D01*
X38899487Y-35148412D01*
X38706057Y-35277658D01*
X38541558Y-35442157D01*
X38412312Y-35635587D01*
X38323286Y-35850515D01*
X38277900Y-36078682D01*
X31057605Y-36078682D01*
X29494270Y-34515348D01*
X29476367Y-34493533D01*
X29389345Y-34422116D01*
X29290062Y-34369048D01*
X29182334Y-34336369D01*
X29098374Y-34328100D01*
X29070300Y-34325335D01*
X29042226Y-34328100D01*
X25189525Y-34328100D01*
X25265488Y-34214413D01*
X25354514Y-33999485D01*
X25399900Y-33771318D01*
X25399900Y-33538682D01*
X38277900Y-33538682D01*
X38277900Y-33771318D01*
X38323286Y-33999485D01*
X38412312Y-34214413D01*
X38541558Y-34407843D01*
X38706057Y-34572342D01*
X38899487Y-34701588D01*
X39114415Y-34790614D01*
X39342582Y-34836000D01*
X39575218Y-34836000D01*
X39803385Y-34790614D01*
X40018313Y-34701588D01*
X40211743Y-34572342D01*
X40376242Y-34407843D01*
X40505488Y-34214413D01*
X40594514Y-33999485D01*
X40639900Y-33771318D01*
X40639900Y-33538682D01*
X40594514Y-33310515D01*
X40505488Y-33095587D01*
X40376242Y-32902157D01*
X40211743Y-32737658D01*
X40018313Y-32608412D01*
X39803385Y-32519386D01*
X39575218Y-32474000D01*
X39342582Y-32474000D01*
X39114415Y-32519386D01*
X38899487Y-32608412D01*
X38706057Y-32737658D01*
X38541558Y-32902157D01*
X38412312Y-33095587D01*
X38323286Y-33310515D01*
X38277900Y-33538682D01*
X25399900Y-33538682D01*
X25354514Y-33310515D01*
X25265488Y-33095587D01*
X25136242Y-32902157D01*
X24971743Y-32737658D01*
X24778313Y-32608412D01*
X24563385Y-32519386D01*
X24335218Y-32474000D01*
X24102582Y-32474000D01*
X23874415Y-32519386D01*
X23659487Y-32608412D01*
X23466057Y-32737658D01*
X23301558Y-32902157D01*
X23172312Y-33095587D01*
X23083286Y-33310515D01*
X23037900Y-33538682D01*
X23037900Y-33771318D01*
X23083286Y-33999485D01*
X23172312Y-34214413D01*
X23248275Y-34328100D01*
X20785323Y-34328100D01*
X19519900Y-33062678D01*
X19519900Y-30998682D01*
X23037900Y-30998682D01*
X23037900Y-31231318D01*
X23083286Y-31459485D01*
X23172312Y-31674413D01*
X23301558Y-31867843D01*
X23466057Y-32032342D01*
X23659487Y-32161588D01*
X23874415Y-32250614D01*
X24102582Y-32296000D01*
X24335218Y-32296000D01*
X24563385Y-32250614D01*
X24778313Y-32161588D01*
X24971743Y-32032342D01*
X25136242Y-31867843D01*
X25265488Y-31674413D01*
X25354514Y-31459485D01*
X25399900Y-31231318D01*
X25399900Y-30998682D01*
X25577900Y-30998682D01*
X25577900Y-31231318D01*
X25623286Y-31459485D01*
X25712312Y-31674413D01*
X25841558Y-31867843D01*
X26006057Y-32032342D01*
X26199487Y-32161588D01*
X26414415Y-32250614D01*
X26642582Y-32296000D01*
X26875218Y-32296000D01*
X27103385Y-32250614D01*
X27318313Y-32161588D01*
X27511743Y-32032342D01*
X27676242Y-31867843D01*
X27805488Y-31674413D01*
X27894514Y-31459485D01*
X27939900Y-31231318D01*
X27939900Y-30998682D01*
X28117900Y-30998682D01*
X28117900Y-31231318D01*
X28163286Y-31459485D01*
X28252312Y-31674413D01*
X28381558Y-31867843D01*
X28546057Y-32032342D01*
X28739487Y-32161588D01*
X28954415Y-32250614D01*
X29182582Y-32296000D01*
X29415218Y-32296000D01*
X29643385Y-32250614D01*
X29858313Y-32161588D01*
X30051743Y-32032342D01*
X30216242Y-31867843D01*
X30345488Y-31674413D01*
X30434514Y-31459485D01*
X30479900Y-31231318D01*
X30479900Y-30998682D01*
X33197900Y-30998682D01*
X33197900Y-31231318D01*
X33243286Y-31459485D01*
X33332312Y-31674413D01*
X33461558Y-31867843D01*
X33626057Y-32032342D01*
X33819487Y-32161588D01*
X34034415Y-32250614D01*
X34262582Y-32296000D01*
X34495218Y-32296000D01*
X34723385Y-32250614D01*
X34938313Y-32161588D01*
X35131743Y-32032342D01*
X35296242Y-31867843D01*
X35425488Y-31674413D01*
X35514514Y-31459485D01*
X35559900Y-31231318D01*
X35559900Y-30998682D01*
X35737900Y-30998682D01*
X35737900Y-31231318D01*
X35783286Y-31459485D01*
X35872312Y-31674413D01*
X36001558Y-31867843D01*
X36166057Y-32032342D01*
X36359487Y-32161588D01*
X36574415Y-32250614D01*
X36802582Y-32296000D01*
X37035218Y-32296000D01*
X37263385Y-32250614D01*
X37478313Y-32161588D01*
X37671743Y-32032342D01*
X37836242Y-31867843D01*
X37965488Y-31674413D01*
X38054514Y-31459485D01*
X38099900Y-31231318D01*
X38099900Y-30998682D01*
X38277900Y-30998682D01*
X38277900Y-31231318D01*
X38323286Y-31459485D01*
X38412312Y-31674413D01*
X38541558Y-31867843D01*
X38706057Y-32032342D01*
X38899487Y-32161588D01*
X39114415Y-32250614D01*
X39342582Y-32296000D01*
X39575218Y-32296000D01*
X39803385Y-32250614D01*
X40018313Y-32161588D01*
X40211743Y-32032342D01*
X40376242Y-31867843D01*
X40505488Y-31674413D01*
X40594514Y-31459485D01*
X40639900Y-31231318D01*
X40639900Y-30998682D01*
X40594514Y-30770515D01*
X40505488Y-30555587D01*
X40376242Y-30362157D01*
X40211743Y-30197658D01*
X40018313Y-30068412D01*
X39803385Y-29979386D01*
X39575218Y-29934000D01*
X39342582Y-29934000D01*
X39114415Y-29979386D01*
X38899487Y-30068412D01*
X38706057Y-30197658D01*
X38541558Y-30362157D01*
X38412312Y-30555587D01*
X38323286Y-30770515D01*
X38277900Y-30998682D01*
X38099900Y-30998682D01*
X38054514Y-30770515D01*
X37965488Y-30555587D01*
X37836242Y-30362157D01*
X37671743Y-30197658D01*
X37478313Y-30068412D01*
X37263385Y-29979386D01*
X37035218Y-29934000D01*
X36802582Y-29934000D01*
X36574415Y-29979386D01*
X36359487Y-30068412D01*
X36166057Y-30197658D01*
X36001558Y-30362157D01*
X35872312Y-30555587D01*
X35783286Y-30770515D01*
X35737900Y-30998682D01*
X35559900Y-30998682D01*
X35514514Y-30770515D01*
X35425488Y-30555587D01*
X35296242Y-30362157D01*
X35131743Y-30197658D01*
X34938313Y-30068412D01*
X34723385Y-29979386D01*
X34495218Y-29934000D01*
X34262582Y-29934000D01*
X34034415Y-29979386D01*
X33819487Y-30068412D01*
X33626057Y-30197658D01*
X33461558Y-30362157D01*
X33332312Y-30555587D01*
X33243286Y-30770515D01*
X33197900Y-30998682D01*
X30479900Y-30998682D01*
X30434514Y-30770515D01*
X30345488Y-30555587D01*
X30216242Y-30362157D01*
X30051743Y-30197658D01*
X29858313Y-30068412D01*
X29643385Y-29979386D01*
X29415218Y-29934000D01*
X29182582Y-29934000D01*
X28954415Y-29979386D01*
X28739487Y-30068412D01*
X28546057Y-30197658D01*
X28381558Y-30362157D01*
X28252312Y-30555587D01*
X28163286Y-30770515D01*
X28117900Y-30998682D01*
X27939900Y-30998682D01*
X27894514Y-30770515D01*
X27805488Y-30555587D01*
X27676242Y-30362157D01*
X27511743Y-30197658D01*
X27318313Y-30068412D01*
X27103385Y-29979386D01*
X26875218Y-29934000D01*
X26642582Y-29934000D01*
X26414415Y-29979386D01*
X26199487Y-30068412D01*
X26006057Y-30197658D01*
X25841558Y-30362157D01*
X25712312Y-30555587D01*
X25623286Y-30770515D01*
X25577900Y-30998682D01*
X25399900Y-30998682D01*
X25354514Y-30770515D01*
X25265488Y-30555587D01*
X25136242Y-30362157D01*
X24971743Y-30197658D01*
X24778313Y-30068412D01*
X24563385Y-29979386D01*
X24335218Y-29934000D01*
X24102582Y-29934000D01*
X23874415Y-29979386D01*
X23659487Y-30068412D01*
X23466057Y-30197658D01*
X23301558Y-30362157D01*
X23172312Y-30555587D01*
X23083286Y-30770515D01*
X23037900Y-30998682D01*
X19519900Y-30998682D01*
X19519900Y-30274140D01*
X19534574Y-30238714D01*
X19558000Y-30120940D01*
X19558000Y-30000860D01*
X19534574Y-29883086D01*
X19488621Y-29772146D01*
X19421908Y-29672302D01*
X19336998Y-29587392D01*
X19237154Y-29520679D01*
X19126214Y-29474726D01*
X19008440Y-29451300D01*
X18888360Y-29451300D01*
X18770586Y-29474726D01*
X18659646Y-29520679D01*
X18559802Y-29587392D01*
X18474892Y-29672302D01*
X18408179Y-29772146D01*
X18362226Y-29883086D01*
X18338800Y-30000860D01*
X17276662Y-30000860D01*
X21979123Y-25298400D01*
X24482926Y-25298400D01*
X24511000Y-25301165D01*
X24539074Y-25298400D01*
X24623034Y-25290131D01*
X24730762Y-25257452D01*
X24830045Y-25204384D01*
X24917067Y-25132967D01*
X24921683Y-25127343D01*
X24952154Y-25114721D01*
X25051998Y-25048008D01*
X25136908Y-24963098D01*
X25203621Y-24863254D01*
X25249574Y-24752314D01*
X25273000Y-24634540D01*
X25273000Y-24514460D01*
X25249574Y-24396686D01*
X25203621Y-24285746D01*
X25136908Y-24185902D01*
X25051998Y-24100992D01*
X24952154Y-24034279D01*
X24841214Y-23988326D01*
X24723440Y-23964900D01*
X24603360Y-23964900D01*
X24485586Y-23988326D01*
X24374646Y-24034279D01*
X24274802Y-24100992D01*
X24220394Y-24155400D01*
X21770474Y-24155400D01*
X21742400Y-24152635D01*
X21714326Y-24155400D01*
X21630366Y-24163669D01*
X21522638Y-24196348D01*
X21423355Y-24249416D01*
X21336333Y-24320833D01*
X21318434Y-24342643D01*
X13649244Y-32011834D01*
X13627434Y-32029733D01*
X13583667Y-32083063D01*
X13556016Y-32116756D01*
X13502948Y-32216039D01*
X13470269Y-32323767D01*
X13459235Y-32435800D01*
X6663825Y-32435800D01*
X6578600Y-32350576D01*
X6578600Y-24372424D01*
X6858000Y-24372424D01*
X6858000Y-24597576D01*
X6901925Y-24818401D01*
X6988087Y-25026413D01*
X7113174Y-25213620D01*
X7272380Y-25372826D01*
X7459587Y-25497913D01*
X7667599Y-25584075D01*
X7888424Y-25628000D01*
X8113576Y-25628000D01*
X8334401Y-25584075D01*
X8542413Y-25497913D01*
X8729620Y-25372826D01*
X8888826Y-25213620D01*
X9013913Y-25026413D01*
X9100075Y-24818401D01*
X9144000Y-24597576D01*
X9144000Y-24372424D01*
X9100075Y-24151599D01*
X9013913Y-23943587D01*
X8888826Y-23756380D01*
X8729620Y-23597174D01*
X8542413Y-23472087D01*
X8334401Y-23385925D01*
X8113576Y-23342000D01*
X7888424Y-23342000D01*
X7667599Y-23385925D01*
X7459587Y-23472087D01*
X7272380Y-23597174D01*
X7113174Y-23756380D01*
X6988087Y-23943587D01*
X6901925Y-24151599D01*
X6858000Y-24372424D01*
X6578600Y-24372424D01*
X6578600Y-23305424D01*
X6731924Y-23152100D01*
X46788440Y-23152100D01*
X46832577Y-23600234D01*
X46963293Y-24031147D01*
X47175564Y-24428278D01*
X47461233Y-24776367D01*
X47809322Y-25062036D01*
X48206453Y-25274307D01*
X48637366Y-25405023D01*
X48973205Y-25438100D01*
X66477409Y-25438100D01*
X67754500Y-26715192D01*
X67754501Y-35306000D01*
X65985085Y-35306000D01*
X66067727Y-35275444D01*
X66267430Y-35181132D01*
X66362801Y-35125474D01*
X66543146Y-34997992D01*
X66627436Y-34926652D01*
X66782969Y-34769854D01*
X66853623Y-34684990D01*
X66979640Y-34503619D01*
X67034526Y-34407798D01*
X67127217Y-34207337D01*
X67164671Y-34103456D01*
X67221232Y-33889969D01*
X67240125Y-33781171D01*
X67258846Y-33561113D01*
X67261129Y-33505895D01*
X67257289Y-31753225D01*
X67254740Y-31697759D01*
X67234873Y-31476768D01*
X67215325Y-31367562D01*
X67157299Y-31153401D01*
X67119044Y-31049265D01*
X67024631Y-30848472D01*
X66968834Y-30752583D01*
X66840915Y-30571286D01*
X66769284Y-30486573D01*
X66611765Y-30330306D01*
X66526479Y-30259350D01*
X66344166Y-30132883D01*
X66247833Y-30077854D01*
X66046292Y-29985048D01*
X65941853Y-29947625D01*
X65727235Y-29891312D01*
X65617878Y-29872638D01*
X65396735Y-29854537D01*
X65341251Y-29852431D01*
X63407177Y-29863642D01*
X63279455Y-29851763D01*
X63186672Y-29824096D01*
X63101106Y-29778800D01*
X63026061Y-29717627D01*
X62964450Y-29642948D01*
X62918649Y-29557648D01*
X62890437Y-29465033D01*
X62874724Y-29306226D01*
X62852884Y-29084695D01*
X62828591Y-28962616D01*
X62763890Y-28749386D01*
X62716248Y-28634392D01*
X62611194Y-28437880D01*
X62542034Y-28334388D01*
X62400663Y-28162145D01*
X62312640Y-28074130D01*
X62140384Y-27932776D01*
X62036887Y-27863627D01*
X61840365Y-27758591D01*
X61725362Y-27710959D01*
X61512125Y-27646279D01*
X61390045Y-27621997D01*
X61168288Y-27600157D01*
X61106050Y-27597100D01*
X53428900Y-27597100D01*
X53373556Y-27599516D01*
X53153023Y-27618810D01*
X53044018Y-27638031D01*
X52830185Y-27695327D01*
X52726169Y-27733185D01*
X52525535Y-27826743D01*
X52429678Y-27882087D01*
X52248338Y-28009063D01*
X52163547Y-28080211D01*
X52007011Y-28236747D01*
X51935863Y-28321538D01*
X51808887Y-28502878D01*
X51753543Y-28598735D01*
X51659985Y-28799369D01*
X51622127Y-28903385D01*
X51564831Y-29117218D01*
X51545610Y-29226223D01*
X51526316Y-29446756D01*
X51523900Y-29502100D01*
X51523900Y-35750500D01*
X51526316Y-35805844D01*
X51545610Y-36026377D01*
X51564831Y-36135382D01*
X51622127Y-36349215D01*
X51659985Y-36453231D01*
X51753543Y-36653865D01*
X51808887Y-36749722D01*
X51935863Y-36931062D01*
X52007011Y-37015853D01*
X52163547Y-37172389D01*
X52248338Y-37243537D01*
X52429678Y-37370513D01*
X52525535Y-37425857D01*
X52726169Y-37519415D01*
X52830185Y-37557273D01*
X53044018Y-37614569D01*
X53153023Y-37633790D01*
X53373556Y-37653084D01*
X53428900Y-37655500D01*
X61130675Y-37655500D01*
X61191442Y-37652586D01*
X61411356Y-37631444D01*
X61530661Y-37608291D01*
X61742519Y-37545641D01*
X61855232Y-37500181D01*
X62051274Y-37398316D01*
X62060826Y-37392125D01*
X62041140Y-37592000D01*
X62085277Y-38040134D01*
X62215993Y-38471047D01*
X62428264Y-38868178D01*
X62713933Y-39216267D01*
X63062022Y-39501936D01*
X63459153Y-39714207D01*
X63890066Y-39844923D01*
X64225905Y-39878000D01*
X67754500Y-39878000D01*
X67754501Y-53790107D01*
X67056157Y-54488452D01*
X67114517Y-54362237D01*
X67151971Y-54258356D01*
X67208532Y-54044869D01*
X67227425Y-53936071D01*
X67246146Y-53716013D01*
X67248429Y-53660795D01*
X67244589Y-51908125D01*
X67242040Y-51852659D01*
X67222173Y-51631668D01*
X67202625Y-51522462D01*
X67144599Y-51308301D01*
X67106344Y-51204165D01*
X67011931Y-51003372D01*
X66956134Y-50907483D01*
X66828215Y-50726186D01*
X66756584Y-50641473D01*
X66599065Y-50485206D01*
X66513779Y-50414250D01*
X66331466Y-50287783D01*
X66235133Y-50232754D01*
X66033592Y-50139948D01*
X65929153Y-50102525D01*
X65714535Y-50046212D01*
X65605178Y-50027538D01*
X65384035Y-50009437D01*
X65328551Y-50007331D01*
X63394477Y-50018542D01*
X63266755Y-50006663D01*
X63173972Y-49978996D01*
X63088406Y-49933700D01*
X63013361Y-49872527D01*
X62951750Y-49797848D01*
X62905949Y-49712548D01*
X62877737Y-49619933D01*
X62862024Y-49461126D01*
X62840184Y-49239595D01*
X62815891Y-49117516D01*
X62751190Y-48904286D01*
X62703548Y-48789292D01*
X62598494Y-48592780D01*
X62529334Y-48489288D01*
X62387963Y-48317045D01*
X62299940Y-48229030D01*
X62127684Y-48087676D01*
X62024187Y-48018527D01*
X61827665Y-47913491D01*
X61712662Y-47865859D01*
X61499425Y-47801179D01*
X61377345Y-47776897D01*
X61155588Y-47755057D01*
X61093350Y-47752000D01*
X53416200Y-47752000D01*
X53360856Y-47754416D01*
X53140323Y-47773710D01*
X53031318Y-47792931D01*
X52817485Y-47850227D01*
X52713469Y-47888085D01*
X52512835Y-47981643D01*
X52416978Y-48036987D01*
X52235638Y-48163963D01*
X52150847Y-48235111D01*
X51994311Y-48391647D01*
X51923163Y-48476438D01*
X51796187Y-48657778D01*
X51740843Y-48753635D01*
X51647285Y-48954269D01*
X51609427Y-49058285D01*
X51552131Y-49272118D01*
X51532910Y-49381123D01*
X51513616Y-49601656D01*
X51511200Y-49657000D01*
X51511200Y-55905400D01*
X51513616Y-55960744D01*
X51532910Y-56181277D01*
X51552131Y-56290282D01*
X51609427Y-56504115D01*
X51647285Y-56608131D01*
X51740843Y-56808765D01*
X51796187Y-56904622D01*
X51923163Y-57085962D01*
X51994311Y-57170753D01*
X52150847Y-57327289D01*
X52235638Y-57398437D01*
X52416978Y-57525413D01*
X52512835Y-57580757D01*
X52713469Y-57674315D01*
X52817485Y-57712173D01*
X53031318Y-57769469D01*
X53140323Y-57788690D01*
X53360856Y-57807984D01*
X53416200Y-57810400D01*
X61117975Y-57810400D01*
X61178742Y-57807486D01*
X61398656Y-57786344D01*
X61517961Y-57763191D01*
X61729819Y-57700541D01*
X61842532Y-57655081D01*
X62038568Y-57553219D01*
X62015740Y-57785000D01*
X62059877Y-58233134D01*
X62190593Y-58664047D01*
X62402864Y-59061178D01*
X62688533Y-59409267D01*
X63036622Y-59694936D01*
X63433753Y-59907207D01*
X63864666Y-60037923D01*
X64200505Y-60071000D01*
X66880208Y-60071000D01*
X66992500Y-60082060D01*
X67104792Y-60071000D01*
X67104795Y-60071000D01*
X67440634Y-60037923D01*
X67871547Y-59907207D01*
X68268678Y-59694936D01*
X68616767Y-59409267D01*
X68688358Y-59322033D01*
X71577538Y-56432854D01*
X71664767Y-56361267D01*
X71950436Y-56013178D01*
X72162707Y-55616047D01*
X72293423Y-55185134D01*
X72326500Y-54849295D01*
X72326500Y-54849293D01*
X72337560Y-54737000D01*
X72326500Y-54624708D01*
X72326500Y-37805892D01*
X72337560Y-37693599D01*
X72326500Y-37581305D01*
X72326500Y-25880595D01*
X72337560Y-25768300D01*
X72293423Y-25320165D01*
X72162707Y-24889253D01*
X71950436Y-24492121D01*
X71781723Y-24286545D01*
X71664767Y-24144033D01*
X71577539Y-24072447D01*
X69120158Y-21615067D01*
X69048567Y-21527833D01*
X68700478Y-21242164D01*
X68303347Y-21029893D01*
X67872434Y-20899177D01*
X67536595Y-20866100D01*
X67536592Y-20866100D01*
X67424300Y-20855040D01*
X67312008Y-20866100D01*
X48973205Y-20866100D01*
X48637366Y-20899177D01*
X48206453Y-21029893D01*
X47809322Y-21242164D01*
X47461233Y-21527833D01*
X47175564Y-21875922D01*
X46963293Y-22273053D01*
X46832577Y-22703966D01*
X46788440Y-23152100D01*
X6731924Y-23152100D01*
X7777991Y-22106033D01*
X7888424Y-22128000D01*
X8113576Y-22128000D01*
X8334401Y-22084075D01*
X8542413Y-21997913D01*
X8729620Y-21872826D01*
X8888826Y-21713620D01*
X9013913Y-21526413D01*
X9100075Y-21318401D01*
X9144000Y-21097576D01*
X9144000Y-20872424D01*
X9100075Y-20651599D01*
X9013913Y-20443587D01*
X8888826Y-20256380D01*
X8729620Y-20097174D01*
X8542413Y-19972087D01*
X8334401Y-19885925D01*
X8113576Y-19842000D01*
X7888424Y-19842000D01*
X7667599Y-19885925D01*
X7521971Y-19946246D01*
X6489700Y-18913976D01*
X6489700Y-17372424D01*
X6858000Y-17372424D01*
X6858000Y-17597576D01*
X6901925Y-17818401D01*
X6988087Y-18026413D01*
X7113174Y-18213620D01*
X7272380Y-18372826D01*
X7459587Y-18497913D01*
X7667599Y-18584075D01*
X7888424Y-18628000D01*
X8113576Y-18628000D01*
X8334401Y-18584075D01*
X8542413Y-18497913D01*
X8729620Y-18372826D01*
X8888826Y-18213620D01*
X9013913Y-18026413D01*
X9100075Y-17818401D01*
X9144000Y-17597576D01*
X9144000Y-17372424D01*
X9134295Y-17323633D01*
X63057200Y-17323633D01*
X63057200Y-17575967D01*
X63106428Y-17823454D01*
X63202993Y-18056581D01*
X63343182Y-18266390D01*
X63521610Y-18444818D01*
X63731419Y-18585007D01*
X63964546Y-18681572D01*
X64212033Y-18730800D01*
X64464367Y-18730800D01*
X64711854Y-18681572D01*
X64944981Y-18585007D01*
X65154790Y-18444818D01*
X65333218Y-18266390D01*
X65473407Y-18056581D01*
X65569972Y-17823454D01*
X65619200Y-17575967D01*
X65619200Y-17323633D01*
X65569972Y-17076146D01*
X65473407Y-16843019D01*
X65333218Y-16633210D01*
X65154790Y-16454782D01*
X64944981Y-16314593D01*
X64711854Y-16218028D01*
X64464367Y-16168800D01*
X64212033Y-16168800D01*
X63964546Y-16218028D01*
X63731419Y-16314593D01*
X63521610Y-16454782D01*
X63343182Y-16633210D01*
X63202993Y-16843019D01*
X63106428Y-17076146D01*
X63057200Y-17323633D01*
X9134295Y-17323633D01*
X9100075Y-17151599D01*
X9013913Y-16943587D01*
X8888826Y-16756380D01*
X8729620Y-16597174D01*
X8542413Y-16472087D01*
X8334401Y-16385925D01*
X8113576Y-16342000D01*
X7888424Y-16342000D01*
X7667599Y-16385925D01*
X7459587Y-16472087D01*
X7272380Y-16597174D01*
X7113174Y-16756380D01*
X6988087Y-16943587D01*
X6901925Y-17151599D01*
X6858000Y-17372424D01*
X6489700Y-17372424D01*
X6489700Y-16394324D01*
X7777992Y-15106034D01*
X7888424Y-15128000D01*
X8113576Y-15128000D01*
X8334401Y-15084075D01*
X8542413Y-14997913D01*
X8729620Y-14872826D01*
X8888826Y-14713620D01*
X9013913Y-14526413D01*
X9100075Y-14318401D01*
X9144000Y-14097576D01*
X9144000Y-13872424D01*
X9100075Y-13651599D01*
X9013913Y-13443587D01*
X8888826Y-13256380D01*
X8729620Y-13097174D01*
X8542413Y-12972087D01*
X8334401Y-12885925D01*
X8113576Y-12842000D01*
X7888424Y-12842000D01*
X7667599Y-12885925D01*
X7459587Y-12972087D01*
X7272380Y-13097174D01*
X7113174Y-13256380D01*
X6988087Y-13443587D01*
X6901925Y-13651599D01*
X6858000Y-13872424D01*
X6858000Y-14097576D01*
X6879966Y-14208008D01*
X5427746Y-15660230D01*
X5403516Y-15680115D01*
X5383632Y-15704344D01*
X5324163Y-15776807D01*
X5265198Y-15887121D01*
X5228889Y-16006819D01*
X5216629Y-16131300D01*
X406000Y-16131300D01*
X406000Y-10372424D01*
X6858000Y-10372424D01*
X6858000Y-10597576D01*
X6901925Y-10818401D01*
X6988087Y-11026413D01*
X7113174Y-11213620D01*
X7272380Y-11372826D01*
X7459587Y-11497913D01*
X7667599Y-11584075D01*
X7888424Y-11628000D01*
X8113576Y-11628000D01*
X8334401Y-11584075D01*
X8542413Y-11497913D01*
X8729620Y-11372826D01*
X8888826Y-11213620D01*
X9013913Y-11026413D01*
X9100075Y-10818401D01*
X9144000Y-10597576D01*
X9144000Y-10372424D01*
X9100075Y-10151599D01*
X9013913Y-9943587D01*
X8888826Y-9756380D01*
X8729620Y-9597174D01*
X8542413Y-9472087D01*
X8334401Y-9385925D01*
X8113576Y-9342000D01*
X7888424Y-9342000D01*
X7667599Y-9385925D01*
X7459587Y-9472087D01*
X7272380Y-9597174D01*
X7113174Y-9756380D01*
X6988087Y-9943587D01*
X6901925Y-10151599D01*
X6858000Y-10372424D01*
X406000Y-10372424D01*
X406000Y-4064846D01*
X9944100Y-4064846D01*
X9944100Y-4672754D01*
X10062697Y-5268982D01*
X10295334Y-5830616D01*
X10633070Y-6336074D01*
X11062926Y-6765930D01*
X11568384Y-7103666D01*
X12130018Y-7336303D01*
X12726246Y-7454900D01*
X13334154Y-7454900D01*
X13930382Y-7336303D01*
X14167843Y-7237943D01*
X24460200Y-7237943D01*
X24460200Y-9461500D01*
X24467521Y-9535831D01*
X24486856Y-9633033D01*
X24508537Y-9704505D01*
X24543745Y-9770374D01*
X24598805Y-9852777D01*
X24646187Y-9910513D01*
X24703923Y-9957895D01*
X24786326Y-10012955D01*
X24852194Y-10048163D01*
X24923667Y-10069844D01*
X25020869Y-10089179D01*
X25095200Y-10096500D01*
X27841382Y-10096500D01*
X27893559Y-10092910D01*
X27962477Y-10083382D01*
X28013677Y-10072679D01*
X29370798Y-9690100D01*
X46788440Y-9690100D01*
X46832577Y-10138234D01*
X46963293Y-10569147D01*
X47175564Y-10966278D01*
X47461233Y-11314367D01*
X47809322Y-11600036D01*
X48206453Y-11812307D01*
X48637366Y-11943023D01*
X48973205Y-11976100D01*
X61985608Y-11976100D01*
X62097900Y-11987160D01*
X62210192Y-11976100D01*
X62210195Y-11976100D01*
X62546034Y-11943023D01*
X62976947Y-11812307D01*
X63374078Y-11600036D01*
X63722167Y-11314367D01*
X63793758Y-11227133D01*
X66034050Y-8986842D01*
X66248135Y-8725979D01*
X66460407Y-8328847D01*
X66591123Y-7897935D01*
X66635260Y-7449800D01*
X66591123Y-7001666D01*
X66460407Y-6570753D01*
X66248135Y-6173622D01*
X65962466Y-5825534D01*
X65614378Y-5539865D01*
X65217247Y-5327593D01*
X64786334Y-5196877D01*
X64338200Y-5152740D01*
X63890065Y-5196877D01*
X63459153Y-5327593D01*
X63062021Y-5539865D01*
X62801158Y-5753950D01*
X61151009Y-7404100D01*
X58877743Y-7404100D01*
X59218582Y-7336303D01*
X59780216Y-7103666D01*
X60285674Y-6765930D01*
X60715530Y-6336074D01*
X61053266Y-5830616D01*
X61285903Y-5268982D01*
X61404500Y-4672754D01*
X61404500Y-4064846D01*
X61285903Y-3468618D01*
X61053266Y-2906984D01*
X60715530Y-2401526D01*
X60285674Y-1971670D01*
X59780216Y-1633934D01*
X59218582Y-1401297D01*
X58622354Y-1282700D01*
X58014446Y-1282700D01*
X57418218Y-1401297D01*
X56856584Y-1633934D01*
X56351126Y-1971670D01*
X55921270Y-2401526D01*
X55583534Y-2906984D01*
X55350897Y-3468618D01*
X55232300Y-4064846D01*
X55232300Y-4672754D01*
X55350897Y-5268982D01*
X55583534Y-5830616D01*
X55921270Y-6336074D01*
X56351126Y-6765930D01*
X56856584Y-7103666D01*
X57418218Y-7336303D01*
X57759057Y-7404100D01*
X48973205Y-7404100D01*
X48637366Y-7437177D01*
X48206453Y-7567893D01*
X47809322Y-7780164D01*
X47461233Y-8065833D01*
X47175564Y-8413922D01*
X46963293Y-8811053D01*
X46832577Y-9241966D01*
X46788440Y-9690100D01*
X29370798Y-9690100D01*
X34586639Y-8219730D01*
X34604100Y-8217386D01*
X38310892Y-8246619D01*
X38385647Y-8239814D01*
X38483462Y-8221058D01*
X38555776Y-8199588D01*
X38621819Y-8164705D01*
X38704903Y-8109781D01*
X38763408Y-8062152D01*
X38810960Y-8004557D01*
X38866537Y-7921909D01*
X38902227Y-7855453D01*
X38923979Y-7784002D01*
X38943506Y-7686338D01*
X38950900Y-7611639D01*
X38950900Y-5923088D01*
X38943632Y-5849027D01*
X38924437Y-5752164D01*
X38903019Y-5681187D01*
X38867953Y-5615241D01*
X38813271Y-5533018D01*
X38766402Y-5475570D01*
X38708839Y-5427979D01*
X38626933Y-5372822D01*
X38561694Y-5337587D01*
X38490331Y-5315546D01*
X38393580Y-5295793D01*
X38319566Y-5288098D01*
X33094952Y-5257933D01*
X33062144Y-5259158D01*
X33018544Y-5262672D01*
X32985952Y-5266719D01*
X24989867Y-6611740D01*
X24925229Y-6628549D01*
X24841665Y-6658313D01*
X24787896Y-6682293D01*
X24726044Y-6724158D01*
X24657811Y-6780841D01*
X24615562Y-6821854D01*
X24571878Y-6882436D01*
X24527298Y-6959127D01*
X24501732Y-7012160D01*
X24481544Y-7084069D01*
X24466054Y-7171412D01*
X24460200Y-7237943D01*
X14167843Y-7237943D01*
X14492016Y-7103666D01*
X14997474Y-6765930D01*
X15427330Y-6336074D01*
X15765066Y-5830616D01*
X15997703Y-5268982D01*
X16116300Y-4672754D01*
X16116300Y-4064846D01*
X15997703Y-3468618D01*
X15765066Y-2906984D01*
X15427330Y-2401526D01*
X14997474Y-1971670D01*
X14492016Y-1633934D01*
X13930382Y-1401297D01*
X13334154Y-1282700D01*
X12726246Y-1282700D01*
X12130018Y-1401297D01*
X11568384Y-1633934D01*
X11062926Y-1971670D01*
X10633070Y-2401526D01*
X10295334Y-2906984D01*
X10062697Y-3468618D01*
X9944100Y-4064846D01*
X406000Y-4064846D01*
X406000Y-406000D01*
X73991000Y-406000D01*
X73991001Y-65812000D01*
G37*
%TD.AperFunction*%
%TD*%
D20*
%TO.N,Net-(Q2-Pad3)*%
X61302915Y-28379103D02*
X61492210Y-28436521D01*
X61666670Y-28529766D01*
X61819591Y-28655253D01*
X61945089Y-28808157D01*
X62038349Y-28982607D01*
X62095789Y-29171906D01*
X62116423Y-29381210D01*
X62116427Y-29381255D01*
X62138321Y-29602532D01*
X62143216Y-29627035D01*
X62208011Y-29839742D01*
X62217608Y-29862812D01*
X62322795Y-30058716D01*
X62336722Y-30079460D01*
X62478228Y-30250979D01*
X62495949Y-30268595D01*
X62668299Y-30409088D01*
X62689125Y-30422893D01*
X62885646Y-30526924D01*
X62908772Y-30536385D01*
X63121857Y-30599925D01*
X63146387Y-30604675D01*
X63367789Y-30625266D01*
X63380286Y-30625810D01*
X65340108Y-30614450D01*
X65544616Y-30631190D01*
X65737691Y-30681850D01*
X65919001Y-30765340D01*
X66083007Y-30879108D01*
X66224716Y-31019691D01*
X66339796Y-31182791D01*
X66424731Y-31363426D01*
X66476931Y-31556087D01*
X66495303Y-31760449D01*
X66499119Y-33502035D01*
X66481806Y-33705537D01*
X66430925Y-33897586D01*
X66347534Y-34077935D01*
X66234173Y-34241091D01*
X66094247Y-34382154D01*
X65932006Y-34496839D01*
X65752350Y-34581684D01*
X65560714Y-34634120D01*
X65357354Y-34653081D01*
X63436961Y-34664430D01*
X63424858Y-34665080D01*
X63204611Y-34687486D01*
X63180866Y-34692222D01*
X62968874Y-34756021D01*
X62946459Y-34765177D01*
X62750427Y-34868049D01*
X62730157Y-34881293D01*
X62557213Y-35019500D01*
X62539825Y-35036350D01*
X62396253Y-35204867D01*
X62382378Y-35224711D01*
X62273398Y-35417414D01*
X62263543Y-35439531D01*
X62193116Y-35649414D01*
X62187636Y-35672999D01*
X62158322Y-35892434D01*
X62158323Y-35892434D01*
X62130616Y-36099252D01*
X62067893Y-36285490D01*
X61970844Y-36456359D01*
X61843017Y-36605612D01*
X61689099Y-36727777D01*
X61514724Y-36818384D01*
X61326280Y-36874110D01*
X61124586Y-36893500D01*
X53434448Y-36893500D01*
X53230505Y-36875657D01*
X53038135Y-36824112D01*
X52857640Y-36739945D01*
X52694510Y-36625720D01*
X52553680Y-36484890D01*
X52439455Y-36321760D01*
X52355288Y-36141265D01*
X52303743Y-35948895D01*
X52285900Y-35744952D01*
X52285900Y-29507648D01*
X52303743Y-29303705D01*
X52355288Y-29111335D01*
X52439455Y-28930840D01*
X52553680Y-28767710D01*
X52694510Y-28626880D01*
X52857640Y-28512655D01*
X53038135Y-28428488D01*
X53230505Y-28376943D01*
X53434448Y-28359100D01*
X61099806Y-28359100D01*
X61302915Y-28379103D01*
%TA.AperFunction,Conductor*%
D21*
G36*
X61302915Y-28379103D02*
G01*
X61492210Y-28436521D01*
X61666670Y-28529766D01*
X61819591Y-28655253D01*
X61945089Y-28808157D01*
X62038349Y-28982607D01*
X62095789Y-29171906D01*
X62116423Y-29381210D01*
X62116427Y-29381255D01*
X62138321Y-29602532D01*
X62143216Y-29627035D01*
X62208011Y-29839742D01*
X62217608Y-29862812D01*
X62322795Y-30058716D01*
X62336722Y-30079460D01*
X62478228Y-30250979D01*
X62495949Y-30268595D01*
X62668299Y-30409088D01*
X62689125Y-30422893D01*
X62885646Y-30526924D01*
X62908772Y-30536385D01*
X63121857Y-30599925D01*
X63146387Y-30604675D01*
X63367789Y-30625266D01*
X63380286Y-30625810D01*
X65340108Y-30614450D01*
X65544616Y-30631190D01*
X65737691Y-30681850D01*
X65919001Y-30765340D01*
X66083007Y-30879108D01*
X66224716Y-31019691D01*
X66339796Y-31182791D01*
X66424731Y-31363426D01*
X66476931Y-31556087D01*
X66495303Y-31760449D01*
X66499119Y-33502035D01*
X66481806Y-33705537D01*
X66430925Y-33897586D01*
X66347534Y-34077935D01*
X66234173Y-34241091D01*
X66094247Y-34382154D01*
X65932006Y-34496839D01*
X65752350Y-34581684D01*
X65560714Y-34634120D01*
X65357354Y-34653081D01*
X63436961Y-34664430D01*
X63424858Y-34665080D01*
X63204611Y-34687486D01*
X63180866Y-34692222D01*
X62968874Y-34756021D01*
X62946459Y-34765177D01*
X62750427Y-34868049D01*
X62730157Y-34881293D01*
X62557213Y-35019500D01*
X62539825Y-35036350D01*
X62396253Y-35204867D01*
X62382378Y-35224711D01*
X62273398Y-35417414D01*
X62263543Y-35439531D01*
X62193116Y-35649414D01*
X62187636Y-35672999D01*
X62158322Y-35892434D01*
X62158323Y-35892434D01*
X62130616Y-36099252D01*
X62067893Y-36285490D01*
X61970844Y-36456359D01*
X61843017Y-36605612D01*
X61689099Y-36727777D01*
X61514724Y-36818384D01*
X61326280Y-36874110D01*
X61124586Y-36893500D01*
X53434448Y-36893500D01*
X53230505Y-36875657D01*
X53038135Y-36824112D01*
X52857640Y-36739945D01*
X52694510Y-36625720D01*
X52553680Y-36484890D01*
X52439455Y-36321760D01*
X52355288Y-36141265D01*
X52303743Y-35948895D01*
X52285900Y-35744952D01*
X52285900Y-29507648D01*
X52303743Y-29303705D01*
X52355288Y-29111335D01*
X52439455Y-28930840D01*
X52553680Y-28767710D01*
X52694510Y-28626880D01*
X52857640Y-28512655D01*
X53038135Y-28428488D01*
X53230505Y-28376943D01*
X53434448Y-28359100D01*
X61099806Y-28359100D01*
X61302915Y-28379103D01*
G37*
%TD.AperFunction*%
%TD*%
M02*
