%TF.GenerationSoftware,KiCad,Pcbnew,(5.1.9)-1*%
%TF.CreationDate,2021-12-25T23:37:10-05:00*%
%TF.ProjectId,4runner-seat-heat,3472756e-6e65-4722-9d73-6561742d6865,rev?*%
%TF.SameCoordinates,Original*%
%TF.FileFunction,Other,User*%
%FSLAX46Y46*%
G04 Gerber Fmt 4.6, Leading zero omitted, Abs format (unit mm)*
G04 Created by KiCad (PCBNEW (5.1.9)-1) date 2021-12-25 23:37:10*
%MOMM*%
%LPD*%
G01*
G04 APERTURE LIST*
%ADD10C,0.050000*%
G04 APERTURE END LIST*
D10*
%TO.C,C7*%
X30563000Y-12668500D02*
X30563000Y-14128500D01*
X30563000Y-14128500D02*
X27603000Y-14128500D01*
X27603000Y-14128500D02*
X27603000Y-12668500D01*
X27603000Y-12668500D02*
X30563000Y-12668500D01*
%TO.C,C8*%
X33654800Y-20013900D02*
X33654800Y-24613900D01*
X30454800Y-20013900D02*
X33654800Y-20013900D01*
X30454800Y-24613900D02*
X30454800Y-20013900D01*
X33654800Y-24613900D02*
X30454800Y-24613900D01*
%TO.C,C9*%
X29743200Y-24588500D02*
X26543200Y-24588500D01*
X26543200Y-24588500D02*
X26543200Y-19988500D01*
X26543200Y-19988500D02*
X29743200Y-19988500D01*
X29743200Y-19988500D02*
X29743200Y-24588500D01*
%TO.C,C10*%
X27750800Y-9931200D02*
X23150800Y-9931200D01*
X27750800Y-6731200D02*
X27750800Y-9931200D01*
X23150800Y-6731200D02*
X27750800Y-6731200D01*
X23150800Y-9931200D02*
X23150800Y-6731200D01*
%TO.C,C6*%
X23138100Y-6705400D02*
X23138100Y-3505400D01*
X23138100Y-3505400D02*
X27738100Y-3505400D01*
X27738100Y-3505400D02*
X27738100Y-6705400D01*
X27738100Y-6705400D02*
X23138100Y-6705400D01*
%TO.C,C12*%
X22294400Y-17608800D02*
X25254400Y-17608800D01*
X22294400Y-19068800D02*
X22294400Y-17608800D01*
X25254400Y-19068800D02*
X22294400Y-19068800D01*
X25254400Y-17608800D02*
X25254400Y-19068800D01*
%TO.C,F2*%
X32239400Y-5378200D02*
X29279400Y-5378200D01*
X32239400Y-3918200D02*
X32239400Y-5378200D01*
X29279400Y-3918200D02*
X32239400Y-3918200D01*
X29279400Y-5378200D02*
X29279400Y-3918200D01*
%TO.C,R1*%
X19412400Y-57347100D02*
X19412400Y-58807100D01*
X19412400Y-58807100D02*
X16452400Y-58807100D01*
X16452400Y-58807100D02*
X16452400Y-57347100D01*
X16452400Y-57347100D02*
X19412400Y-57347100D01*
%TO.C,R3*%
X48773900Y-58934600D02*
X51733900Y-58934600D01*
X48773900Y-60394600D02*
X48773900Y-58934600D01*
X51733900Y-60394600D02*
X48773900Y-60394600D01*
X51733900Y-58934600D02*
X51733900Y-60394600D01*
%TO.C,R2*%
X16427000Y-60839100D02*
X16427000Y-59379100D01*
X16427000Y-59379100D02*
X19387000Y-59379100D01*
X19387000Y-59379100D02*
X19387000Y-60839100D01*
X19387000Y-60839100D02*
X16427000Y-60839100D01*
%TO.C,R9*%
X11524800Y-13862300D02*
X14484800Y-13862300D01*
X11524800Y-15322300D02*
X11524800Y-13862300D01*
X14484800Y-15322300D02*
X11524800Y-15322300D01*
X14484800Y-13862300D02*
X14484800Y-15322300D01*
%TO.C,R12*%
X14472100Y-11957300D02*
X14472100Y-13417300D01*
X14472100Y-13417300D02*
X11512100Y-13417300D01*
X11512100Y-13417300D02*
X11512100Y-11957300D01*
X11512100Y-11957300D02*
X14472100Y-11957300D01*
%TO.C,R4*%
X19501300Y-52800000D02*
X16541300Y-52800000D01*
X19501300Y-51340000D02*
X19501300Y-52800000D01*
X16541300Y-51340000D02*
X19501300Y-51340000D01*
X16541300Y-52800000D02*
X16541300Y-51340000D01*
%TO.C,R7*%
X51276700Y-38652700D02*
X51276700Y-40112700D01*
X51276700Y-40112700D02*
X48316700Y-40112700D01*
X48316700Y-40112700D02*
X48316700Y-38652700D01*
X48316700Y-38652700D02*
X51276700Y-38652700D01*
%TO.C,R5*%
X19526700Y-50780700D02*
X16566700Y-50780700D01*
X19526700Y-49320700D02*
X19526700Y-50780700D01*
X16566700Y-49320700D02*
X19526700Y-49320700D01*
X16566700Y-50780700D02*
X16566700Y-49320700D01*
%TO.C,R6*%
X15983400Y-40887900D02*
X15983400Y-42347900D01*
X15983400Y-42347900D02*
X13023400Y-42347900D01*
X13023400Y-42347900D02*
X13023400Y-40887900D01*
X13023400Y-40887900D02*
X15983400Y-40887900D01*
%TO.C,R8*%
X12998000Y-43059600D02*
X15958000Y-43059600D01*
X12998000Y-44519600D02*
X12998000Y-43059600D01*
X15958000Y-44519600D02*
X12998000Y-44519600D01*
X15958000Y-43059600D02*
X15958000Y-44519600D01*
%TO.C,R11*%
X19450500Y-27234900D02*
X16490500Y-27234900D01*
X19450500Y-25774900D02*
X19450500Y-27234900D01*
X16490500Y-25774900D02*
X19450500Y-25774900D01*
X16490500Y-27234900D02*
X16490500Y-25774900D01*
%TO.C,R10*%
X16541300Y-48520100D02*
X16541300Y-47060100D01*
X16541300Y-47060100D02*
X19501300Y-47060100D01*
X19501300Y-47060100D02*
X19501300Y-48520100D01*
X19501300Y-48520100D02*
X16541300Y-48520100D01*
%TO.C,R16*%
X12262100Y-22054000D02*
X12262100Y-19094000D01*
X13722100Y-22054000D02*
X12262100Y-22054000D01*
X13722100Y-19094000D02*
X13722100Y-22054000D01*
X12262100Y-19094000D02*
X13722100Y-19094000D01*
%TO.C,R15*%
X12020800Y-50196300D02*
X13480800Y-50196300D01*
X13480800Y-50196300D02*
X13480800Y-53156300D01*
X13480800Y-53156300D02*
X12020800Y-53156300D01*
X12020800Y-53156300D02*
X12020800Y-50196300D01*
%TO.C,R14*%
X19450500Y-23831800D02*
X19450500Y-25291800D01*
X19450500Y-25291800D02*
X16490500Y-25291800D01*
X16490500Y-25291800D02*
X16490500Y-23831800D01*
X16490500Y-23831800D02*
X19450500Y-23831800D01*
%TO.C,R13*%
X19514000Y-44990000D02*
X19514000Y-46450000D01*
X19514000Y-46450000D02*
X16554000Y-46450000D01*
X16554000Y-46450000D02*
X16554000Y-44990000D01*
X16554000Y-44990000D02*
X19514000Y-44990000D01*
%TO.C,R34*%
X22307100Y-19310600D02*
X25267100Y-19310600D01*
X22307100Y-20770600D02*
X22307100Y-19310600D01*
X25267100Y-20770600D02*
X22307100Y-20770600D01*
X25267100Y-19310600D02*
X25267100Y-20770600D01*
%TO.C,R35*%
X21291800Y-13075100D02*
X21291800Y-10115100D01*
X22751800Y-13075100D02*
X21291800Y-13075100D01*
X22751800Y-10115100D02*
X22751800Y-13075100D01*
X21291800Y-10115100D02*
X22751800Y-10115100D01*
%TO.C,R36*%
X22294400Y-17443200D02*
X22294400Y-15983200D01*
X22294400Y-15983200D02*
X25254400Y-15983200D01*
X25254400Y-15983200D02*
X25254400Y-17443200D01*
X25254400Y-17443200D02*
X22294400Y-17443200D01*
%TO.C,R37*%
X25304300Y-15957300D02*
X25304300Y-14497300D01*
X25304300Y-14497300D02*
X28264300Y-14497300D01*
X28264300Y-14497300D02*
X28264300Y-15957300D01*
X28264300Y-15957300D02*
X25304300Y-15957300D01*
%TO.C,R38*%
X28675600Y-17430500D02*
X25375600Y-17430500D01*
X28675600Y-15970500D02*
X28675600Y-17430500D01*
X25375600Y-15970500D02*
X28675600Y-15970500D01*
X25375600Y-17430500D02*
X25375600Y-15970500D01*
%TO.C,R17*%
X16401600Y-53283100D02*
X19361600Y-53283100D01*
X16401600Y-54743100D02*
X16401600Y-53283100D01*
X19361600Y-54743100D02*
X16401600Y-54743100D01*
X19361600Y-53283100D02*
X19361600Y-54743100D01*
%TO.C,R19*%
X19387000Y-40887900D02*
X19387000Y-42347900D01*
X19387000Y-42347900D02*
X16427000Y-42347900D01*
X16427000Y-42347900D02*
X16427000Y-40887900D01*
X16427000Y-40887900D02*
X19387000Y-40887900D01*
%TO.C,R18*%
X16452400Y-55365900D02*
X19412400Y-55365900D01*
X16452400Y-56825900D02*
X16452400Y-55365900D01*
X19412400Y-56825900D02*
X16452400Y-56825900D01*
X19412400Y-55365900D02*
X19412400Y-56825900D01*
%TO.C,R20*%
X19437800Y-44456100D02*
X16477800Y-44456100D01*
X19437800Y-42996100D02*
X19437800Y-44456100D01*
X16477800Y-42996100D02*
X19437800Y-42996100D01*
X16477800Y-44456100D02*
X16477800Y-42996100D01*
%TO.C,U1*%
X27212800Y-9933100D02*
X27212800Y-14273100D01*
X27212800Y-9933100D02*
X23812800Y-9933100D01*
X23812800Y-14273100D02*
X27212800Y-14273100D01*
X23812800Y-14273100D02*
X23812800Y-9933100D01*
%TO.C,LeftHeatLED*%
X52075900Y-60394600D02*
X52075900Y-58934600D01*
X52075900Y-58934600D02*
X55035900Y-58934600D01*
X55035900Y-58934600D02*
X55035900Y-60394600D01*
X55035900Y-60394600D02*
X52075900Y-60394600D01*
%TO.C,RightHeatLED*%
X54718400Y-40049200D02*
X51758400Y-40049200D01*
X54718400Y-38589200D02*
X54718400Y-40049200D01*
X51758400Y-38589200D02*
X54718400Y-38589200D01*
X51758400Y-40049200D02*
X51758400Y-38589200D01*
%TO.C,RightIllumLED*%
X10141200Y-22130200D02*
X10141200Y-19170200D01*
X11601200Y-22130200D02*
X10141200Y-22130200D01*
X11601200Y-19170200D02*
X11601200Y-22130200D01*
X10141200Y-19170200D02*
X11601200Y-19170200D01*
%TO.C,LeftIllumLED*%
X10204700Y-50259800D02*
X11664700Y-50259800D01*
X11664700Y-50259800D02*
X11664700Y-53219800D01*
X11664700Y-53219800D02*
X10204700Y-53219800D01*
X10204700Y-53219800D02*
X10204700Y-50259800D01*
%TO.C,Q1*%
X57278300Y-50035000D02*
X57278300Y-55535000D01*
X49938300Y-55535000D02*
X49938300Y-50035000D01*
X57278300Y-50035000D02*
X49938300Y-50035000D01*
X49938300Y-55535000D02*
X57278300Y-55535000D01*
%TO.C,Q2*%
X49938300Y-35274700D02*
X57278300Y-35274700D01*
X57278300Y-29774700D02*
X49938300Y-29774700D01*
X49938300Y-35274700D02*
X49938300Y-29774700D01*
X57278300Y-29774700D02*
X57278300Y-35274700D01*
%TO.C,Q4*%
X11939700Y-23865100D02*
X16279700Y-23865100D01*
X11939700Y-23865100D02*
X11939700Y-27265100D01*
X16279700Y-27265100D02*
X11939700Y-27265100D01*
X16279700Y-27265100D02*
X16279700Y-23865100D01*
%TO.C,Q3*%
X16038400Y-48385200D02*
X16038400Y-44985200D01*
X16038400Y-48385200D02*
X11698400Y-48385200D01*
X11698400Y-44985200D02*
X11698400Y-48385200D01*
X11698400Y-44985200D02*
X16038400Y-44985200D01*
%TO.C,L1*%
X42191900Y-7417500D02*
X42191900Y-18617500D01*
X33091900Y-7417500D02*
X42191900Y-7417500D01*
X31291900Y-9217500D02*
X33091900Y-7417500D01*
X31291900Y-18617500D02*
X31291900Y-9217500D01*
X42191900Y-18617500D02*
X31291900Y-18617500D01*
%TD*%
M02*
