<svg id="Layer_1" data-name="Layer 1" xmlns="http://www.w3.org/2000/svg" width="8.268in" height="1.412in" viewBox="0 0 595.276 101.648">
  <path d="M306.687,48.844h-1.045l-.13-.79-.023-.013c-.256-.02-.258-.022-.348.217-.069.186-.13.375-.2.581h-1c.125-.3.265-.6.378-.913a3.182,3.182,0,0,0,.311-.948h.1c.659,0,1.319,0,1.978,0a1.11,1.11,0,0,1,.237.026c.186.042.249.143.191.322-.053.159-.119.313-.184.468a.35.35,0,0,1-.3.221c-.053.007-.106.02-.169.032Zm-1.334-1.118h.369c.329,0,.327,0,.433-.309.034-.1,0-.133-.092-.133-.155,0-.311,0-.465,0a.139.139,0,0,0-.1.068C305.449,47.467,305.408,47.585,305.353,47.726Z"/>
  <path d="M289.508,48.847l.277-.574h-1.672a1.1,1.1,0,0,1,.38-.625l1.816-1.314a.193.193,0,0,1,.1-.043c.314,0,.629,0,.964,0-.033.091-.059.169-.089.244q-.441,1.116-.885,2.23c-.014.034-.057.08-.087.08C290.041,48.85,289.768,48.847,289.508,48.847Zm-.381-1.287.007.029c.279,0,.559,0,.838,0,.027,0,.062-.048.077-.08.067-.154.129-.309.192-.465.033-.081.063-.164.106-.276Z"/>
  <path d="M298.369,48.842h-1.076a5.7,5.7,0,0,0,.589-1.3c.077-.175.053-.2-.137-.2-.456,0-.4-.042-.563.384-.084.219-.176.435-.254.656-.05.144-.082.294-.127.46h-1.043a8.541,8.541,0,0,0,.729-1.869h.9l-.023.177c.173-.23.4-.185.619-.185a5.164,5.164,0,0,1,.528.013c.288.028.405.189.321.47-.089.3-.216.589-.319.886C298.459,48.492,298.42,48.662,298.369,48.842Z"/>
  <path d="M301.207,48.842h-1.08a6.408,6.408,0,0,0,.608-1.36c.04-.091.006-.147-.1-.145h-.025c-.491,0-.432-.053-.605.4-.087.226-.183.45-.263.678-.047.133-.07.273-.107.424h-1.05a8.6,8.6,0,0,0,.735-1.871h.9l-.018.168c.175-.22.407-.177.627-.175.193,0,.387,0,.578.022a.271.271,0,0,1,.273.312,1.215,1.215,0,0,1-.068.342c-.087.248-.193.49-.28.739C301.279,48.522,301.25,48.678,301.207,48.842Z"/>
  <path d="M293.654,46.964h.987l-.266.684c-.088.226-.178.451-.262.679-.045.12-.028.145.1.144.537,0,.443.078.636-.418.076-.2.158-.388.226-.585.055-.16.093-.325.142-.5h.994l-.369.956c-.058.148-.121.294-.171.445s-.084.3-.13.471h-.915l.017-.126c-.142.165-.332.136-.514.135s-.361,0-.542,0c-.419-.005-.465-.22-.389-.511s.209-.564.308-.848C293.563,47.321,293.6,47.148,293.654,46.964Z"/>
  <path d="M292.618,48.84h-1.069v-1.1h-.639c.054-.141.1-.266.153-.387.011-.025.065-.044.1-.045.252,0,.5-.007.756,0a.221.221,0,0,0,.248-.163c.031-.091.07-.18.1-.27.054-.147.038-.171-.116-.171h-.829c.054-.14.1-.268.153-.392.01-.022.062-.037.094-.037.433,0,.866-.007,1.3,0s.525.17.384.563c-.059.161-.125.32-.182.482a.55.55,0,0,1-.549.413Z"/>
  <path d="M301.486,48.847a14.728,14.728,0,0,0,.741-1.864h2.1l-.056.316c-.377-.005-.74-.013-1.1-.012a.159.159,0,0,0-.114.079c-.053.108-.091.224-.137.34h1.1l-.136.35c-.333-.007-.65-.008-.967-.022a.153.153,0,0,0-.18.126c-.037.119-.088.233-.135.354h1.239c-.059.094-.119.194-.185.29a.113.113,0,0,1-.081.041C302.876,48.847,302.175,48.847,301.486,48.847Z"/>
</svg>
